{
.appVersion = "1287";
DisplayStrings = (
".,:;/ellipsis !¡?¿·/bullet *#///backslash (){}[]-­/endash/emdash _/quotesinglbase/quotedblbase/quotedblleft/quotedblright/quoteleft/quoteright «»/guilsinglleft/guilsinglright \"'",
"¢$/euro £¥+/minus ×÷=/notequal ></greaterequal/lessequal ±~^%/perthousand/uni2215/uni2219 @&¶©®/trademark °|",
"»",
"/Q.ss03/R.ss03 \012Q/R.ss03",
"ABCDEFGHIJKLMNOPQRSTUVWXYZ/A.ss01/E.ss01/F.ss01/J.ss01/U.ss02/Y.ss02/G.ss03/K.ss03/Q.ss03/R.ss03/U.ss03 \012CD ROM\012OMNIVORE\012AMNESIA",
"/quotedblright \"",
"/quotedblleft",
".,:;/ellipsis !¡?¿·/bullet *#///backslash (){}[]-­/endash/emdash _/quotesinglbase/quotedblbase/quotedblleft/quotedblright/quoteleft/quoteright «»/guilsinglleft/guilsinglright \"'",
"/lessequal",
"/G.ss03 ilimanuks\012kevin\012demikian\012ikihib\012hiperaktif\012ij\012identitas\012hip\012\012\012"
);
classes = (
{
automatic = 1;
code = "A B C D E F G H I J K L M N O P Q R S T U V W X Y Z A.ss01 E.ss01 F.ss01 J.ss01 U.ss02 Y.ss02 G.ss03 K.ss03 Q.ss03 R.ss03 U.ss03";
name = Uppercase;
}
);
copyright = "Buda Patrayasa";
customParameters = (
{
name = vendorID;
value = BW;
},
{
name = fsType;
value = (
);
},
{
name = Axes;
value = (
{
Name = Weight;
Tag = wght;
}
);
}
);
date = "2021-12-31 10:59:56 AM +0000";
designer = "Buda Patrayasa";
designerURL = instagram.com/budapatrayasa;
familyName = "Sewaka Sans";
featurePrefixes = (
{
automatic = 1;
code = "languagesystem DFLT dflt;\012";
name = Languagesystems;
}
);
features = (
{
automatic = 1;
code = "feature ss01;\012feature ss02;\012feature ss03;\012feature salt;\012";
name = aalt;
},
{
automatic = 1;
code = "lookupflag IgnoreMarks;\012sub f t by f_t;\012sub t i by t_i;\012sub t t by t_t;\012";
name = dlig;
},
{
automatic = 1;
code = "lookupflag IgnoreMarks;\012sub f f by f_f;\012sub f i by f_i;\012sub f l by f_l;\012";
name = liga;
},
{
automatic = 1;

glyphs = (
{
glyphname = A;
lastChange = "2021-12-05 09:42:58 +0000";
layers = (
{
layerId = "3A3E882A-FD1E-4FEC-B6F3-0E8C1BCDAD39";
paths = (
{
closed = 1;
nodes = (
"104 0 LINE",
"161 177 LINE",
"465 177 LINE",
"522 0 LINE",
"616 0 LINE",
"366 700 LINE",
"261 700 LINE",
"10 0 LINE"
);
},
{
closed = 1;
nodes = (
"313 605 LINE",
"436 258 LINE",
"190 258 LINE"
);
}
);
width = 626;
},
{
layerId = "541F4A62-0ECD-4B4B-B1D5-38FFB5FB401F";
paths = (
{
closed = 1;
nodes = (
"161 0 LINE",
"218 177 LINE",
"474 177 LINE",
"531 0 LINE",
"687 0 LINE",
"423 700 LINE",
"271 700 LINE",
"5 0 LINE"
);
},
{
closed = 1;
nodes = (
"346 534 LINE",
"431 298 LINE",
"261 298 LINE"
);
}
);
width = 692;
}
);
leftKerningGroup = A;
rightKerningGroup = A;
unicode = 0041;
},
{
glyphname = B;
lastChange = "2021-12-05 07:20:06 +0000";
layers = (
{
layerId = "3A3E882A-FD1E-4FEC-B6F3-0E8C1BCDAD39";
paths = (
{
closed = 1;
nodes = (
"375 0 LINE SMOOTH",
"549 0 OFFCURVE",
"596 87 OFFCURVE",
"596 192 CURVE SMOOTH",
"596 263 OFFCURVE",
"552 363 OFFCURVE",
"469 387 CURVE",
"469 361 LINE",
"530 398 OFFCURVE",
"558 470 OFFCURVE",
"558 531 CURVE SMOOTH",
"558 625 OFFCURVE",
"496 700 OFFCURVE",
"359 700 CURVE SMOOTH",
"76 700 LINE",
"76 0 LINE"
);
},
{
closed = 1;
nodes = (
"170 621 LINE",
"369 620 LINE SMOOTH",
"433 620 OFFCURVE",
"473 568 OFFCURVE",
"473 513 CURVE SMOOTH",
"473 462 OFFCURVE",
"437 409 OFFCURVE",
"369 409 CURVE SMOOTH",
"170 409 LINE"
);
},
{
closed = 1;
nodes = (
"170 334 LINE",
"384 334 LINE SMOOTH",
"456 334 OFFCURVE",
"500 274 OFFCURVE",
"500 195 CURVE SMOOTH",
"500 133 OFFCURVE",
"455 80 OFFCURVE",
"385 80 CURVE SMOOTH",
"170 79 LINE"
);
}
);
width = 634;
},
{
layerId = "541F4A62-0ECD-4B4B-B1D5-38FFB5FB401F";
paths = (
{
closed = 1;
nodes = (
"386 0 LINE SMOOTH",
"551 0 OFFCURVE",
"637 72 OFFCURVE",
"637 212 CURVE SMOOTH",
"637 323 OFFCURVE",
"555 377 OFFCURVE",
"450 382 CURVE",
"440 342 LINE",
"533 373 OFFCURVE",
"590 428 OFFCURVE",
"590 522 CURVE SMOOTH",
"590 618 OFFCURVE",
"520 700 OFFCURVE",
"370 700 CURVE SMOOTH",
"47 700 LINE",
"47 0 LINE"
);
},
{
closed = 1;
nodes = (
"201 580 LINE",
"370 580 LINE SMOOTH",
"412 580 OFFCURVE",
"444 553 OFFCURVE",
"444 504 CURVE SMOOTH",
"444 455 OFFCURVE",
"413 423 OFFCURVE",
"370 423 CURVE SMOOTH",
"201 423 LINE"
);
},
{
closed = 1;
nodes = (
"201 303 LINE",
"385 303 LINE SMOOTH",
"435 303 OFFCURVE",
"471 286 OFFCURVE",
"471 215 CURVE SMOOTH",
"471 160 OFFCURVE",
"436 120 OFFCURVE",
"386 120 CURVE SMOOTH",
"201 119 LINE"
);
}
);
width = 666;
}
);
unicode = 0042;
},
{
glyphname = C;
lastChange = "2021-12-04 19:53:38 +0000";
layers = (
{
layerId = "3A3E882A-FD1E-4FEC-B6F3-0E8C1BCDAD39";
paths = (
{
closed = 1;
nodes = (
"500 -15 OFFCURVE",
"592 51 OFFCURVE",
"642 148 CURVE",
"559 187 LINE",
"525 114 OFFCURVE",
"452 65 OFFCURVE",
"370 65 CURVE SMOOTH",
"245 65 OFFCURVE",
"144 185 OFFCURVE",
"144 350 CURVE SMOOTH",
"144 514 OFFCURVE",
"245 635 OFFCURVE",
"370 635 CURVE SMOOTH",
"452 635 OFFCURVE",
"525 586 OFFCURVE",
"559 513 CURVE",
"642 552 LINE",
"592 649 OFFCURVE",
"490 715 OFFCURVE",
"370 715 CURVE SMOOTH",
"190 715 OFFCURVE",
"50 544 OFFCURVE",
"50 350 CURVE",
"50 155 OFFCURVE",
"190 -15 OFFCURVE",
"370 -15 CURVE SMOOTH"
);
}
);
width = 680;
},
{
layerId = "541F4A62-0ECD-4B4B-B1D5-38FFB5FB401F";
paths = (
{
closed = 1;
nodes = (
"524 -15 OFFCURVE",
"627 38 OFFCURVE",
"692 184 CURVE",
"556 247 LINE",
"528 164 OFFCURVE",
"461 115 OFFCURVE",
"385 115 CURVE SMOOTH",
"276 115 OFFCURVE",
"189 211 OFFCURVE",
"189 350 CURVE SMOOTH",
"189 489 OFFCURVE",
"276 585 OFFCURVE",
"385 585 CURVE SMOOTH",
"461 585 OFFCURVE",
"528 534 OFFCURVE",
"556 451 CURVE",
"692 514 LINE",
"642 652 OFFCURVE",
"519 715 OFFCURVE",
"385 715 CURVE SMOOTH",
"193 715 OFFCURVE",
"35 561 OFFCURVE",
"35 350 CURVE SMOOTH",
"35 138 OFFCURVE",
"192 -15 OFFCURVE",
"385 -15 CURVE SMOOTH"
);
}
);
width = 714;
}
);
leftKerningGroup = C;
rightKerningGroup = C;
unicode = 0043;
},
{
glyphname = D;
lastChange = "2021-12-04 18:53:34 +0000";
layers = (
{
layerId = "3A3E882A-FD1E-4FEC-B6F3-0E8C1BCDAD39";
paths = (
{
closed = 1;
nodes = (
"76 700 LINE",
"76 0 LINE",
"324 0 LINE SMOOTH",
"517 0 OFFCURVE",
"643 148 OFFCURVE",
"643 349 CURVE SMOOTH",
"643 545 OFFCURVE",
"522 700 OFFCURVE",
"324 700 CURVE SMOOTH"
);
},
{
closed = 1;
nodes = (
"170 80 LINE",
"170 620 LINE",
"324 620 LINE SMOOTH",
"461 621 OFFCURVE",
"547 504 OFFCURVE",
"547 349 CURVE SMOOTH",
"547 195 OFFCURVE",
"463 80 OFFCURVE",
"324 80 CURVE SMOOTH"
);
}
);
width = 693;
},
{
layerId = "541F4A62-0ECD-4B4B-B1D5-38FFB5FB401F";
paths = (
{
closed = 1;
nodes = (
"44 700 LINE",
"44 0 LINE",
"322 0 LINE SMOOTH",
"528 0 OFFCURVE",
"671 152 OFFCURVE",
"671 349 CURVE SMOOTH",
"671 567 OFFCURVE",
"528 700 OFFCURVE",
"322 700 CURVE SMOOTH"
);
},
{
closed = 1;
nodes = (
"198 120 LINE",
"198 580 LINE",
"322 580 LINE SMOOTH",
"436 580 OFFCURVE",
"515 499 OFFCURVE",
"515 349 CURVE SMOOTH",
"515 200 OFFCURVE",
"438 120 OFFCURVE",
"322 120 CURVE SMOOTH"
);
}
);
width = 706;
}
);
rightKerningGroup = D;
unicode = 0044;
},
{
glyphname = E;
lastChange = "2021-12-05 09:53:14 +0000";
layers = (
{
layerId = "3A3E882A-FD1E-4FEC-B6F3-0E8C1BCDAD39";
paths = (
{
closed = 1;
nodes = (
"529 0 LINE",
"529 85 LINE",
"170 85 LINE",
"170 318 LINE",
"437 318 LINE",
"437 403 LINE",
"170 403 LINE",
"170 615 LINE",
"529 615 LINE",
"529 700 LINE",
"76 700 LINE",
"76 0 LINE"
);
}
);
width = 567;
},
{
layerId = "541F4A62-0ECD-4B4B-B1D5-38FFB5FB401F";
paths = (
{
closed = 1;
nodes = (
"557 0 LINE",
"557 125 LINE",
"198 125 LINE",
"198 298 LINE",
"455 298 LINE",
"455 423 LINE",
"198 423 LINE",
"198 575 LINE",
"557 575 LINE",
"557 700 LINE",
"44 700 LINE",
"44 0 LINE"
);
}
);
width = 579;
}
);
leftKerningGroup = E;
rightKerningGroup = E;
unicode = 0045;
},
{
glyphname = F;
lastChange = "2021-12-05 09:52:57 +0000";
layers = (
{
layerId = "3A3E882A-FD1E-4FEC-B6F3-0E8C1BCDAD39";
paths = (
{
closed = 1;
nodes = (
"170 0 LINE",
"170 318 LINE",
"524 318 LINE",
"524 403 LINE",
"170 403 LINE",
"170 615 LINE",
"524 615 LINE",
"524 700 LINE",
"76 700 LINE",
"76 0 LINE"
);
}
);
width = 562;
},
{
layerId = "541F4A62-0ECD-4B4B-B1D5-38FFB5FB401F";
paths = (
{
closed = 1;
nodes = (
"198 0 LINE",
"198 308 LINE",
"552 308 LINE",
"552 433 LINE",
"198 433 LINE",
"198 575 LINE",
"552 575 LINE",
"552 700 LINE",
"44 700 LINE",
"44 0 LINE"
);
}
);
width = 574;
}
);
leftKerningGroup = F;
rightKerningGroup = F;
unicode = 0046;
},
{
glyphname = G;
lastChange = "2021-12-05 09:30:32 +0000";
layers = (
{
layerId = "3A3E882A-FD1E-4FEC-B6F3-0E8C1BCDAD39";
paths = (
{
closed = 1;
nodes = (
"359 287 LINE",
"586 287 LINE",
"586 239 OFFCURVE",
"581 205 OFFCURVE",
"570 178 CURVE",
"538 92 OFFCURVE",
"483 70 OFFCURVE",
"381 70 CURVE SMOOTH",
"256 70 OFFCURVE",
"144 185 OFFCURVE",
"144 350 CURVE SMOOTH",
"144 514 OFFCURVE",
"245 635 OFFCURVE",
"370 635 CURVE SMOOTH",
"452 635 OFFCURVE",
"535 586 OFFCURVE",
"569 513 CURVE",
"652 552 LINE",
"602 649 OFFCURVE",
"490 715 OFFCURVE",
"370 715 CURVE SMOOTH",
"190 715 OFFCURVE",
"50 544 OFFCURVE",
"50 350 CURVE SMOOTH",
"50 155 OFFCURVE",
"191 -15 OFFCURVE",
"361 -15 CURVE SMOOTH",
"518 -15 OFFCURVE",
"591 21 OFFCURVE",
"643 138 CURVE SMOOTH",
"673 206 OFFCURVE",
"666 293 OFFCURVE",
"666 372 CURVE",
"359 372 LINE"
);
}
);
width = 735;
},
{
layerId = "541F4A62-0ECD-4B4B-B1D5-38FFB5FB401F";
paths = (
{
closed = 1;
nodes = (
"344 267 LINE",
"572 267 LINE",
"571 228 OFFCURVE",
"565 208 OFFCURVE",
"555 189 CURVE",
"521 125 OFFCURVE",
"464 115 OFFCURVE",
"385 115 CURVE SMOOTH",
"276 115 OFFCURVE",
"189 201 OFFCURVE",
"189 350 CURVE SMOOTH",
"189 499 OFFCURVE",
"276 585 OFFCURVE",
"385 585 CURVE SMOOTH",
"461 585 OFFCURVE",
"528 564 OFFCURVE",
"556 481 CURVE",
"692 544 LINE",
"642 659 OFFCURVE",
"519 715 OFFCURVE",
"385 715 CURVE SMOOTH",
"193 715 OFFCURVE",
"35 561 OFFCURVE",
"35 350 CURVE SMOOTH",
"35 138 OFFCURVE",
"181 -15 OFFCURVE",
"385 -15 CURVE SMOOTH",
"531 -15 OFFCURVE",
"624 15 OFFCURVE",
"677 130 CURVE SMOOTH",
"712 207 OFFCURVE",
"710 318 OFFCURVE",
"711 392 CURVE",
"344 392 LINE"
);
}
);
width = 747;
}
);
leftKerningGroup = C;
rightKerningGroup = G;
unicode = 0047;
},
{
glyphname = H;
lastChange = "2021-12-05 06:51:15 +0000";
layers = (
{
layerId = "3A3E882A-FD1E-4FEC-B6F3-0E8C1BCDAD39";
paths = (
{
closed = 1;
nodes = (
"170 0 LINE",
"170 308 LINE",
"520 308 LINE",
"520 0 LINE",
"614 0 LINE",
"614 700 LINE",
"520 700 LINE",
"520 393 LINE",
"170 393 LINE",
"170 700 LINE",
"76 700 LINE",
"76 0 LINE"
);
}
);
width = 690;
},
{
layerId = "541F4A62-0ECD-4B4B-B1D5-38FFB5FB401F";
paths = (
{
closed = 1;
nodes = (
"232 0 LINE",
"232 288 LINE",
"522 288 LINE",
"522 0 LINE",
"676 0 LINE",
"676 700 LINE",
"522 700 LINE",
"522 413 LINE",
"232 413 LINE",
"232 700 LINE",
"78 700 LINE",
"78 0 LINE"
);
}
);
width = 754;
}
);
rightKerningGroup = H;
unicode = 0048;
},
{
glyphname = I;
lastChange = "2021-12-04 18:53:34 +0000";
layers = (
{
layerId = "3A3E882A-FD1E-4FEC-B6F3-0E8C1BCDAD39";
paths = (
{
closed = 1;
nodes = (
"346 0 LINE",
"346 75 LINE",
"253 75 LINE",
"253 625 LINE",
"346 625 LINE",
"346 700 LINE",
"66 700 LINE",
"66 625 LINE",
"159 625 LINE",
"159 75 LINE",
"66 75 LINE",
"66 0 LINE"
);
}
);
width = 412;
},
{
layerId = "541F4A62-0ECD-4B4B-B1D5-38FFB5FB401F";
paths = (
{
closed = 1;
nodes = (
"397 0 LINE",
"397 115 LINE",
"304 115 LINE",
"304 585 LINE",
"397 585 LINE",
"397 700 LINE",
"57 700 LINE",
"57 585 LINE",
"150 585 LINE",
"150 115 LINE",
"57 115 LINE",
"57 0 LINE"
);
}
);
width = 454;
}
);
rightKerningGroup = I;
unicode = 0049;
},
{
glyphname = J;
lastChange = "2021-12-05 09:25:18 +0000";
layers = (
{
layerId = "3A3E882A-FD1E-4FEC-B6F3-0E8C1BCDAD39";
paths = (
{
closed = 1;
nodes = (
"15 187 LINE",
"22 54 OFFCURVE",
"110 -15 OFFCURVE",
"235 -15 CURVE SMOOTH",
"366 -15 OFFCURVE",
"445 61 OFFCURVE",
"445 206 CURVE SMOOTH",
"445 700 LINE",
"351 700 LINE",
"351 207 LINE SMOOTH",
"351 127 OFFCURVE",
"314 62 OFFCURVE",
"235 62 CURVE SMOOTH",
"169 62 OFFCURVE",
"102 109 OFFCURVE",
"103 207 CURVE"
);
}
);
width = 521;
},
{
layerId = "541F4A62-0ECD-4B4B-B1D5-38FFB5FB401F";
paths = (
{
closed = 1;
nodes = (
"5 221 LINE",
"5 75 OFFCURVE",
"103 -15 OFFCURVE",
"255 -15 CURVE SMOOTH",
"406 -15 OFFCURVE",
"495 73 OFFCURVE",
"495 226 CURVE SMOOTH",
"495 700 LINE",
"341 700 LINE",
"341 227 LINE SMOOTH",
"341 149 OFFCURVE",
"309 105 OFFCURVE",
"255 105 CURVE SMOOTH",
"187 105 OFFCURVE",
"135 161 OFFCURVE",
"135 255 CURVE"
);
}
);
width = 539;
}
);
leftKerningGroup = J;
rightKerningGroup = J;
unicode = 004A;
},
{
glyphname = K;
lastChange = "2021-12-14 09:38:09 +0000";
layers = (
{
layerId = "3A3E882A-FD1E-4FEC-B6F3-0E8C1BCDAD39";
paths = (
{
closed = 1;
nodes = (
"323 401 LINE",
"588 700 LINE",
"479 700 LINE",
"170 350 LINE",
"170 700 LINE",
"76 700 LINE",
"76 0 LINE",
"170 0 LINE",
"170 229 LINE",
"260 330 LINE",
"493 1 LINE",
"606 0 LINE"
);
}
);
width = 616;
},
{
layerId = "541F4A62-0ECD-4B4B-B1D5-38FFB5FB401F";
paths = (
{
closed = 1;
nodes = (
"354 400 LINE",
"638 700 LINE",
"460 700 LINE",
"198 423 LINE",
"198 700 LINE",
"44 700 LINE",
"44 0 LINE",
"198 0 LINE",
"198 244 LINE",
"255 308 LINE",
"472 1 LINE",
"651 0 LINE"
);
}
);
width = 661;
}
);
leftKerningGroup = K;
rightKerningGroup = K;
unicode = 004B;
},
{
glyphname = L;
lastChange = "2021-12-04 18:53:34 +0000";
layers = (
{
layerId = "3A3E882A-FD1E-4FEC-B6F3-0E8C1BCDAD39";
paths = (
{
closed = 1;
nodes = (
"529 0 LINE",
"529 85 LINE",
"170 85 LINE",
"170 615 LINE",
"170 700 LINE",
"76 700 LINE",
"76 0 LINE"
);
}
);
width = 539;
},
{
layerId = "541F4A62-0ECD-4B4B-B1D5-38FFB5FB401F";
paths = (
{
closed = 1;
nodes = (
"547 0 LINE",
"547 125 LINE",
"198 125 LINE",
"198 595 LINE",
"198 700 LINE",
"44 700 LINE",
"44 0 LINE"
);
}
);
width = 562;
}
);
rightKerningGroup = L;
unicode = 004C;
},
{
glyphname = M;
lastChange = "2021-12-05 06:51:09 +0000";
layers = (
{
layerId = "3A3E882A-FD1E-4FEC-B6F3-0E8C1BCDAD39";
paths = (
{
closed = 1;
nodes = (
"170 0 LINE",
"170 602 LINE",
"369 0 LINE",
"462 0 LINE",
"660 602 LINE",
"660 0 LINE",
"754 0 LINE",
"754 700 LINE",
"598 700 LINE",
"415 122 LINE",
"232 700 LINE",
"76 700 LINE",
"76 0 LINE"
);
}
);
width = 830;
},
{
layerId = "541F4A62-0ECD-4B4B-B1D5-38FFB5FB401F";
paths = (
{
closed = 1;
nodes = (
"198 0 LINE",
"198 525 LINE",
"361 0 LINE",
"466 0 LINE",
"628 524 LINE",
"628 0 LINE",
"782 0 LINE",
"782 700 LINE",
"562 700 LINE",
"413 218 LINE",
"264 700 LINE",
"44 700 LINE",
"44 0 LINE"
);
}
);
width = 826;
}
);
rightKerningGroup = H;
unicode = 004D;
},
{
glyphname = N;
lastChange = "2021-12-15 06:48:30 +0000";
layers = (
{
layerId = "3A3E882A-FD1E-4FEC-B6F3-0E8C1BCDAD39";
paths = (
{
closed = 1;
nodes = (
"170 0 LINE",
"170 603 LINE",
"481 0 LINE",
"619 0 LINE",
"619 700 LINE",
"525 700 LINE",
"525 100 LINE",
"215 700 LINE",
"76 700 LINE",
"76 0 LINE"
);
}
);
width = 695;
},
{
layerId = "541F4A62-0ECD-4B4B-B1D5-38FFB5FB401F";
paths = (
{
closed = 1;
nodes = (
"198 0 LINE",
"199 460 LINE",
"489 0 LINE",
"647 0 LINE",
"647 700 LINE",
"493 700 LINE",
"493 235 LINE",
"204 700 LINE",
"44 700 LINE",
"44 0 LINE"
);
}
);
width = 691;
}
);
rightKerningGroup = H;
unicode = 004E;
},
{
glyphname = O;
lastChange = "2021-12-04 18:53:34 +0000";
layers = (
{
layerId = "3A3E882A-FD1E-4FEC-B6F3-0E8C1BCDAD39";
paths = (
{
closed = 1;
nodes = (
"573 -15 OFFCURVE",
"707 148 OFFCURVE",
"707 349 CURVE SMOOTH",
"707 545 OFFCURVE",
"576 715 OFFCURVE",
"378 715 CURVE SMOOTH",
"185 715 OFFCURVE",
"50 548 OFFCURVE",
"50 349 CURVE SMOOTH",
"50 153 OFFCURVE",
"181 -15 OFFCURVE",
"378 -15 CURVE SMOOTH"
);
},
{
closed = 1;
nodes = (
"241 65 OFFCURVE",
"146 196 OFFCURVE",
"146 349 CURVE SMOOTH",
"146 501 OFFCURVE",
"240 635 OFFCURVE",
"378 635 CURVE SMOOTH",
"516 635 OFFCURVE",
"611 503 OFFCURVE",
"611 349 CURVE SMOOTH",
"611 195 OFFCURVE",
"517 65 OFFCURVE",
"378 65 CURVE SMOOTH"
);
}
);
width = 757;
},
{
layerId = "541F4A62-0ECD-4B4B-B1D5-38FFB5FB401F";
paths = (
{
closed = 1;
nodes = (
"599 -15 OFFCURVE",
"752 129 OFFCURVE",
"752 349 CURVE SMOOTH",
"752 568 OFFCURVE",
"598 715 OFFCURVE",
"393 715 CURVE SMOOTH",
"190 715 OFFCURVE",
"35 568 OFFCURVE",
"35 349 CURVE SMOOTH",
"35 130 OFFCURVE",
"189 -15 OFFCURVE",
"393 -15 CURVE SMOOTH"
);
},
{
closed = 1;
nodes = (
"280 115 OFFCURVE",
"191 200 OFFCURVE",
"191 349 CURVE SMOOTH",
"191 498 OFFCURVE",
"280 585 OFFCURVE",
"393 585 CURVE SMOOTH",
"506 585 OFFCURVE",
"596 499 OFFCURVE",
"596 349 CURVE SMOOTH",
"596 199 OFFCURVE",
"507 115 OFFCURVE",
"393 115 CURVE SMOOTH"
);
}
);
width = 787;
}
);
leftKerningGroup = C;
rightKerningGroup = D;
unicode = 004F;
},
{
glyphname = P;
lastChange = "2021-12-04 20:09:53 +0000";
layers = (
{
layerId = "3A3E882A-FD1E-4FEC-B6F3-0E8C1BCDAD39";
paths = (
{
closed = 1;
nodes = (
"170 1 LINE",
"170 298 LINE",
"285 298 LINE SMOOTH",
"460 298 OFFCURVE",
"565 343 OFFCURVE",
"565 500 CURVE SMOOTH",
"565 655 OFFCURVE",
"467 700 OFFCURVE",
"285 700 CURVE SMOOTH",
"76 700 LINE",
"76 1 LINE"
);
},
{
closed = 1;
nodes = (
"170 621 LINE",
"293 621 LINE SMOOTH",
"406 621 OFFCURVE",
"469 600 OFFCURVE",
"469 500 CURVE SMOOTH",
"469 401 OFFCURVE",
"407 379 OFFCURVE",
"293 379 CURVE SMOOTH",
"170 379 LINE"
);
}
);
width = 603;
},
{
layerId = "541F4A62-0ECD-4B4B-B1D5-38FFB5FB401F";
paths = (
{
closed = 1;
nodes = (
"198 1 LINE",
"198 268 LINE",
"283 268 LINE SMOOTH",
"495 268 OFFCURVE",
"593 332 OFFCURVE",
"593 485 CURVE SMOOTH",
"593 619 OFFCURVE",
"498 700 OFFCURVE",
"283 700 CURVE SMOOTH",
"44 700 LINE",
"44 1 LINE"
);
},
{
closed = 1;
nodes = (
"198 581 LINE",
"291 581 LINE SMOOTH",
"405 581 OFFCURVE",
"439 544 OFFCURVE",
"439 485 CURVE SMOOTH",
"439 427 OFFCURVE",
"405 389 OFFCURVE",
"291 389 CURVE SMOOTH",
"198 389 LINE"
);
}
);
width = 615;
}
);
leftKerningGroup = P;
rightKerningGroup = P;
unicode = 0050;
},
{
glyphname = Q;
lastChange = "2021-12-05 09:42:42 +0000";
layers = (
{
layerId = "3A3E882A-FD1E-4FEC-B6F3-0E8C1BCDAD39";
paths = (
{
closed = 1;
nodes = (
"573 -15 OFFCURVE",
"707 149 OFFCURVE",
"707 350 CURVE SMOOTH",
"707 546 OFFCURVE",
"576 715 OFFCURVE",
"378 715 CURVE SMOOTH",
"185 715 OFFCURVE",
"50 549 OFFCURVE",
"50 350 CURVE SMOOTH",
"50 154 OFFCURVE",
"181 -15 OFFCURVE",
"378 -15 CURVE SMOOTH"
);
},
{
closed = 1;
nodes = (
"241 65 OFFCURVE",
"146 197 OFFCURVE",
"146 350 CURVE SMOOTH",
"146 502 OFFCURVE",
"240 635 OFFCURVE",
"378 635 CURVE SMOOTH",
"516 635 OFFCURVE",
"611 504 OFFCURVE",
"611 350 CURVE SMOOTH",
"611 196 OFFCURVE",
"517 65 OFFCURVE",
"378 65 CURVE SMOOTH"
);
},
{
closed = 1;
nodes = (
"702 -28 LINE",
"766 40 LINE",
"425 360 LINE",
"361 292 LINE"
);
}
);
width = 766;
},
{
layerId = "541F4A62-0ECD-4B4B-B1D5-38FFB5FB401F";
paths = (
{
closed = 1;
nodes = (
"599 -15 OFFCURVE",
"752 130 OFFCURVE",
"752 350 CURVE SMOOTH",
"752 569 OFFCURVE",
"598 715 OFFCURVE",
"393 715 CURVE SMOOTH",
"190 715 OFFCURVE",
"35 568 OFFCURVE",
"35 350 CURVE SMOOTH",
"35 131 OFFCURVE",
"189 -15 OFFCURVE",
"393 -15 CURVE SMOOTH"
);
},
{
closed = 1;
nodes = (
"280 115 OFFCURVE",
"189 201 OFFCURVE",
"189 350 CURVE SMOOTH",
"189 499 OFFCURVE",
"280 585 OFFCURVE",
"393 585 CURVE SMOOTH",
"507 585 OFFCURVE",
"598 500 OFFCURVE",
"598 350 CURVE SMOOTH",
"598 200 OFFCURVE",
"507 115 OFFCURVE",
"393 115 CURVE SMOOTH"
);
},
{
closed = 1;
nodes = (
"675 -46 LINE",
"767 52 LINE",
"412 385 LINE",
"321 288 LINE"
);
}
);
width = 767;
}
);
leftKerningGroup = C;
rightKerningGroup = Q;
unicode = 0051;
},
{
glyphname = R;
lastChange = "2021-12-15 06:47:19 +0000";
layers = (
{
layerId = "3A3E882A-FD1E-4FEC-B6F3-0E8C1BCDAD39";
paths = (
{
closed = 1;
nodes = (
"498 327 OFFCURVE",
"565 396 OFFCURVE",
"565 501 CURVE SMOOTH",
"565 656 OFFCURVE",
"467 700 OFFCURVE",
"285 700 CURVE SMOOTH",
"76 700 LINE",
"76 1 LINE",
"170 1 LINE",
"171 295 LINE",
"270 295 LINE",
"480 0 LINE",
"595 0 LINE",
"380 304 LINE"
);
},
{
closed = 1;
nodes = (
"170 621 LINE",
"292 621 LINE SMOOTH",
"405 621 OFFCURVE",
"469 601 OFFCURVE",
"469 501 CURVE SMOOTH",
"469 402 OFFCURVE",
"407 376 OFFCURVE",
"293 376 CURVE SMOOTH",
"170 376 LINE"
);
}
);
width = 625;
},
{
layerId = "541F4A62-0ECD-4B4B-B1D5-38FFB5FB401F";
paths = (
{
closed = 1;
nodes = (
"531 325 OFFCURVE",
"593 386 OFFCURVE",
"593 489 CURVE SMOOTH",
"593 623 OFFCURVE",
"499 700 OFFCURVE",
"283 700 CURVE SMOOTH",
"44 700 LINE",
"44 1 LINE",
"198 1 LINE",
"199 275 LINE",
"250 275 LINE",
"460 0 LINE",
"640 0 LINE",
"419 293 LINE"
);
},
{
closed = 1;
nodes = (
"198 581 LINE",
"290 581 LINE SMOOTH",
"405 581 OFFCURVE",
"437 547 OFFCURVE",
"437 489 CURVE SMOOTH",
"437 409 OFFCURVE",
"402 396 OFFCURVE",
"291 396 CURVE SMOOTH",
"198 396 LINE"
);
}
);
width = 657;
}
);
leftKerningGroup = R;
rightKerningGroup = R;
unicode = 0052;
},
{
glyphname = S;
lastChange = "2021-12-04 16:31:59 +0000";
layers = (
{
layerId = "3A3E882A-FD1E-4FEC-B6F3-0E8C1BCDAD39";
paths = (
{
closed = 1;
nodes = (
"431 -15 OFFCURVE",
"558 66 OFFCURVE",
"558 189 CURVE SMOOTH",
"558 299 OFFCURVE",
"492 364 OFFCURVE",
"361 393 CURVE SMOOTH",
"288 409 LINE SMOOTH",
"212 426 OFFCURVE",
"145 456 OFFCURVE",
"145 524 CURVE SMOOTH",
"145 594 OFFCURVE",
"216 635 OFFCURVE",
"289 635 CURVE SMOOTH",
"350 635 OFFCURVE",
"415 608 OFFCURVE",
"440 561 CURVE",
"527 590 LINE",
"486 674 OFFCURVE",
"393 715 OFFCURVE",
"293 715 CURVE SMOOTH",
"174 715 OFFCURVE",
"48 644 OFFCURVE",
"48 528 CURVE SMOOTH",
"48 423 OFFCURVE",
"113 358 OFFCURVE",
"240 330 CURVE SMOOTH",
"325 311 LINE SMOOTH",
"425 289 OFFCURVE",
"459 248 OFFCURVE",
"459 193 CURVE SMOOTH",
"459 115 OFFCURVE",
"387 65 OFFCURVE",
"302 65 CURVE SMOOTH",
"228 65 OFFCURVE",
"152 101 OFFCURVE",
"128 172 CURVE",
"40 143 LINE",
"74 40 OFFCURVE",
"182 -15 OFFCURVE",
"298 -15 CURVE SMOOTH"
);
}
);
width = 598;
},
{
layerId = "541F4A62-0ECD-4B4B-B1D5-38FFB5FB401F";
paths = (
{
closed = 1;
nodes = (
"476 -15 OFFCURVE",
"606 74 OFFCURVE",
"606 199 CURVE SMOOTH",
"606 316 OFFCURVE",
"533 380 OFFCURVE",
"385 413 CURVE SMOOTH",
"312 429 LINE SMOOTH",
"235 446 OFFCURVE",
"193 472 OFFCURVE",
"193 522 CURVE SMOOTH",
"193 573 OFFCURVE",
"235 595 OFFCURVE",
"307 595 CURVE SMOOTH",
"371 595 OFFCURVE",
"425 563 OFFCURVE",
"439 513 CURVE",
"580 560 LINE",
"546 654 OFFCURVE",
"438 715 OFFCURVE",
"311 715 CURVE SMOOTH",
"156 715 OFFCURVE",
"36 639 OFFCURVE",
"36 526 CURVE SMOOTH",
"36 410 OFFCURVE",
"113 341 OFFCURVE",
"251 310 CURVE SMOOTH",
"337 291 LINE SMOOTH",
"415 274 OFFCURVE",
"447 255 OFFCURVE",
"447 203 CURVE SMOOTH",
"447 140 OFFCURVE",
"395 105 OFFCURVE",
"320 105 CURVE SMOOTH",
"241 105 OFFCURVE",
"181 149 OFFCURVE",
"169 222 CURVE",
"25 174 LINE",
"51 62 OFFCURVE",
"171 -15 OFFCURVE",
"316 -15 CURVE SMOOTH"
);
}
);
width = 629;
}
);
unicode = 0053;
},
{
glyphname = T;
lastChange = "2021-12-05 10:08:09 +0000";
layers = (
{
layerId = "3A3E882A-FD1E-4FEC-B6F3-0E8C1BCDAD39";
paths = (
{
closed = 1;
nodes = (
"326 0 LINE",
"326 625 LINE",
"548 625 LINE",
"548 700 LINE",
"10 700 LINE",
"10 625 LINE",
"232 625 LINE",
"232 0 LINE"
);
}
);
width = 559;
},
{
layerId = "541F4A62-0ECD-4B4B-B1D5-38FFB5FB401F";
paths = (
{
closed = 1;
nodes = (
"381 0 LINE",
"381 575 LINE",
"593 575 LINE",
"593 700 LINE",
"15 700 LINE",
"15 575 LINE",
"227 575 LINE",
"227 0 LINE"
);
}
);
width = 608;
}
);
leftKerningGroup = T;
rightKerningGroup = T;
unicode = 0054;
},
{
glyphname = U;
lastChange = "2021-12-04 19:21:27 +0000";
layers = (
{
layerId = "3A3E882A-FD1E-4FEC-B6F3-0E8C1BCDAD39";
paths = (
{
closed = 1;
nodes = (
"540 -14 OFFCURVE",
"614 103 OFFCURVE",
"614 298 CURVE SMOOTH",
"614 700 LINE",
"520 700 LINE",
"520 291 LINE SMOOTH",
"520 159 OFFCURVE",
"473 67 OFFCURVE",
"345 67 CURVE SMOOTH",
"217 67 OFFCURVE",
"170 159 OFFCURVE",
"170 291 CURVE SMOOTH",
"170 700 LINE",
"76 700 LINE",
"76 298 LINE SMOOTH",
"76 103 OFFCURVE",
"152 -14 OFFCURVE",
"345 -14 CURVE SMOOTH"
);
}
);
width = 690;
},
{
layerId = "541F4A62-0ECD-4B4B-B1D5-38FFB5FB401F";
paths = (
{
closed = 1;
nodes = (
"546 -14 OFFCURVE",
"662 106 OFFCURVE",
"662 318 CURVE SMOOTH",
"662 700 LINE",
"508 700 LINE",
"508 311 LINE SMOOTH",
"508 183 OFFCURVE",
"457 121 OFFCURVE",
"353 121 CURVE SMOOTH",
"249 121 OFFCURVE",
"198 183 OFFCURVE",
"198 311 CURVE SMOOTH",
"198 700 LINE",
"44 700 LINE",
"44 318 LINE SMOOTH",
"44 107 OFFCURVE",
"161 -14 OFFCURVE",
"353 -14 CURVE SMOOTH"
);
}
);
width = 706;
}
);
rightKerningGroup = U;
unicode = 0055;
},
{
glyphname = V;
lastChange = "2021-12-05 09:29:26 +0000";
layers = (
{
layerId = "3A3E882A-FD1E-4FEC-B6F3-0E8C1BCDAD39";
paths = (
{
closed = 1;
nodes = (
"247 0 LINE",
"357 0 LINE",
"594 700 LINE",
"493 700 LINE",
"302 112 LINE",
"111 700 LINE",
"10 700 LINE"
);
}
);
width = 604;
},
{
layerId = "541F4A62-0ECD-4B4B-B1D5-38FFB5FB401F";
paths = (
{
closed = 1;
nodes = (
"260 0 LINE",
"418 0 LINE",
"668 700 LINE",
"506 700 LINE",
"339 206 LINE",
"172 700 LINE",
"10 700 LINE"
);
}
);
width = 678;
}
);
unicode = 0056;
},
{
glyphname = W;
lastChange = "2021-12-05 09:30:26 +0000";
layers = (
{
layerId = "3A3E882A-FD1E-4FEC-B6F3-0E8C1BCDAD39";
paths = (
{
closed = 1;
nodes = (
"291 0 LINE",
"423 584 LINE",
"555 0 LINE",
"669 0 LINE",
"836 700 LINE",
"733 700 LINE",
"595 79 LINE",
"614 79 LINE",
"478 700 LINE",
"368 700 LINE",
"232 79 LINE",
"251 79 LINE",
"113 700 LINE",
"10 700 LINE",
"178 0 LINE"
);
}
);
width = 846;
},
{
layerId = "541F4A62-0ECD-4B4B-B1D5-38FFB5FB401F";
paths = (
{
closed = 1;
nodes = (
"352 0 LINE",
"458 490 LINE",
"564 0 LINE",
"730 0 LINE",
"906 700 LINE",
"742 700 LINE",
"623 147 LINE",
"654 147 LINE",
"526 700 LINE",
"391 700 LINE",
"262 148 LINE",
"293 147 LINE",
"174 700 LINE",
"10 700 LINE",
"188 0 LINE"
);
}
);
width = 916;
}
);
leftKerningGroup = W;
unicode = 0057;
},
{
glyphname = X;
lastChange = "2021-12-04 19:48:44 +0000";
layers = (
{
layerId = "3A3E882A-FD1E-4FEC-B6F3-0E8C1BCDAD39";
paths = (
{
closed = 1;
nodes = (
"123 0 LINE",
"311 267 LINE",
"500 0 LINE",
"613 0 LINE",
"364 360 LINE",
"599 700 LINE",
"486 700 LINE",
"311 453 LINE",
"136 700 LINE",
"24 700 LINE",
"259 360 LINE",
"10 0 LINE"
);
}
);
width = 623;
},
{
layerId = "541F4A62-0ECD-4B4B-B1D5-38FFB5FB401F";
paths = (
{
closed = 1;
nodes = (
"188 0 LINE",
"357 221 LINE",
"527 0 LINE",
"705 0 LINE",
"443 360 LINE",
"691 700 LINE",
"513 700 LINE",
"357 479 LINE",
"201 700 LINE",
"24 700 LINE",
"272 360 LINE",
"10 0 LINE"
);
}
);
width = 715;
}
);
leftKerningGroup = X;
unicode = 0058;
},
{
glyphname = Y;
lastChange = "2021-12-04 19:48:34 +0000";
layers = (
{
layerId = "3A3E882A-FD1E-4FEC-B6F3-0E8C1BCDAD39";
paths = (
{
closed = 1;
nodes = (
"252 287 LINE",
"252 0 LINE",
"346 0 LINE",
"346 287 LINE",
"588 700 LINE",
"485 700 LINE",
"299 371 LINE",
"113 700 LINE",
"10 700 LINE"
);
}
);
width = 598;
},
{
layerId = "541F4A62-0ECD-4B4B-B1D5-38FFB5FB401F";
paths = (
{
closed = 1;
nodes = (
"256 274 LINE",
"256 0 LINE",
"410 0 LINE",
"410 274 LINE",
"656 700 LINE",
"489 700 LINE",
"333 417 LINE",
"177 700 LINE",
"10 700 LINE"
);
}
);
width = 666;
}
);
leftKerningGroup = Y;
rightKerningGroup = Y;
unicode = 0059;
},
{
glyphname = Z;
lastChange = "2021-12-04 18:53:34 +0000";
layers = (
{
layerId = "3A3E882A-FD1E-4FEC-B6F3-0E8C1BCDAD39";
paths = (
{
closed = 1;
nodes = (
"567 0 LINE",
"567 81 LINE",
"156 81 LINE",
"552 619 LINE",
"552 700 LINE",
"59 700 LINE",
"59 619 LINE",
"442 619 LINE",
"44 81 LINE",
"44 0 LINE"
);
}
);
width = 611;
},
{
layerId = "541F4A62-0ECD-4B4B-B1D5-38FFB5FB401F";
paths = (
{
closed = 1;
nodes = (
"615 0 LINE",
"615 120 LINE",
"222 120 LINE",
"600 580 LINE",
"600 700 LINE",
"47 700 LINE",
"47 580 LINE",
"412 580 LINE",
"32 120 LINE",
"32 0 LINE"
);
}
);
width = 647;
}
);
leftKerningGroup = Z;
rightKerningGroup = Z;
unicode = 005A;
},
{
glyphname = A.ss01;
lastChange = "2021-12-05 07:12:54 +0000";
layers = (
{
layerId = "3A3E882A-FD1E-4FEC-B6F3-0E8C1BCDAD39";
paths = (
{
closed = 1;
nodes = (
"110 0 LINE",
"161 177 LINE",
"465 177 LINE",
"516 0 LINE",
"616 0 LINE",
"366 700 LINE",
"261 700 LINE",
"10 0 LINE"
);
},
{
closed = 1;
nodes = (
"313 605 LINE",
"436 258 LINE",
"190 258 LINE"
);
},
{
closed = 1;
nodes = (
"313 620 LINE",
"313 700 LINE",
"160 700 LINE",
"160 620 LINE"
);
}
);
width = 626;
},
{
layerId = "541F4A62-0ECD-4B4B-B1D5-38FFB5FB401F";
paths = (
{
closed = 1;
nodes = (
"158 0 LINE",
"219 177 LINE",
"473 177 LINE",
"531 0 LINE",
"687 0 LINE",
"423 700 LINE",
"271 700 LINE",
"5 0 LINE"
);
},
{
closed = 1;
nodes = (
"346 534 LINE",
"431 298 LINE",
"261 298 LINE"
);
},
{
closed = 1;
nodes = (
"376 580 LINE",
"376 700 LINE",
"163 700 LINE",
"163 580 LINE"
);
}
);
width = 692;
}
);
leftKerningGroup = A;
leftMetricsKey = A;
rightKerningGroup = A;
rightMetricsKey = A;
},
{
glyphname = E.ss01;
lastChange = "2021-12-05 09:52:14 +0000";
layers = (
{
layerId = "3A3E882A-FD1E-4FEC-B6F3-0E8C1BCDAD39";
paths = (
{
closed = 1;
nodes = (
"532 0 LINE",
"532 85 LINE",
"173 85 LINE",
"173 318 LINE",
"440 318 LINE",
"440 403 LINE",
"173 403 LINE",
"173 615 LINE",
"532 615 LINE",
"532 700 LINE",
"79 700 LINE",
"79 0 LINE"
);
},
{
closed = 1;
nodes = (
"15 615 LINE",
"79 615 LINE",
"79 700 LINE",
"15 700 LINE"
);
}
);
width = 570;
},
{
layerId = "541F4A62-0ECD-4B4B-B1D5-38FFB5FB401F";
paths = (
{
closed = 1;
nodes = (
"587 0 LINE",
"587 125 LINE",
"228 125 LINE",
"228 298 LINE",
"495 298 LINE",
"495 423 LINE",
"228 423 LINE",
"228 575 LINE",
"587 575 LINE",
"587 700 LINE",
"74 700 LINE",
"74 0 LINE"
);
},
{
closed = 1;
nodes = (
"10 575 LINE",
"134 575 LINE",
"134 700 LINE",
"10 700 LINE"
);
}
);
width = 609;
}
);
leftKerningGroup = E.ss01;
rightKerningGroup = E;
rightMetricsKey = E;
},
{
glyphname = F.ss01;
lastChange = "2021-12-05 09:53:41 +0000";
layers = (
{
layerId = "3A3E882A-FD1E-4FEC-B6F3-0E8C1BCDAD39";
paths = (
{
closed = 1;
nodes = (
"168 0 LINE",
"168 318 LINE",
"522 318 LINE",
"522 403 LINE",
"168 403 LINE",
"168 615 LINE",
"522 615 LINE",
"522 700 LINE",
"74 700 LINE",
"74 0 LINE"
);
},
{
closed = 1;
nodes = (
"10 615 LINE",
"74 615 LINE",
"74 700 LINE",
"10 700 LINE"
);
}
);
width = 560;
},
{
layerId = "541F4A62-0ECD-4B4B-B1D5-38FFB5FB401F";
paths = (
{
closed = 1;
nodes = (
"228 0 LINE",
"228 308 LINE",
"582 308 LINE",
"582 433 LINE",
"228 433 LINE",
"228 575 LINE",
"582 575 LINE",
"582 700 LINE",
"74 700 LINE",
"74 0 LINE"
);
},
{
closed = 1;
nodes = (
"10 575 LINE",
"74 575 LINE",
"74 700 LINE",
"10 700 LINE"
);
}
);
width = 604;
}
);
leftKerningGroup = E.ss01;
rightKerningGroup = F;
rightMetricsKey = F;
},
{
glyphname = J.ss01;
lastChange = "2021-12-05 09:22:54 +0000";
layers = (
{
layerId = "3A3E882A-FD1E-4FEC-B6F3-0E8C1BCDAD39";
paths = (
{
closed = 1;
nodes = (
"15 187 LINE",
"22 54 OFFCURVE",
"110 -15 OFFCURVE",
"235 -15 CURVE SMOOTH",
"366 -15 OFFCURVE",
"445 61 OFFCURVE",
"445 206 CURVE SMOOTH",
"445 700 LINE",
"351 700 LINE",
"351 207 LINE SMOOTH",
"351 127 OFFCURVE",
"314 62 OFFCURVE",
"235 62 CURVE SMOOTH",
"169 62 OFFCURVE",
"102 109 OFFCURVE",
"103 207 CURVE"
);
},
{
closed = 1;
nodes = (
"113 615 LINE",
"351 615 LINE",
"351 700 LINE",
"113 700 LINE"
);
}
);
width = 521;
},
{
layerId = "541F4A62-0ECD-4B4B-B1D5-38FFB5FB401F";
paths = (
{
closed = 1;
nodes = (
"5 221 LINE",
"5 75 OFFCURVE",
"103 -15 OFFCURVE",
"255 -15 CURVE SMOOTH",
"406 -15 OFFCURVE",
"495 73 OFFCURVE",
"495 226 CURVE SMOOTH",
"495 700 LINE",
"341 700 LINE",
"341 227 LINE SMOOTH",
"341 149 OFFCURVE",
"309 105 OFFCURVE",
"255 105 CURVE SMOOTH",
"187 105 OFFCURVE",
"133 164 OFFCURVE",
"135 255 CURVE"
);
},
{
closed = 1;
nodes = (
"103 575 LINE",
"401 575 LINE",
"401 700 LINE",
"103 700 LINE"
);
}
);
width = 539;
}
);
leftKerningGroup = J;
leftMetricsKey = J;
rightKerningGroup = J;
rightMetricsKey = J;
},
{
glyphname = U.ss02;
lastChange = "2021-12-05 07:02:04 +0000";
layers = (
{
layerId = "3A3E882A-FD1E-4FEC-B6F3-0E8C1BCDAD39";
paths = (
{
closed = 1;
nodes = (
"170 0 LINE",
"170 700 LINE",
"76 700 LINE",
"76 0 LINE"
);
},
{
closed = 1;
nodes = (
"614 0 LINE",
"614 700 LINE",
"520 700 LINE",
"520 0 LINE"
);
},
{
closed = 1;
nodes = (
"170 0 LINE",
"520 0 LINE",
"520 80 LINE",
"170 80 LINE"
);
}
);
width = 690;
},
{
layerId = "541F4A62-0ECD-4B4B-B1D5-38FFB5FB401F";
paths = (
{
closed = 1;
nodes = (
"232 0 LINE",
"232 700 LINE",
"78 700 LINE",
"78 0 LINE"
);
},
{
closed = 1;
nodes = (
"676 0 LINE",
"676 700 LINE",
"522 700 LINE",
"522 0 LINE"
);
},
{
closed = 1;
nodes = (
"172 0 LINE",
"582 0 LINE",
"582 130 LINE",
"172 130 LINE"
);
}
);
width = 754;
}
);
leftMetricsKey = H;
rightMetricsKey = H;
},
{
glyphname = Y.ss02;
lastChange = "2021-12-04 20:05:41 +0000";
layers = (
{
layerId = "3A3E882A-FD1E-4FEC-B6F3-0E8C1BCDAD39";
paths = (
{
closed = 1;
nodes = (
"252 287 LINE",
"252 0 LINE",
"346 0 LINE",
"346 287 LINE",
"588 700 LINE",
"485 700 LINE",
"299 371 LINE",
"113 700 LINE",
"10 700 LINE"
);
},
{
closed = 1;
nodes = (
"160 1 LINE",
"313 1 LINE",
"313 81 LINE",
"160 81 LINE"
);
}
);
width = 598;
},
{
layerId = "541F4A62-0ECD-4B4B-B1D5-38FFB5FB401F";
paths = (
{
closed = 1;
nodes = (
"266 284 LINE",
"266 0 LINE",
"420 0 LINE",
"420 284 LINE",
"676 700 LINE",
"509 700 LINE",
"343 407 LINE",
"177 700 LINE",
"10 700 LINE"
);
},
{
closed = 1;
nodes = (
"174 1 LINE",
"387 1 LINE",
"387 121 LINE",
"174 121 LINE"
);
}
);
width = 686;
}
);
leftKerningGroup = Y;
leftMetricsKey = Y;
rightKerningGroup = Y;
rightMetricsKey = Y;
},
{
glyphname = G.ss03;
lastChange = "2021-12-18 16:14:08 +0000";
layers = (
{
layerId = "3A3E882A-FD1E-4FEC-B6F3-0E8C1BCDAD39";
paths = (
{
closed = 1;
nodes = (
"472 -15 OFFCURVE",
"536 15 OFFCURVE",
"594 85 CURVE",
"598 0 LINE",
"663 0 LINE",
"663 372 LINE",
"358 372 LINE",
"358 287 LINE",
"583 287 LINE",
"583 239 OFFCURVE",
"580 214 OFFCURVE",
"569 187 CURVE SMOOTH",
"532 109 OFFCURVE",
"452 65 OFFCURVE",
"370 65 CURVE SMOOTH",
"245 65 OFFCURVE",
"144 185 OFFCURVE",
"144 350 CURVE SMOOTH",
"144 514 OFFCURVE",
"245 635 OFFCURVE",
"370 635 CURVE SMOOTH",
"452 635 OFFCURVE",
"525 586 OFFCURVE",
"559 513 CURVE",
"642 552 LINE",
"592 649 OFFCURVE",
"490 715 OFFCURVE",
"370 715 CURVE SMOOTH",
"190 715 OFFCURVE",
"50 544 OFFCURVE",
"50 350 CURVE SMOOTH",
"50 155 OFFCURVE",
"190 -15 OFFCURVE",
"370 -15 CURVE SMOOTH"
);
}
);
width = 735;
},
{
layerId = "541F4A62-0ECD-4B4B-B1D5-38FFB5FB401F";
paths = (
{
closed = 1;
nodes = (
"486 -15 OFFCURVE",
"566 25 OFFCURVE",
"616 96 CURVE",
"634 0 LINE",
"708 0 LINE",
"708 392 LINE",
"343 392 LINE",
"343 267 LINE",
"568 267 LINE",
"567 231 OFFCURVE",
"563 231 OFFCURVE",
"555 212 CURVE SMOOTH",
"525 142 OFFCURVE",
"458 115 OFFCURVE",
"385 115 CURVE SMOOTH",
"276 115 OFFCURVE",
"189 221 OFFCURVE",
"189 370 CURVE SMOOTH",
"189 499 OFFCURVE",
"276 585 OFFCURVE",
"385 585 CURVE SMOOTH",
"461 585 OFFCURVE",
"528 564 OFFCURVE",
"556 481 CURVE",
"692 544 LINE",
"642 659 OFFCURVE",
"519 715 OFFCURVE",
"385 715 CURVE SMOOTH",
"193 715 OFFCURVE",
"35 581 OFFCURVE",
"35 370 CURVE SMOOTH",
"35 158 OFFCURVE",
"159 -15 OFFCURVE",
"385 -15 CURVE SMOOTH"
);
}
);
width = 767;
}
);
leftKerningGroup = C;
leftMetricsKey = O;
rightKerningGroup = G;
},
{
glyphname = K.ss03;
lastChange = "2021-12-05 09:56:28 +0000";
layers = (
{
layerId = "3A3E882A-FD1E-4FEC-B6F3-0E8C1BCDAD39";
paths = (
{
closed = 1;
nodes = (
"588 700 LINE",
"471 700 LINE",
"170 351 LINE",
"170 700 LINE",
"76 700 LINE",
"76 0 LINE",
"170 0 LINE",
"170 229 LINE"
);
},
{
closed = 1;
nodes = (
"463 0 LINE",
"611 0 LINE",
"611 83 LINE",
"524 83 LINE",
"323 439 LINE",
"256 366 LINE"
);
}
);
width = 631;
},
{
layerId = "541F4A62-0ECD-4B4B-B1D5-38FFB5FB401F";
paths = (
{
closed = 1;
nodes = (
"638 700 LINE",
"462 700 LINE",
"198 415 LINE",
"198 700 LINE",
"44 700 LINE",
"44 0 LINE",
"198 0 LINE",
"198 224 LINE"
);
},
{
closed = 1;
nodes = (
"459 0 LINE",
"639 0 LINE",
"639 124 LINE",
"543 124 LINE",
"328 484 LINE",
"234 373 LINE"
);
}
);
width = 669;
}
);
leftKerningGroup = K;
leftMetricsKey = K;
rightKerningGroup = K;
},
{
glyphname = Q.ss03;
lastChange = "2021-12-04 19:54:26 +0000";
layers = (
{
layerId = "3A3E882A-FD1E-4FEC-B6F3-0E8C1BCDAD39";
paths = (
{
closed = 1;
nodes = (
"573 -15 OFFCURVE",
"707 149 OFFCURVE",
"707 350 CURVE SMOOTH",
"707 546 OFFCURVE",
"576 715 OFFCURVE",
"378 715 CURVE SMOOTH",
"185 715 OFFCURVE",
"50 549 OFFCURVE",
"50 350 CURVE SMOOTH",
"50 154 OFFCURVE",
"181 -15 OFFCURVE",
"378 -15 CURVE SMOOTH"
);
},
{
closed = 1;
nodes = (
"241 65 OFFCURVE",
"146 197 OFFCURVE",
"146 350 CURVE SMOOTH",
"146 502 OFFCURVE",
"240 635 OFFCURVE",
"378 635 CURVE SMOOTH",
"516 635 OFFCURVE",
"611 504 OFFCURVE",
"611 350 CURVE SMOOTH",
"611 196 OFFCURVE",
"517 65 OFFCURVE",
"378 65 CURVE SMOOTH"
);
},
{
closed = 1;
nodes = (
"230 70 LINE",
"259 163 OFFCURVE",
"325 230 OFFCURVE",
"438 230 CURVE SMOOTH",
"565 230 OFFCURVE",
"668 129 OFFCURVE",
"668 1 CURVE",
"758 1 LINE",
"758 172 OFFCURVE",
"609 320 OFFCURVE",
"438 320 CURVE SMOOTH",
"296 320 OFFCURVE",
"196 232 OFFCURVE",
"151 116 CURVE"
);
}
);
width = 768;
},
{
layerId = "541F4A62-0ECD-4B4B-B1D5-38FFB5FB401F";
paths = (
{
closed = 1;
nodes = (
"599 -15 OFFCURVE",
"752 130 OFFCURVE",
"752 350 CURVE SMOOTH",
"752 569 OFFCURVE",
"598 715 OFFCURVE",
"393 715 CURVE SMOOTH",
"190 715 OFFCURVE",
"35 568 OFFCURVE",
"35 350 CURVE SMOOTH",
"35 131 OFFCURVE",
"189 -15 OFFCURVE",
"393 -15 CURVE SMOOTH"
);
},
{
closed = 1;
nodes = (
"280 115 OFFCURVE",
"191 201 OFFCURVE",
"191 350 CURVE SMOOTH",
"191 499 OFFCURVE",
"280 585 OFFCURVE",
"393 585 CURVE SMOOTH",
"507 585 OFFCURVE",
"596 500 OFFCURVE",
"596 350 CURVE SMOOTH",
"596 200 OFFCURVE",
"507 115 OFFCURVE",
"393 115 CURVE SMOOTH"
);
},
{
closed = 1;
nodes = (
"254 73 LINE",
"280 182 OFFCURVE",
"369 250 OFFCURVE",
"472 250 CURVE SMOOTH",
"608 250 OFFCURVE",
"689 126 OFFCURVE",
"677 1 CURVE",
"797 1 LINE",
"809 194 OFFCURVE",
"669 370 OFFCURVE",
"472 370 CURVE SMOOTH",
"330 370 OFFCURVE",
"196 283 OFFCURVE",
"146 136 CURVE"
);
}
);
width = 803;
}
);
leftKerningGroup = C;
leftMetricsKey = O;
rightKerningGroup = Q;
},
{
glyphname = R.ss03;
lastChange = "2021-12-15 06:47:23 +0000";
layers = (
{
layerId = "3A3E882A-FD1E-4FEC-B6F3-0E8C1BCDAD39";
paths = (
{
closed = 1;
nodes = (
"448 0 LINE",
"586 0 LINE",
"586 84 LINE",
"509 84 LINE",
"342 360 LINE",
"239 360 LINE"
);
},
{
closed = 1;
nodes = (
"498 327 OFFCURVE",
"565 396 OFFCURVE",
"565 501 CURVE SMOOTH",
"565 656 OFFCURVE",
"467 700 OFFCURVE",
"285 700 CURVE SMOOTH",
"76 700 LINE",
"76 0 LINE",
"170 0 LINE",
"171 295 LINE",
"270 295 LINE",
"319 295 OFFCURVE",
"349 298 OFFCURVE",
"380 304 CURVE"
);
},
{
closed = 1;
nodes = (
"170 621 LINE",
"292 621 LINE SMOOTH",
"405 621 OFFCURVE",
"469 601 OFFCURVE",
"469 501 CURVE SMOOTH",
"469 402 OFFCURVE",
"407 376 OFFCURVE",
"293 376 CURVE SMOOTH",
"170 376 LINE"
);
}
);
width = 636;
},
{
layerId = "541F4A62-0ECD-4B4B-B1D5-38FFB5FB401F";
paths = (
{
closed = 1;
nodes = (
"429 0 LINE",
"604 0 LINE",
"604 124 LINE",
"517 124 LINE",
"360 380 LINE",
"197 380 LINE"
);
},
{
closed = 1;
nodes = (
"518 310 OFFCURVE",
"593 376 OFFCURVE",
"593 489 CURVE SMOOTH",
"593 623 OFFCURVE",
"499 700 OFFCURVE",
"283 700 CURVE SMOOTH",
"44 700 LINE",
"44 0 LINE",
"198 0 LINE",
"199 275 LINE",
"268 275 LINE SMOOTH",
"315 275 OFFCURVE",
"349 278 OFFCURVE",
"384 284 CURVE SMOOTH"
);
},
{
closed = 1;
nodes = (
"198 581 LINE",
"290 581 LINE SMOOTH",
"405 581 OFFCURVE",
"437 567 OFFCURVE",
"437 489 CURVE SMOOTH",
"437 409 OFFCURVE",
"402 396 OFFCURVE",
"291 396 CURVE SMOOTH",
"198 396 LINE"
);
}
);
width = 648;
}
);
leftKerningGroup = R;
leftMetricsKey = R;
rightKerningGroup = R;
},
{
glyphname = U.ss03;
lastChange = "2021-12-05 07:01:31 +0000";
layers = (
{
layerId = "3A3E882A-FD1E-4FEC-B6F3-0E8C1BCDAD39";
paths = (
{
closed = 1;
nodes = (
"170 0 LINE",
"170 700 LINE",
"76 700 LINE",
"76 0 LINE"
);
},
{
closed = 1;
nodes = (
"614 0 LINE",
"614 700 LINE",
"520 700 LINE",
"520 0 LINE"
);
},
{
closed = 1;
nodes = (
"170 0 LINE",
"520 0 LINE",
"520 80 LINE",
"170 80 LINE"
);
}
);
width = 690;
},
{
layerId = "541F4A62-0ECD-4B4B-B1D5-38FFB5FB401F";
paths = (
{
closed = 1;
nodes = (
"232 0 LINE",
"232 700 LINE",
"78 700 LINE",
"78 0 LINE"
);
},
{
closed = 1;
nodes = (
"676 0 LINE",
"676 700 LINE",
"522 700 LINE",
"522 0 LINE"
);
},
{
closed = 1;
nodes = (
"172 0 LINE",
"582 0 LINE",
"582 130 LINE",
"172 130 LINE"
);
}
);
width = 754;
}
);
leftKerningGroup = U.ss02;
leftMetricsKey = H;
rightMetricsKey = H;
},
{
glyphname = a;
lastChange = "2021-12-06 08:42:51 +0000";
layers = (
{
layerId = "3A3E882A-FD1E-4FEC-B6F3-0E8C1BCDAD39";
paths = (
{
closed = 1;
nodes = (
"137 368 LINE",
"144 404 OFFCURVE",
"189 445 OFFCURVE",
"252 445 CURVE SMOOTH",
"335 445 OFFCURVE",
"379 425 OFFCURVE",
"379 303 CURVE",
"409 350 LINE",
"367 328 OFFCURVE",
"307 311 OFFCURVE",
"252 297 CURVE SMOOTH",
"128 265 OFFCURVE",
"38 236 OFFCURVE",
"38 122 CURVE SMOOTH",
"38 36 OFFCURVE",
"117 -15 OFFCURVE",
"207 -15 CURVE SMOOTH",
"295 -15 OFFCURVE",
"352 33 OFFCURVE",
"388 82 CURVE",
"411 0 LINE",
"474 0 LINE",
"464 109 LINE SMOOTH",
"462 133 OFFCURVE",
"464 157 OFFCURVE",
"464 188 CURVE SMOOTH",
"464 304 LINE SMOOTH",
"464 465 OFFCURVE",
"378 515 OFFCURVE",
"251 515 CURVE SMOOTH",
"172 515 OFFCURVE",
"92 470 OFFCURVE",
"62 408 CURVE"
);
},
{
closed = 1;
nodes = (
"172 58 OFFCURVE",
"131 79 OFFCURVE",
"131 123 CURVE SMOOTH",
"131 187 OFFCURVE",
"207 214 OFFCURVE",
"286 235 CURVE SMOOTH",
"316 243 OFFCURVE",
"356 255 OFFCURVE",
"379 262 CURVE",
"379 211 LINE SMOOTH",
"379 138 OFFCURVE",
"341 93 OFFCURVE",
"297 76 CURVE SMOOTH",
"274 67 OFFCURVE",
"249 58 OFFCURVE",
"223 58 CURVE SMOOTH"
);
}
);
width = 525;
},
{
layerId = "541F4A62-0ECD-4B4B-B1D5-38FFB5FB401F";
paths = (
{
closed = 1;
nodes = (
"156 334 LINE",
"156 383 OFFCURVE",
"210 415 OFFCURVE",
"268 415 CURVE SMOOTH",
"345 415 OFFCURVE",
"365 382 OFFCURVE",
"365 206 CURVE",
"487 363 LINE",
"367 315 OFFCURVE",
"332 325 OFFCURVE",
"261 306 CURVE SMOOTH",
"133 273 OFFCURVE",
"24 248 OFFCURVE",
"24 122 CURVE SMOOTH",
"24 31 OFFCURVE",
"110 -15 OFFCURVE",
"223 -15 CURVE SMOOTH",
"286 -15 OFFCURVE",
"343 17 OFFCURVE",
"389 57 CURVE",
"402 0 LINE",
"524 0 LINE",
"510 111 LINE SMOOTH",
"507 132 OFFCURVE",
"510 157 OFFCURVE",
"510 188 CURVE SMOOTH",
"510 304 LINE SMOOTH",
"510 449 OFFCURVE",
"429 525 OFFCURVE",
"267 525 CURVE SMOOTH",
"170 525 OFFCURVE",
"68 466 OFFCURVE",
"44 391 CURVE"
);
},
{
closed = 1;
nodes = (
"196 88 OFFCURVE",
"177 109 OFFCURVE",
"177 133 CURVE SMOOTH",
"177 171 OFFCURVE",
"212 188 OFFCURVE",
"310 216 CURVE SMOOTH",
"331 222 OFFCURVE",
"349 227 OFFCURVE",
"365 231 CURVE",
"365 211 LINE SMOOTH",
"365 160 OFFCURVE",
"337 123 OFFCURVE",
"302 105 CURVE SMOOTH",
"280 94 OFFCURVE",
"258 88 OFFCURVE",
"239 88 CURVE SMOOTH"
);
}
);
width = 557;
},
{
associatedMasterId = "541F4A62-0ECD-4B4B-B1D5-38FFB5FB401F";
layerId = "D43BB59E-A6F2-4149-A4E8-B9E7BBD756C3";
name = "Nov 21 21, 23:49";
paths = (
{
closed = 1;
nodes = (
"146 360 LINE",
"159 410 OFFCURVE",
"212 430 OFFCURVE",
"253 430 CURVE SMOOTH",
"333 430 OFFCURVE",
"375 417 OFFCURVE",
"375 308 CURVE",
"383 308 LINE",
"390 313 LINE",
"400 313 LINE",
"434 354 LINE",
"432 357 LINE",
"399 359 LINE",
"366 342 OFFCURVE",
"331 335 OFFCURVE",
"294 327 CURVE SMOOTH",
"278 324 OFFCURVE",
"261 321 OFFCURVE",
"247 317 CURVE SMOOTH",
"117 284 OFFCURVE",
"24 240 OFFCURVE",
"24 127 CURVE SMOOTH",
"24 46 OFFCURVE",
"99 -15 OFFCURVE",
"208 -15 CURVE SMOOTH",
"283 -15 OFFCURVE",
"340 15 OFFCURVE",
"376 48 CURVE",
"389 0 LINE",
"500 0 LINE",
"490 114 LINE SMOOTH",
"489 121 OFFCURVE",
"490 129 OFFCURVE",
"490 139 CURVE SMOOTH",
"490 145 OFFCURVE",
"490 153 OFFCURVE",
"490 162 CURVE SMOOTH",
"490 172 OFFCURVE",
"490 183 OFFCURVE",
"490 193 CURVE SMOOTH",
"490 309 LINE SMOOTH",
"490 455 OFFCURVE",
"413 525 OFFCURVE",
"252 525 CURVE SMOOTH",
"162 525 OFFCURVE",
"68 472 OFFCURVE",
"40 415 CURVE"
);
},
{
closed = 1;
nodes = (
"173 88 OFFCURVE",
"142 105 OFFCURVE",
"142 139 CURVE SMOOTH",
"142 203 OFFCURVE",
"208 208 OFFCURVE",
"287 229 CURVE SMOOTH",
"317 237 OFFCURVE",
"357 250 OFFCURVE",
"380 257 CURVE",
"380 216 LINE SMOOTH",
"380 160 OFFCURVE",
"350 130 OFFCURVE",
"298 106 CURVE SMOOTH",
"275 95 OFFCURVE",
"250 88 OFFCURVE",
"224 88 CURVE SMOOTH"
);
}
);
width = 600;
}
);
leftKerningGroup = a;
rightKerningGroup = a;
unicode = 0061;
},
{
glyphname = b;
lastChange = "2021-12-19 11:15:32 +0000";
layers = (
{
layerId = "3A3E882A-FD1E-4FEC-B6F3-0E8C1BCDAD39";
paths = (
{
closed = 1;
nodes = (
"123 0 LINE",
"146 82 LINE",
"190 23 OFFCURVE",
"254 -15 OFFCURVE",
"317 -15 CURVE SMOOTH",
"460 -15 OFFCURVE",
"566 104 OFFCURVE",
"566 250 CURVE SMOOTH",
"566 441 OFFCURVE",
"442 515 OFFCURVE",
"317 515 CURVE SMOOTH",
"258 515 OFFCURVE",
"199 487 OFFCURVE",
"155 436 CURVE",
"155 700 LINE",
"70 700 LINE",
"70 0 LINE"
);
},
{
closed = 1;
nodes = (
"152 251 LINE",
"152 362 OFFCURVE",
"221 440 OFFCURVE",
"319 440 CURVE SMOOTH",
"425 440 OFFCURVE",
"481 362 OFFCURVE",
"481 251 CURVE SMOOTH",
"481 144 OFFCURVE",
"424 60 OFFCURVE",
"319 60 CURVE SMOOTH",
"220 60 OFFCURVE",
"152 144 OFFCURVE",
"152 251 CURVE"
);
}
);
width = 604;
},
{
background = {
paths = (
{
closed = 1;
nodes = (
"198 -10 LINE",
"209 32 LINE",
"254 -3 OFFCURVE",
"312 -25 OFFCURVE",
"363 -25 CURVE SMOOTH",
"530 -25 OFFCURVE",
"646 89 OFFCURVE",
"646 255 CURVE SMOOTH",
"646 428 OFFCURVE",
"537 535 OFFCURVE",
"363 535 CURVE SMOOTH",
"319 535 OFFCURVE",
"273 522 OFFCURVE",
"235 500 CURVE",
"235 710 LINE",
"80 710 LINE",
"80 -10 LINE"
);
},
{
closed = 1;
nodes = (
"217 261 LINE",
"217 261 LINE",
"227 261 LINE",
"227 348 OFFCURVE",
"285 410 OFFCURVE",
"365 410 CURVE SMOOTH",
"452 410 OFFCURVE",
"501 355 OFFCURVE",
"501 256 CURVE SMOOTH",
"501 160 OFFCURVE",
"449 100 OFFCURVE",
"365 100 CURVE SMOOTH",
"283 100 OFFCURVE",
"227 165 OFFCURVE",
"227 261 CURVE"
);
}
);
};
layerId = "541F4A62-0ECD-4B4B-B1D5-38FFB5FB401F";
paths = (
{
closed = 1;
nodes = (
"158 0 LINE",
"171 68 LINE",
"206 26 OFFCURVE",
"280 -15 OFFCURVE",
"351 -15 CURVE SMOOTH",
"508 -15 OFFCURVE",
"608 90 OFFCURVE",
"608 250 CURVE SMOOTH",
"608 425 OFFCURVE",
"501 525 OFFCURVE",
"341 525 CURVE SMOOTH",
"273 525 OFFCURVE",
"218 495 OFFCURVE",
"195 460 CURVE",
"195 700 LINE",
"50 700 LINE",
"50 0 LINE"
);
},
{
closed = 1;
nodes = (
"192 256 LINE SMOOTH",
"192 350 OFFCURVE",
"256 405 OFFCURVE",
"333 405 CURVE SMOOTH",
"410 405 OFFCURVE",
"468 356 OFFCURVE",
"468 251 CURVE SMOOTH",
"468 148 OFFCURVE",
"409 105 OFFCURVE",
"340 105 CURVE SMOOTH",
"263 105 OFFCURVE",
"195 156 OFFCURVE",
"192 256 CURVE"
);
}
);
width = 632;
}
);
leftKerningGroup = h;
unicode = 0062;
},
{
glyphname = c;
lastChange = "2021-12-04 18:53:34 +0000";
layers = (
{
layerId = "3A3E882A-FD1E-4FEC-B6F3-0E8C1BCDAD39";
paths = (
{
closed = 1;
nodes = (
"373 87 OFFCURVE",
"342 62 OFFCURVE",
"284 62 CURVE SMOOTH",
"180 62 OFFCURVE",
"123 145 OFFCURVE",
"123 251 CURVE",
"38 251 LINE",
"39 106 OFFCURVE",
"133 -13 OFFCURVE",
"284 -13 CURVE",
"368 -13 OFFCURVE",
"431 32 OFFCURVE",
"476 100 CURVE",
"401 128 LINE"
);
},
{
closed = 1;
nodes = (
"476 402 LINE",
"431 470 OFFCURVE",
"368 515 OFFCURVE",
"284 515 CURVE",
"133 515 OFFCURVE",
"39 396 OFFCURVE",
"38 251 CURVE",
"123 251 LINE",
"123 357 OFFCURVE",
"180 440 OFFCURVE",
"284 440 CURVE SMOOTH",
"342 440 OFFCURVE",
"373 415 OFFCURVE",
"401 374 CURVE"
);
}
);
width = 509;
},
{
layerId = "541F4A62-0ECD-4B4B-B1D5-38FFB5FB401F";
paths = (
{
closed = 1;
nodes = (
"372 117 OFFCURVE",
"346 106 OFFCURVE",
"300 106 CURVE SMOOTH",
"216 106 OFFCURVE",
"163 157 OFFCURVE",
"170 271 CURVE",
"24 271 LINE",
"16 96 OFFCURVE",
"134 -14 OFFCURVE",
"300 -14 CURVE SMOOTH",
"395 -14 OFFCURVE",
"477 37 OFFCURVE",
"529 128 CURVE",
"408 175 LINE"
);
},
{
closed = 1;
nodes = (
"529 388 LINE",
"477 474 OFFCURVE",
"395 525 OFFCURVE",
"300 525 CURVE SMOOTH",
"134 525 OFFCURVE",
"16 406 OFFCURVE",
"24 231 CURVE",
"170 231 LINE",
"163 345 OFFCURVE",
"216 405 OFFCURVE",
"300 405 CURVE SMOOTH",
"346 405 OFFCURVE",
"372 394 OFFCURVE",
"408 336 CURVE"
);
}
);
width = 547;
}
);
leftKerningGroup = c;
rightKerningGroup = c;
unicode = 0063;
},
{
glyphname = d;
lastChange = "2021-12-11 13:44:43 +0000";
layers = (
{
layerId = "3A3E882A-FD1E-4FEC-B6F3-0E8C1BCDAD39";
paths = (
{
closed = 1;
nodes = (
"38 104 OFFCURVE",
"144 -15 OFFCURVE",
"286 -15 CURVE SMOOTH",
"349 -15 OFFCURVE",
"414 23 OFFCURVE",
"458 82 CURVE",
"481 0 LINE",
"546 0 LINE",
"534 109 LINE",
"534 700 LINE",
"449 700 LINE",
"449 436 LINE",
"405 487 OFFCURVE",
"346 515 OFFCURVE",
"287 515 CURVE SMOOTH",
"162 515 OFFCURVE",
"38 441 OFFCURVE",
"38 250 CURVE SMOOTH"
);
},
{
closed = 1;
nodes = (
"123 362 OFFCURVE",
"179 440 OFFCURVE",
"286 440 CURVE SMOOTH",
"383 440 OFFCURVE",
"452 362 OFFCURVE",
"452 250 CURVE",
"452 250 LINE",
"452 144 OFFCURVE",
"384 60 OFFCURVE",
"286 60 CURVE SMOOTH",
"180 60 OFFCURVE",
"123 144 OFFCURVE",
"123 251 CURVE SMOOTH"
);
}
);
width = 597;
},
{
layerId = "541F4A62-0ECD-4B4B-B1D5-38FFB5FB401F";
paths = (
{
closed = 1;
nodes = (
"24 94 OFFCURVE",
"145 -15 OFFCURVE",
"291 -15 CURVE SMOOTH",
"367 -15 OFFCURVE",
"419 22 OFFCURVE",
"458 61 CURVE",
"471 0 LINE",
"593 0 LINE",
"579 110 LINE",
"579 700 LINE",
"434 700 LINE",
"434 465 LINE",
"405 500 OFFCURVE",
"352 525 OFFCURVE",
"288 525 CURVE SMOOTH",
"138 525 OFFCURVE",
"24 429 OFFCURVE",
"24 254 CURVE SMOOTH"
);
},
{
closed = 1;
nodes = (
"164 361 OFFCURVE",
"219 405 OFFCURVE",
"303 405 CURVE SMOOTH",
"379 405 OFFCURVE",
"439 355 OFFCURVE",
"439 255 CURVE",
"439 255 LINE",
"439 148 OFFCURVE",
"376 105 OFFCURVE",
"300 105 CURVE SMOOTH",
"218 105 OFFCURVE",
"164 152 OFFCURVE",
"164 255 CURVE SMOOTH"
);
}
);
width = 626;
}
);
leftKerningGroup = c;
unicode = 0064;
},
{
glyphname = e;
lastChange = "2021-12-04 19:30:16 +0000";
layers = (
{
layerId = "3A3E882A-FD1E-4FEC-B6F3-0E8C1BCDAD39";
paths = (
{
closed = 1;
nodes = (
"37 106 OFFCURVE",
"143 -13 OFFCURVE",
"294 -13 CURVE SMOOTH",
"378 -13 OFFCURVE",
"451 17 OFFCURVE",
"496 85 CURVE",
"421 118 LINE",
"393 78 OFFCURVE",
"352 67 OFFCURVE",
"294 67 CURVE SMOOTH",
"197 67 OFFCURVE",
"132 134 OFFCURVE",
"124 230 CURVE",
"523 228 LINE",
"523 250 LINE SMOOTH",
"522 383 OFFCURVE",
"449 515 OFFCURVE",
"286 515 CURVE SMOOTH",
"140 515 OFFCURVE",
"39 406 OFFCURVE",
"38 251 CURVE SMOOTH"
);
},
{
closed = 1;
nodes = (
"143 382 OFFCURVE",
"195 440 OFFCURVE",
"286 440 CURVE SMOOTH",
"373 440 OFFCURVE",
"420 381 OFFCURVE",
"435 310 CURVE SMOOTH",
"437 301 LINE",
"128 300 LINE"
);
}
);
width = 551;
},
{
layerId = "541F4A62-0ECD-4B4B-B1D5-38FFB5FB401F";
paths = (
{
closed = 1;
nodes = (
"23 91 OFFCURVE",
"137 -15 OFFCURVE",
"300 -15 CURVE SMOOTH",
"408 -15 OFFCURVE",
"497 31 OFFCURVE",
"538 111 CURVE",
"423 163 LINE",
"390 116 OFFCURVE",
"366 105 OFFCURVE",
"300 105 CURVE SMOOTH",
"240 105 OFFCURVE",
"175 147 OFFCURVE",
"161 223 CURVE",
"559 221 LINE",
"559 245 LINE SMOOTH",
"559 415 OFFCURVE",
"451 525 OFFCURVE",
"292 525 CURVE SMOOTH",
"130 525 OFFCURVE",
"25 418 OFFCURVE",
"24 251 CURVE SMOOTH"
);
},
{
closed = 1;
nodes = (
"186 383 OFFCURVE",
"237 410 OFFCURVE",
"292 410 CURVE SMOOTH",
"344 410 OFFCURVE",
"392 392 OFFCURVE",
"408 318 CURVE",
"408 318 LINE",
"167 317 LINE"
);
}
);
width = 580;
}
);
leftKerningGroup = c;
rightKerningGroup = e;
unicode = 0065;
},
{
glyphname = f;
lastChange = "2021-12-05 10:00:56 +0000";
layers = (
{
layerId = "3A3E882A-FD1E-4FEC-B6F3-0E8C1BCDAD39";
paths = (
{
closed = 1;
nodes = (
"292 638 LINE",
"297 711 LINE",
"266 712 LINE SMOOTH",
"182 715 OFFCURVE",
"130 704 OFFCURVE",
"109 655 CURVE SMOOTH",
"99 632 OFFCURVE",
"94 593 OFFCURVE",
"93 555 CURVE SMOOTH",
"93 500 LINE",
"15 500 LINE",
"15 430 LINE",
"93 430 LINE",
"93 0 LINE",
"178 0 LINE",
"178 430 LINE",
"285 430 LINE",
"285 500 LINE",
"178 500 LINE",
"178 555 LINE SMOOTH",
"179 633 OFFCURVE",
"197 638 OFFCURVE",
"274 638 CURVE SMOOTH"
);
}
);
width = 322;
},
{
layerId = "541F4A62-0ECD-4B4B-B1D5-38FFB5FB401F";
paths = (
{
closed = 1;
nodes = (
"341 611 LINE",
"348 713 LINE",
"287 715 LINE SMOOTH",
"184 718 OFFCURVE",
"124 698 OFFCURVE",
"101 646 CURVE SMOOTH",
"90 621 OFFCURVE",
"83 584 OFFCURVE",
"83 555 CURVE SMOOTH",
"83 510 LINE",
"5 510 LINE",
"5 410 LINE",
"83 410 LINE",
"83 0 LINE",
"228 0 LINE",
"228 410 LINE",
"335 410 LINE",
"335 510 LINE",
"228 510 LINE",
"228 555 LINE SMOOTH",
"228 599 OFFCURVE",
"227 611 OFFCURVE",
"294 611 CURVE SMOOTH"
);
}
);
width = 368;
}
);
leftKerningGroup = f;
rightKerningGroup = f;
unicode = 0066;
},
{
glyphname = g;
lastChange = "2021-12-11 13:44:28 +0000";
layers = (
{
background = {
paths = (
{
closed = 1;
nodes = (
"37 59 OFFCURVE",
"161 -15 OFFCURVE",
"286 -15 CURVE SMOOTH",
"345 -15 OFFCURVE",
"405 13 OFFCURVE",
"449 64 CURVE",
"448 0 LINE",
"533 0 LINE",
"533 500 LINE",
"480 500 LINE",
"457 418 LINE",
"413 477 OFFCURVE",
"349 515 OFFCURVE",
"286 515 CURVE SMOOTH",
"143 515 OFFCURVE",
"37 396 OFFCURVE",
"37 250 CURVE SMOOTH"
);
},
{
closed = 1;
nodes = (
"120 356 OFFCURVE",
"179 440 OFFCURVE",
"284 440 CURVE SMOOTH",
"383 440 OFFCURVE",
"446 364 OFFCURVE",
"452 264 CURVE",
"451 232 LINE",
"445 133 OFFCURVE",
"382 60 OFFCURVE",
"284 60 CURVE SMOOTH",
"178 60 OFFCURVE",
"120 138 OFFCURVE",
"120 249 CURVE SMOOTH"
);
},
{
closed = 0;
nodes = (
"489 -30 LINE"
);
},
{
closed = 0;
nodes = (
"78 -34 LINE SMOOTH",
"78 -148 OFFCURVE",
"170 -240 OFFCURVE",
"284 -240 CURVE SMOOTH",
"397 -240 OFFCURVE",
"489 -148 OFFCURVE",
"489 -34 CURVE SMOOTH"
);
}
);
};
layerId = "3A3E882A-FD1E-4FEC-B6F3-0E8C1BCDAD39";
paths = (
{
closed = 1;
nodes = (
"458 418 LINE",
"414 477 OFFCURVE",
"350 515 OFFCURVE",
"287 515 CURVE SMOOTH",
"144 515 OFFCURVE",
"38 396 OFFCURVE",
"38 250 CURVE SMOOTH",
"38 59 OFFCURVE",
"162 -15 OFFCURVE",
"287 -15 CURVE SMOOTH",
"346 -15 OFFCURVE",
"406 13 OFFCURVE",
"450 64 CURVE",
"449 -10 LINE SMOOTH",
"449 -137 OFFCURVE",
"358 -150 OFFCURVE",
"305 -150 CURVE SMOOTH",
"224 -150 OFFCURVE",
"193 -119 OFFCURVE",
"167 -85 CURVE",
"89 -122 LINE",
"132 -184 OFFCURVE",
"184 -225 OFFCURVE",
"305 -225 CURVE SMOOTH",
"403 -225 OFFCURVE",
"533 -184 OFFCURVE",
"534 -10 CURVE SMOOTH",
"534 500 LINE",
"481 500 LINE"
);
},
{
closed = 1;
nodes = (
"178 60 OFFCURVE",
"120 138 OFFCURVE",
"120 249 CURVE SMOOTH",
"120 356 OFFCURVE",
"179 440 OFFCURVE",
"284 440 CURVE SMOOTH",
"383 440 OFFCURVE",
"446 364 OFFCURVE",
"452 264 CURVE",
"451 232 LINE SMOOTH",
"445 133 OFFCURVE",
"382 60 OFFCURVE",
"284 60 CURVE SMOOTH"
);
}
);
width = 604;
},
{
layerId = "541F4A62-0ECD-4B4B-B1D5-38FFB5FB401F";
paths = (
{
closed = 1;
nodes = (
"459 452 LINE",
"422 496 OFFCURVE",
"357 525 OFFCURVE",
"303 525 CURVE SMOOTH",
"124 525 OFFCURVE",
"24 400 OFFCURVE",
"24 250 CURVE SMOOTH",
"24 95 OFFCURVE",
"133 -15 OFFCURVE",
"303 -15 CURVE SMOOTH",
"349 -15 OFFCURVE",
"403 7 OFFCURVE",
"435 35 CURVE",
"435 10 LINE SMOOTH",
"435 -73 OFFCURVE",
"399 -110 OFFCURVE",
"321 -110 CURVE SMOOTH",
"246 -110 OFFCURVE",
"217 -89 OFFCURVE",
"181 -42 CURVE",
"69 -95 LINE",
"124 -186 OFFCURVE",
"199 -225 OFFCURVE",
"321 -225 CURVE SMOOTH",
"481 -225 OFFCURVE",
"580 -138 OFFCURVE",
"580 10 CURVE SMOOTH",
"580 510 LINE",
"472 510 LINE"
);
},
{
closed = 1;
nodes = (
"217 100 OFFCURVE",
"166 144 OFFCURVE",
"166 249 CURVE SMOOTH",
"166 352 OFFCURVE",
"219 410 OFFCURVE",
"300 410 CURVE SMOOTH",
"377 410 OFFCURVE",
"438 352 OFFCURVE",
"438 255 CURVE",
"438 255 LINE SMOOTH",
"438 144 OFFCURVE",
"377 100 OFFCURVE",
"300 100 CURVE SMOOTH"
);
}
);
width = 631;
}
);
leftKerningGroup = g;
unicode = 0067;
},
{
glyphname = h;
lastChange = "2021-12-19 11:16:09 +0000";
layers = (
{
layerId = "3A3E882A-FD1E-4FEC-B6F3-0E8C1BCDAD39";
paths = (
{
closed = 1;
nodes = (
"155 0 LINE",
"155 257 LINE SMOOTH",
"155 364 OFFCURVE",
"205 444 OFFCURVE",
"286 444 CURVE SMOOTH",
"379 444 OFFCURVE",
"395 371 OFFCURVE",
"395 289 CURVE SMOOTH",
"395 0 LINE",
"480 0 LINE",
"480 314 LINE SMOOTH",
"480 427 OFFCURVE",
"430 515 OFFCURVE",
"319 515 CURVE SMOOTH",
"244 515 OFFCURVE",
"186 485 OFFCURVE",
"155 438 CURVE",
"155 700 LINE",
"70 700 LINE",
"70 0 LINE"
);
}
);
width = 548;
},
{
layerId = "541F4A62-0ECD-4B4B-B1D5-38FFB5FB401F";
paths = (
{
closed = 1;
nodes = (
"195 0 LINE",
"195 247 LINE SMOOTH",
"195 346 OFFCURVE",
"219 409 OFFCURVE",
"290 409 CURVE SMOOTH",
"346 409 OFFCURVE",
"375 376 OFFCURVE",
"375 279 CURVE SMOOTH",
"375 0 LINE",
"520 0 LINE",
"520 304 LINE SMOOTH",
"520 442 OFFCURVE",
"449 525 OFFCURVE",
"329 525 CURVE SMOOTH",
"264 525 OFFCURVE",
"229 506 OFFCURVE",
"195 470 CURVE",
"195 700 LINE",
"50 700 LINE",
"50 0 LINE"
);
}
);
width = 570;
}
);
leftKerningGroup = h;
rightKerningGroup = h;
unicode = 0068;
},
{
glyphname = i;
lastChange = "2021-12-19 11:15:34 +0000";
layers = (
{
layerId = "3A3E882A-FD1E-4FEC-B6F3-0E8C1BCDAD39";
paths = (
{
closed = 1;
nodes = (
"196 0 LINE",
"196 500 LINE",
"45 500 LINE",
"45 430 LINE",
"111 430 LINE",
"111 0 LINE"
);
},
{
closed = 1;
nodes = (
"189 593 OFFCURVE",
"218 622 OFFCURVE",
"218 657 CURVE SMOOTH",
"218 692 OFFCURVE",
"190 722 OFFCURVE",
"154 722 CURVE SMOOTH",
"118 722 OFFCURVE",
"89 693 OFFCURVE",
"89 657 CURVE SMOOTH",
"89 620 OFFCURVE",
"121 593 OFFCURVE",
"154 593 CURVE SMOOTH"
);
}
);
width = 278;
},
{
layerId = "541F4A62-0ECD-4B4B-B1D5-38FFB5FB401F";
paths = (
{
closed = 1;
nodes = (
"235 0 LINE",
"235 510 LINE",
"24 510 LINE",
"24 410 LINE",
"90 410 LINE",
"90 0 LINE"
);
},
{
closed = 1;
nodes = (
"207 546 OFFCURVE",
"246 585 OFFCURVE",
"246 630 CURVE SMOOTH",
"246 677 OFFCURVE",
"208 715 OFFCURVE",
"162 715 CURVE SMOOTH",
"115 715 OFFCURVE",
"77 677 OFFCURVE",
"77 630 CURVE SMOOTH",
"77 584 OFFCURVE",
"116 546 OFFCURVE",
"162 546 CURVE SMOOTH"
);
}
);
width = 276;
}
);
leftKerningGroup = i;
rightKerningGroup = i;
unicode = 0069;
},
{
glyphname = j;
lastChange = "2021-12-05 10:29:28 +0000";
layers = (
{
layerId = "3A3E882A-FD1E-4FEC-B6F3-0E8C1BCDAD39";
paths = (
{
closed = 1;
nodes = (
"175 -35 LINE",
"175 500 LINE",
"90 500 LINE",
"90 -35 LINE"
);
},
{
closed = 1;
nodes = (
"-3 -195 LINE SMOOTH",
"81 -193 OFFCURVE",
"138 -187 OFFCURVE",
"159 -138 CURVE SMOOTH",
"169 -115 OFFCURVE",
"174 -72 OFFCURVE",
"175 -35 CURVE",
"90 -35 LINE",
"89 -107 OFFCURVE",
"62 -117 OFFCURVE",
"-11 -118 CURVE SMOOTH",
"-58 -118 LINE",
"-58 -196 LINE"
);
},
{
closed = 1;
nodes = (
"168 593 OFFCURVE",
"197 622 OFFCURVE",
"197 657 CURVE SMOOTH",
"197 692 OFFCURVE",
"169 722 OFFCURVE",
"133 722 CURVE SMOOTH",
"97 722 OFFCURVE",
"68 693 OFFCURVE",
"68 657 CURVE SMOOTH",
"68 620 OFFCURVE",
"100 593 OFFCURVE",
"133 593 CURVE SMOOTH"
);
}
);
width = 257;
},
{
layerId = "541F4A62-0ECD-4B4B-B1D5-38FFB5FB401F";
paths = (
{
closed = 1;
nodes = (
"223 -36 LINE",
"223 510 LINE",
"78 510 LINE",
"78 -36 LINE"
);
},
{
closed = 1;
nodes = (
"16 -196 LINE SMOOTH",
"129 -196 OFFCURVE",
"178 -178 OFFCURVE",
"205 -127 CURVE SMOOTH",
"220 -100 OFFCURVE",
"224 -52 OFFCURVE",
"223 4 CURVE",
"78 4 LINE",
"78 -71 OFFCURVE",
"76 -79 OFFCURVE",
"7 -79 CURVE SMOOTH",
"-70 -79 LINE",
"-70 -196 LINE"
);
},
{
closed = 1;
nodes = (
"196 546 OFFCURVE",
"235 585 OFFCURVE",
"235 630 CURVE SMOOTH",
"235 676 OFFCURVE",
"197 715 OFFCURVE",
"151 715 CURVE SMOOTH",
"104 715 OFFCURVE",
"66 677 OFFCURVE",
"66 630 CURVE SMOOTH",
"66 584 OFFCURVE",
"105 546 OFFCURVE",
"151 546 CURVE SMOOTH"
);
}
);
width = 272;
}
);
leftKerningGroup = j;
unicode = 006A;
},
{
glyphname = k;
lastChange = "2021-12-19 11:16:04 +0000";
layers = (
{
background = {
paths = (
{
closed = 1;
nodes = (
"155 -1 LINE",
"155 701 LINE",
"68 701 LINE",
"68 -1 LINE"
);
},
{
closed = 1;
nodes = (
"215 230 LINE",
"381 0 LINE",
"488 0 LINE",
"273 296 LINE",
"467 500 LINE",
"362 500 LINE",
"155 278 LINE",
"155 165 LINE"
);
}
);
};
layerId = "3A3E882A-FD1E-4FEC-B6F3-0E8C1BCDAD39";
paths = (
{
closed = 1;
nodes = (
"155 -1 LINE",
"155 701 LINE",
"70 701 LINE",
"70 -1 LINE"
);
},
{
closed = 1;
nodes = (
"215 230 LINE",
"381 0 LINE",
"488 0 LINE",
"273 296 LINE",
"467 500 LINE",
"362 500 LINE",
"155 278 LINE",
"155 165 LINE"
);
}
);
width = 498;
},
{
layerId = "541F4A62-0ECD-4B4B-B1D5-38FFB5FB401F";
paths = (
{
closed = 1;
nodes = (
"195 0 LINE",
"195 700 LINE",
"50 700 LINE",
"50 0 LINE"
);
},
{
closed = 1;
nodes = (
"222 210 LINE",
"373 0 LINE",
"545 0 LINE",
"317 316 LINE",
"531 510 LINE",
"356 510 LINE",
"135 304 LINE",
"135 116 LINE"
);
}
);
width = 549;
},
{
associatedMasterId = "3A3E882A-FD1E-4FEC-B6F3-0E8C1BCDAD39";
layerId = "CBEA91B9-0051-4247-951C-B4550DA576B1";
name = "Nov 14 21, 13:34";
paths = (
{
closed = 1;
nodes = (
"154 0 LINE",
"154 700 LINE",
"69 700 LINE",
"69 0 LINE"
);
},
{
closed = 1;
nodes = (
"212 236 LINE",
"381 0 LINE",
"486 0 LINE",
"272 299 LINE",
"462 500 LINE",
"361 500 LINE",
"155 284 LINE",
"155 175 LINE"
);
},
{
closed = 1;
nodes = (
"154 0 LINE",
"154 166 LINE",
"212 229 LINE",
"377 0 LINE",
"480 0 LINE",
"268 291 LINE",
"455 496 LINE",
"354 496 LINE",
"154 273 LINE",
"154 668 LINE",
"70 668 LINE",
"70 0 LINE",
"70 0 LINE"
);
}
);
width = 495;
}
);
leftKerningGroup = h;
unicode = 006B;
},
{
glyphname = l;
lastChange = "2021-12-19 11:12:12 +0000";
layers = (
{
layerId = "3A3E882A-FD1E-4FEC-B6F3-0E8C1BCDAD39";
paths = (
{
closed = 1;
nodes = (
"219 81 LINE",
"157 84 OFFCURVE",
"155 80 OFFCURVE",
"155 152 CURVE SMOOTH",
"155 645 LINE",
"70 645 LINE",
"70 152 LINE SMOOTH",
"70 7 OFFCURVE",
"88 0 OFFCURVE",
"219 0 CURVE"
);
},
{
closed = 1;
nodes = (
"155 328 LINE",
"155 700 LINE",
"70 700 LINE",
"70 328 LINE"
);
}
);
width = 234;
},
{
layerId = "541F4A62-0ECD-4B4B-B1D5-38FFB5FB401F";
paths = (
{
closed = 1;
nodes = (
"249 118 LINE",
"195 118 OFFCURVE",
"195 115 OFFCURVE",
"195 172 CURVE SMOOTH",
"195 645 LINE",
"50 645 LINE",
"50 172 LINE SMOOTH",
"50 3 OFFCURVE",
"82 0 OFFCURVE",
"249 1 CURVE"
);
},
{
closed = 1;
nodes = (
"195 308 LINE",
"195 700 LINE",
"50 700 LINE",
"50 308 LINE"
);
}
);
width = 269;
}
);
leftKerningGroup = l;
unicode = 006C;
},
{
glyphname = m;
lastChange = "2021-12-04 18:53:34 +0000";
layers = (
{
layerId = "3A3E882A-FD1E-4FEC-B6F3-0E8C1BCDAD39";
paths = (
{
closed = 1;
nodes = (
"155 0 LINE",
"155 257 LINE SMOOTH",
"155 364 OFFCURVE",
"195 446 OFFCURVE",
"276 446 CURVE SMOOTH",
"369 446 OFFCURVE",
"383 371 OFFCURVE",
"383 289 CURVE SMOOTH",
"383 0 LINE",
"468 0 LINE",
"468 257 LINE SMOOTH",
"468 364 OFFCURVE",
"505 446 OFFCURVE",
"586 446 CURVE SMOOTH",
"679 446 OFFCURVE",
"695 371 OFFCURVE",
"695 289 CURVE SMOOTH",
"695 0 LINE",
"780 0 LINE",
"780 314 LINE SMOOTH",
"780 430 OFFCURVE",
"730 515 OFFCURVE",
"619 515 CURVE SMOOTH",
"535 515 OFFCURVE",
"476 478 OFFCURVE",
"448 421 CURVE",
"426 479 OFFCURVE",
"382 515 OFFCURVE",
"309 515 CURVE SMOOTH",
"225 515 OFFCURVE",
"173 478 OFFCURVE",
"145 421 CURVE",
"123 500 LINE",
"70 500 LINE",
"70 0 LINE"
);
}
);
width = 848;
},
{
layerId = "541F4A62-0ECD-4B4B-B1D5-38FFB5FB401F";
paths = (
{
closed = 1;
nodes = (
"195 0 LINE",
"195 247 LINE SMOOTH",
"195 351 OFFCURVE",
"218 411 OFFCURVE",
"282 411 CURVE SMOOTH",
"337 411 OFFCURVE",
"363 379 OFFCURVE",
"363 279 CURVE SMOOTH",
"363 0 LINE",
"508 0 LINE",
"508 247 LINE SMOOTH",
"508 361 OFFCURVE",
"535 411 OFFCURVE",
"594 411 CURVE SMOOTH",
"650 411 OFFCURVE",
"675 377 OFFCURVE",
"675 279 CURVE SMOOTH",
"675 0 LINE",
"820 0 LINE",
"820 304 LINE SMOOTH",
"820 442 OFFCURVE",
"750 525 OFFCURVE",
"629 525 CURVE SMOOTH",
"560 525 OFFCURVE",
"500 492 OFFCURVE",
"461 452 CURVE",
"430 493 OFFCURVE",
"379 525 OFFCURVE",
"319 525 CURVE SMOOTH",
"242 525 OFFCURVE",
"205 487 OFFCURVE",
"168 453 CURVE",
"158 510 LINE",
"50 510 LINE",
"50 0 LINE"
);
}
);
width = 870;
}
);
rightKerningGroup = h;
unicode = 006D;
},
{
glyphname = n;
lastChange = "2021-12-04 18:53:34 +0000";
layers = (
{
layerId = "3A3E882A-FD1E-4FEC-B6F3-0E8C1BCDAD39";
paths = (
{
closed = 1;
nodes = (
"155 0 LINE",
"155 257 LINE SMOOTH",
"155 364 OFFCURVE",
"205 444 OFFCURVE",
"286 444 CURVE SMOOTH",
"379 444 OFFCURVE",
"395 371 OFFCURVE",
"395 289 CURVE SMOOTH",
"395 0 LINE",
"480 0 LINE",
"480 314 LINE SMOOTH",
"480 428 OFFCURVE",
"430 515 OFFCURVE",
"319 515 CURVE SMOOTH",
"235 515 OFFCURVE",
"173 478 OFFCURVE",
"145 421 CURVE",
"123 500 LINE",
"70 500 LINE",
"70 0 LINE"
);
}
);
width = 548;
},
{
associatedMasterId = "3A3E882A-FD1E-4FEC-B6F3-0E8C1BCDAD39";
layerId = "61EC8C2C-9DC9-41A3-AC52-05DA4A4B81F0";
name = "Nov 12 21, 13:16";
paths = (
{
closed = 1;
nodes = (
"164 0 LINE",
"164 269 LINE SMOOTH",
"164 376 OFFCURVE",
"214 432 OFFCURVE",
"295 432 CURVE SMOOTH",
"388 432 OFFCURVE",
"404 371 OFFCURVE",
"404 289 CURVE SMOOTH",
"404 0 LINE",
"488 0 LINE",
"488 314 LINE SMOOTH",
"488 427 OFFCURVE",
"439 515 OFFCURVE",
"328 515 CURVE SMOOTH",
"244 515 OFFCURVE",
"192 468 OFFCURVE",
"164 421 CURVE",
"142 500 LINE",
"80 500 LINE",
"80 0 LINE"
);
}
);
width = 558;
},
{
layerId = "541F4A62-0ECD-4B4B-B1D5-38FFB5FB401F";
paths = (
{
closed = 1;
nodes = (
"195 0 LINE",
"195 247 LINE SMOOTH",
"195 346 OFFCURVE",
"221 409 OFFCURVE",
"292 409 CURVE SMOOTH",
"348 409 OFFCURVE",
"375 376 OFFCURVE",
"375 279 CURVE SMOOTH",
"375 0 LINE",
"520 0 LINE",
"520 304 LINE SMOOTH",
"520 442 OFFCURVE",
"449 525 OFFCURVE",
"329 525 CURVE SMOOTH",
"255 525 OFFCURVE",
"210 492 OFFCURVE",
"169 451 CURVE",
"158 510 LINE",
"50 510 LINE",
"50 0 LINE"
);
}
);
width = 570;
}
);
leftKerningGroup = n;
rightKerningGroup = h;
unicode = 006E;
},
{
glyphname = o;
lastChange = "2021-12-04 18:53:34 +0000";
layers = (
{
layerId = "3A3E882A-FD1E-4FEC-B6F3-0E8C1BCDAD39";
paths = (
{
closed = 1;
nodes = (
"429 -15 OFFCURVE",
"535 103 OFFCURVE",
"535 249 CURVE SMOOTH",
"535 394 OFFCURVE",
"427 515 OFFCURVE",
"286 515 CURVE",
"144 515 OFFCURVE",
"38 395 OFFCURVE",
"38 249 CURVE SMOOTH",
"38 103 OFFCURVE",
"144 -15 OFFCURVE",
"286 -15 CURVE SMOOTH"
);
},
{
closed = 1;
nodes = (
"182 61 OFFCURVE",
"124 143 OFFCURVE",
"124 250 CURVE SMOOTH",
"124 357 OFFCURVE",
"182 440 OFFCURVE",
"286 440 CURVE SMOOTH",
"392 440 OFFCURVE",
"449 359 OFFCURVE",
"449 250 CURVE SMOOTH",
"449 143 OFFCURVE",
"392 61 OFFCURVE",
"286 61 CURVE SMOOTH"
);
}
);
width = 573;
},
{
layerId = "541F4A62-0ECD-4B4B-B1D5-38FFB5FB401F";
paths = (
{
closed = 1;
nodes = (
"459 -15 OFFCURVE",
"581 94 OFFCURVE",
"581 254 CURVE SMOOTH",
"581 413 OFFCURVE",
"457 525 OFFCURVE",
"302 525 CURVE SMOOTH",
"146 525 OFFCURVE",
"24 415 OFFCURVE",
"24 254 CURVE SMOOTH",
"24 94 OFFCURVE",
"145 -15 OFFCURVE",
"302 -15 CURVE SMOOTH"
);
},
{
closed = 1;
nodes = (
"222 106 OFFCURVE",
"170 152 OFFCURVE",
"170 255 CURVE SMOOTH",
"170 348 OFFCURVE",
"222 405 OFFCURVE",
"302 405 CURVE SMOOTH",
"384 405 OFFCURVE",
"435 350 OFFCURVE",
"435 255 CURVE SMOOTH",
"435 151 OFFCURVE",
"383 106 OFFCURVE",
"302 106 CURVE SMOOTH"
);
}
);
width = 605;
}
);
leftKerningGroup = c;
unicode = 006F;
},
{
glyphname = p;
lastChange = "2021-12-19 11:16:49 +0000";
layers = (
{
layerId = "3A3E882A-FD1E-4FEC-B6F3-0E8C1BCDAD39";
paths = (
{
closed = 1;
nodes = (
"155 -195 LINE",
"154 64 LINE",
"198 13 OFFCURVE",
"258 -15 OFFCURVE",
"317 -15 CURVE SMOOTH",
"442 -15 OFFCURVE",
"566 59 OFFCURVE",
"566 250 CURVE SMOOTH",
"566 396 OFFCURVE",
"460 515 OFFCURVE",
"318 515 CURVE SMOOTH",
"255 515 OFFCURVE",
"190 477 OFFCURVE",
"146 418 CURVE",
"123 500 LINE",
"70 500 LINE",
"70 -195 LINE"
);
},
{
closed = 1;
nodes = (
"148 364 OFFCURVE",
"211 440 OFFCURVE",
"309 440 CURVE SMOOTH",
"415 440 OFFCURVE",
"476 356 OFFCURVE",
"476 249 CURVE SMOOTH",
"476 138 OFFCURVE",
"416 60 OFFCURVE",
"309 60 CURVE SMOOTH",
"212 60 OFFCURVE",
"149 133 OFFCURVE",
"143 232 CURVE SMOOTH",
"142 264 LINE"
);
}
);
width = 604;
},
{
layerId = "541F4A62-0ECD-4B4B-B1D5-38FFB5FB401F";
paths = (
{
closed = 1;
nodes = (
"195 -185 LINE",
"194 35 LINE",
"234 0 OFFCURVE",
"281 -15 OFFCURVE",
"327 -15 CURVE SMOOTH",
"497 -15 OFFCURVE",
"606 82 OFFCURVE",
"606 257 CURVE SMOOTH",
"606 417 OFFCURVE",
"494 525 OFFCURVE",
"338 525 CURVE SMOOTH",
"274 525 OFFCURVE",
"211 493 OFFCURVE",
"171 452 CURVE",
"158 510 LINE",
"50 510 LINE",
"50 -185 LINE"
);
},
{
closed = 1;
nodes = (
"183 350 OFFCURVE",
"243 405 OFFCURVE",
"319 405 CURVE SMOOTH",
"401 405 OFFCURVE",
"466 359 OFFCURVE",
"466 256 CURVE SMOOTH",
"466 150 OFFCURVE",
"403 105 OFFCURVE",
"319 105 CURVE SMOOTH",
"243 105 OFFCURVE",
"183 162 OFFCURVE",
"183 255 CURVE SMOOTH",
"183 255 LINE SMOOTH"
);
}
);
width = 630;
}
);
leftKerningGroup = p;
rightKerningGroup = p;
unicode = 0070;
},
{
glyphname = q;
lastChange = "2021-12-04 18:53:34 +0000";
layers = (
{
layerId = "3A3E882A-FD1E-4FEC-B6F3-0E8C1BCDAD39";
paths = (
{
closed = 1;
nodes = (
"38 59 OFFCURVE",
"162 -15 OFFCURVE",
"287 -15 CURVE SMOOTH",
"346 -15 OFFCURVE",
"406 13 OFFCURVE",
"450 64 CURVE",
"449 -195 LINE",
"534 -195 LINE",
"534 500 LINE",
"481 500 LINE",
"458 418 LINE",
"414 477 OFFCURVE",
"350 515 OFFCURVE",
"287 515 CURVE SMOOTH",
"144 515 OFFCURVE",
"38 396 OFFCURVE",
"38 250 CURVE SMOOTH"
);
},
{
closed = 1;
nodes = (
"123 356 OFFCURVE",
"180 440 OFFCURVE",
"285 440 CURVE SMOOTH",
"384 440 OFFCURVE",
"447 364 OFFCURVE",
"453 264 CURVE",
"452 232 LINE",
"446 133 OFFCURVE",
"383 60 OFFCURVE",
"285 60 CURVE SMOOTH",
"179 60 OFFCURVE",
"123 138 OFFCURVE",
"123 249 CURVE SMOOTH"
);
}
);
width = 604;
},
{
layerId = "541F4A62-0ECD-4B4B-B1D5-38FFB5FB401F";
paths = (
{
closed = 1;
nodes = (
"24 80 OFFCURVE",
"144 -15 OFFCURVE",
"314 -15 CURVE SMOOTH",
"356 -15 OFFCURVE",
"407 0 OFFCURVE",
"447 40 CURVE",
"446 -185 LINE",
"591 -185 LINE",
"591 510 LINE",
"483 510 LINE",
"470 441 LINE",
"433 500 OFFCURVE",
"357 525 OFFCURVE",
"304 525 CURVE SMOOTH",
"147 525 OFFCURVE",
"24 415 OFFCURVE",
"24 255 CURVE SMOOTH"
);
},
{
closed = 1;
nodes = (
"164 359 OFFCURVE",
"229 405 OFFCURVE",
"309 405 CURVE SMOOTH",
"386 405 OFFCURVE",
"451 353 OFFCURVE",
"451 256 CURVE",
"451 256 LINE SMOOTH",
"451 159 OFFCURVE",
"386 105 OFFCURVE",
"309 105 CURVE SMOOTH",
"229 105 OFFCURVE",
"164 148 OFFCURVE",
"164 254 CURVE SMOOTH"
);
}
);
width = 641;
}
);
leftKerningGroup = c;
rightKerningGroup = q;
unicode = 0071;
},
{
glyphname = r;
lastChange = "2021-12-05 10:00:20 +0000";
layers = (
{
layerId = "3A3E882A-FD1E-4FEC-B6F3-0E8C1BCDAD39";
paths = (
{
closed = 1;
nodes = (
"344 513 LINE",
"336 514 OFFCURVE",
"328 515 OFFCURVE",
"319 515 CURVE SMOOTH",
"235 515 OFFCURVE",
"173 478 OFFCURVE",
"145 421 CURVE",
"123 500 LINE",
"70 500 LINE",
"70 0 LINE",
"155 0 LINE",
"155 257 LINE SMOOTH",
"155 364 OFFCURVE",
"205 424 OFFCURVE",
"286 424 CURVE SMOOTH",
"324 424 OFFCURVE",
"344 421 OFFCURVE",
"344 421 CURVE SMOOTH"
);
}
);
width = 349;
},
{
layerId = "541F4A62-0ECD-4B4B-B1D5-38FFB5FB401F";
paths = (
{
closed = 1;
nodes = (
"384 519 LINE",
"362 523 OFFCURVE",
"343 525 OFFCURVE",
"329 525 CURVE SMOOTH",
"265 525 OFFCURVE",
"201 494 OFFCURVE",
"169 455 CURVE",
"158 510 LINE",
"50 510 LINE",
"50 0 LINE",
"195 0 LINE",
"195 277 LINE SMOOTH",
"195 361 OFFCURVE",
"232 394 OFFCURVE",
"296 394 CURVE SMOOTH",
"321 394 OFFCURVE",
"339 393 OFFCURVE",
"384 387 CURVE"
);
}
);
width = 399;
}
);
rightKerningGroup = r;
unicode = 0072;
},
{
glyphname = s;
lastChange = "2021-12-19 11:13:12 +0000";
layers = (
{
layerId = "3A3E882A-FD1E-4FEC-B6F3-0E8C1BCDAD39";
paths = (
{
closed = 1;
nodes = (
"308 -15 OFFCURVE",
"374 9 OFFCURVE",
"411 54 CURVE SMOOTH",
"430 77 OFFCURVE",
"444 104 OFFCURVE",
"444 134 CURVE SMOOTH",
"444 219 OFFCURVE",
"387 266 OFFCURVE",
"282 287 CURVE SMOOTH",
"217 300 LINE SMOOTH",
"165 310 OFFCURVE",
"125 337 OFFCURVE",
"125 377 CURVE SMOOTH",
"125 420 OFFCURVE",
"174 440 OFFCURVE",
"225 440 CURVE SMOOTH",
"272 440 OFFCURVE",
"319 423 OFFCURVE",
"336 383 CURVE",
"416 413 LINE",
"387 482 OFFCURVE",
"310 515 OFFCURVE",
"231 515 CURVE SMOOTH",
"167 515 OFFCURVE",
"107 494 OFFCURVE",
"70 454 CURVE SMOOTH",
"51 433 OFFCURVE",
"40 406 OFFCURVE",
"40 376 CURVE SMOOTH",
"40 292 OFFCURVE",
"99 248 OFFCURVE",
"176 232 CURVE SMOOTH",
"245 218 LINE SMOOTH",
"305 206 OFFCURVE",
"359 185 OFFCURVE",
"359 131 CURVE SMOOTH",
"359 85 OFFCURVE",
"295 60 OFFCURVE",
"238 60 CURVE SMOOTH",
"183 60 OFFCURVE",
"128 86 OFFCURVE",
"113 145 CURVE",
"31 113 LINE",
"54 57 OFFCURVE",
"98 19 OFFCURVE",
"154 0 CURVE SMOOTH",
"181 -9 OFFCURVE",
"208 -15 OFFCURVE",
"238 -15 CURVE SMOOTH"
);
}
);
width = 474;
},
{
layerId = "541F4A62-0ECD-4B4B-B1D5-38FFB5FB401F";
paths = (
{
closed = 1;
nodes = (
"341 -15 OFFCURVE",
"420 5 OFFCURVE",
"458 51 CURVE SMOOTH",
"485 84 OFFCURVE",
"498 113 OFFCURVE",
"498 144 CURVE SMOOTH",
"498 235 OFFCURVE",
"436 282 OFFCURVE",
"312 307 CURVE SMOOTH",
"247 320 LINE SMOOTH",
"202 328 OFFCURVE",
"179 339 OFFCURVE",
"179 367 CURVE SMOOTH",
"179 394 OFFCURVE",
"210 415 OFFCURVE",
"256 415 CURVE SMOOTH",
"311 415 OFFCURVE",
"341 389 OFFCURVE",
"349 344 CURVE",
"474 385 LINE",
"453 464 OFFCURVE",
"369 525 OFFCURVE",
"262 525 CURVE SMOOTH",
"188 525 OFFCURVE",
"111 499 OFFCURVE",
"72 457 CURVE SMOOTH",
"46 429 OFFCURVE",
"34 400 OFFCURVE",
"34 366 CURVE SMOOTH",
"34 282 OFFCURVE",
"91 234 OFFCURVE",
"194 212 CURVE SMOOTH",
"263 198 LINE SMOOTH",
"328 185 OFFCURVE",
"353 177 OFFCURVE",
"353 141 CURVE SMOOTH",
"353 111 OFFCURVE",
"313 95 OFFCURVE",
"260 95 CURVE SMOOTH",
"200 95 OFFCURVE",
"145 125 OFFCURVE",
"142 188 CURVE",
"21 143 LINE",
"41 77 OFFCURVE",
"94 26 OFFCURVE",
"168 1 CURVE SMOOTH",
"200 -10 OFFCURVE",
"230 -15 OFFCURVE",
"260 -15 CURVE SMOOTH"
);
}
);
width = 525;
}
);
leftKerningGroup = s;
rightKerningGroup = s;
unicode = 0073;
},
{
glyphname = t;
lastChange = "2021-12-04 20:07:28 +0000";
layers = (
{
layerId = "3A3E882A-FD1E-4FEC-B6F3-0E8C1BCDAD39";
paths = (
{
closed = 1;
nodes = (
"20 430 LINE",
"290 430 LINE",
"290 500 LINE",
"20 500 LINE"
);
},
{
closed = 1;
nodes = (
"101 122 OFFCURVE",
"100 73 OFFCURVE",
"115 44 CURVE SMOOTH",
"137 1 OFFCURVE",
"177 0 OFFCURVE",
"279 0 CURVE SMOOTH",
"295 0 LINE",
"295 75 LINE",
"267 73 LINE SMOOTH",
"186 67 OFFCURVE",
"186 94 OFFCURVE",
"186 156 CURVE SMOOTH",
"186 648 LINE",
"101 648 LINE",
"101 156 LINE SMOOTH"
);
}
);
width = 335;
},
{
layerId = "541F4A62-0ECD-4B4B-B1D5-38FFB5FB401F";
paths = (
{
closed = 1;
nodes = (
"13 410 LINE",
"343 410 LINE",
"343 510 LINE",
"13 510 LINE"
);
},
{
closed = 1;
nodes = (
"94 110 OFFCURVE",
"97 82 OFFCURVE",
"111 55 CURVE SMOOTH",
"139 2 OFFCURVE",
"200 0 OFFCURVE",
"302 0 CURVE SMOOTH",
"348 0 LINE",
"348 115 LINE",
"288 115 LINE",
"248 115 OFFCURVE",
"239 119 OFFCURVE",
"239 176 CURVE SMOOTH",
"239 658 LINE",
"94 658 LINE",
"94 176 LINE SMOOTH"
);
}
);
width = 372;
}
);
leftKerningGroup = t;
rightKerningGroup = t;
unicode = 0074;
},
{
glyphname = u;
lastChange = "2021-12-05 10:23:17 +0000";
layers = (
{
layerId = "3A3E882A-FD1E-4FEC-B6F3-0E8C1BCDAD39";
paths = (
{
closed = 1;
nodes = (
"393 500 LINE",
"393 243 LINE SMOOTH",
"393 136 OFFCURVE",
"343 56 OFFCURVE",
"262 56 CURVE SMOOTH",
"169 56 OFFCURVE",
"153 129 OFFCURVE",
"153 211 CURVE SMOOTH",
"153 500 LINE",
"68 500 LINE",
"68 186 LINE SMOOTH",
"68 72 OFFCURVE",
"118 -15 OFFCURVE",
"229 -15 CURVE SMOOTH",
"313 -15 OFFCURVE",
"374 25 OFFCURVE",
"402 82 CURVE",
"425 0 LINE",
"490 0 LINE",
"478 109 LINE",
"478 500 LINE"
);
}
);
width = 560;
},
{
layerId = "541F4A62-0ECD-4B4B-B1D5-38FFB5FB401F";
paths = (
{
closed = 1;
nodes = (
"375 510 LINE",
"375 263 LINE SMOOTH",
"375 141 OFFCURVE",
"332 96 OFFCURVE",
"274 96 CURVE SMOOTH",
"218 96 OFFCURVE",
"195 134 OFFCURVE",
"195 231 CURVE SMOOTH",
"195 510 LINE",
"50 510 LINE",
"50 206 LINE SMOOTH",
"50 68 OFFCURVE",
"121 -15 OFFCURVE",
"241 -15 CURVE SMOOTH",
"294 -15 OFFCURVE",
"371 2 OFFCURVE",
"401 69 CURVE",
"413 0 LINE",
"535 0 LINE",
"520 130 LINE",
"520 510 LINE"
);
}
);
width = 586;
}
);
leftKerningGroup = u;
rightKerningGroup = u;
unicode = 0075;
},
{
glyphname = v;
lastChange = "2021-12-04 20:08:02 +0000";
layers = (
{
layerId = "3A3E882A-FD1E-4FEC-B6F3-0E8C1BCDAD39";
paths = (
{
closed = 1;
nodes = (
"267 0 LINE",
"449 500 LINE",
"357 500 LINE",
"225 114 LINE",
"92 500 LINE",
"0 500 LINE",
"182 0 LINE"
);
}
);
width = 449;
},
{
layerId = "541F4A62-0ECD-4B4B-B1D5-38FFB5FB401F";
paths = (
{
closed = 1;
nodes = (
"328 0 LINE",
"525 510 LINE",
"371 510 LINE",
"263 188 LINE",
"154 510 LINE",
"0 510 LINE",
"197 0 LINE"
);
}
);
width = 525;
}
);
leftKerningGroup = v;
rightKerningGroup = v;
unicode = 0076;
},
{
glyphname = w;
lastChange = "2021-12-04 21:28:30 +0000";
layers = (
{
layerId = "3A3E882A-FD1E-4FEC-B6F3-0E8C1BCDAD39";
paths = (
{
closed = 1;
nodes = (
"470 133 LINE",
"373 499 LINE",
"285 499 LINE",
"188 133 LINE",
"92 500 LINE",
"0 500 LINE",
"145 0 LINE",
"224 0 LINE",
"329 391 LINE",
"434 0 LINE",
"513 0 LINE",
"658 500 LINE",
"566 500 LINE"
);
}
);
width = 658;
},
{
layerId = "541F4A62-0ECD-4B4B-B1D5-38FFB5FB401F";
paths = (
{
closed = 1;
nodes = (
"516 208 LINE",
"434 509 LINE",
"316 509 LINE",
"234 208 LINE",
"153 510 LINE",
"0 510 LINE",
"166 0 LINE",
"285 0 LINE",
"375 308 LINE",
"465 0 LINE",
"584 0 LINE",
"750 510 LINE",
"597 510 LINE"
);
}
);
width = 750;
}
);
unicode = 0077;
},
{
glyphname = x;
lastChange = "2021-12-04 20:08:22 +0000";
layers = (
{
layerId = "3A3E882A-FD1E-4FEC-B6F3-0E8C1BCDAD39";
paths = (
{
closed = 1;
nodes = (
"99 0 LINE",
"231 184 LINE",
"364 0 LINE",
"465 0 LINE",
"283 257 LINE",
"456 500 LINE",
"355 500 LINE",
"231 329 LINE",
"108 500 LINE",
"6 500 LINE",
"179 257 LINE",
"0 0 LINE"
);
}
);
width = 465;
},
{
layerId = "541F4A62-0ECD-4B4B-B1D5-38FFB5FB401F";
paths = (
{
closed = 1;
nodes = (
"164 0 LINE",
"278 149 LINE",
"393 0 LINE",
"559 0 LINE",
"363 262 LINE",
"550 510 LINE",
"384 510 LINE",
"278 374 LINE",
"173 510 LINE",
"6 510 LINE",
"193 262 LINE",
"0 0 LINE"
);
}
);
width = 559;
}
);
rightKerningGroup = x;
unicode = 0078;
},
{
glyphname = y;
lastChange = "2021-12-04 20:08:28 +0000";
layers = (
{
layerId = "3A3E882A-FD1E-4FEC-B6F3-0E8C1BCDAD39";
paths = (
{
closed = 1;
nodes = (
"48 -195 LINE SMOOTH",
"123 -195 OFFCURVE",
"166 -174 OFFCURVE",
"197 -139 CURVE SMOOTH",
"238 -92 OFFCURVE",
"251 -49 OFFCURVE",
"268 0 CURVE SMOOTH",
"449 500 LINE",
"352 500 LINE",
"225 109 LINE",
"92 500 LINE",
"0 500 LINE",
"181 0 LINE",
"181 -75 OFFCURVE",
"120 -120 OFFCURVE",
"39 -120 CURVE",
"39 -195 LINE"
);
}
);
width = 449;
},
{
layerId = "541F4A62-0ECD-4B4B-B1D5-38FFB5FB401F";
paths = (
{
closed = 1;
nodes = (
"86 -197 LINE SMOOTH",
"178 -197 OFFCURVE",
"221 -176 OFFCURVE",
"258 -134 CURVE SMOOTH",
"305 -80 OFFCURVE",
"317 -44 OFFCURVE",
"334 1 CURVE SMOOTH",
"525 510 LINE",
"366 510 LINE",
"262 159 LINE",
"154 510 LINE",
"0 510 LINE",
"189 6 LINE",
"188 -62 OFFCURVE",
"127 -86 OFFCURVE",
"47 -80 CURVE",
"47 -197 LINE"
);
}
);
width = 525;
}
);
leftKerningGroup = v;
rightKerningGroup = v;
unicode = 0079;
},
{
glyphname = z;
lastChange = "2021-12-04 19:48:24 +0000";
layers = (
{
layerId = "3A3E882A-FD1E-4FEC-B6F3-0E8C1BCDAD39";
paths = (
{
closed = 1;
nodes = (
"432 0 LINE",
"432 76 LINE",
"137 76 LINE",
"422 425 LINE",
"422 500 LINE",
"49 500 LINE",
"49 424 LINE",
"324 424 LINE",
"40 75 LINE",
"40 1 LINE",
"41 1 LINE",
"41 0 LINE"
);
}
);
width = 462;
},
{
layerId = "541F4A62-0ECD-4B4B-B1D5-38FFB5FB401F";
paths = (
{
closed = 1;
nodes = (
"482 0 LINE",
"482 120 LINE",
"207 120 LINE",
"472 407 LINE",
"472 510 LINE",
"39 510 LINE",
"39 390 LINE",
"294 390 LINE",
"30 103 LINE",
"30 1 LINE",
"31 1 LINE",
"31 0 LINE"
);
}
);
width = 502;
}
);
leftKerningGroup = z;
rightKerningGroup = z;
unicode = 007A;
},
{
glyphname = a.ss01;
lastChange = "2021-12-04 19:03:41 +0000";
layers = (
{
layerId = "3A3E882A-FD1E-4FEC-B6F3-0E8C1BCDAD39";
paths = (
{
closed = 1;
nodes = (
"295 -15 OFFCURVE",
"352 33 OFFCURVE",
"388 82 CURVE",
"411 0 LINE",
"476 0 LINE",
"464 109 LINE SMOOTH",
"461 133 OFFCURVE",
"464 157 OFFCURVE",
"464 188 CURVE SMOOTH",
"464 304 LINE SMOOTH",
"464 326 OFFCURVE",
"464 481 OFFCURVE",
"464 500 CURVE",
"379 500 LINE",
"379 482 OFFCURVE",
"379 327 OFFCURVE",
"379 303 CURVE",
"409 350 LINE SMOOTH",
"367 328 OFFCURVE",
"307 311 OFFCURVE",
"252 297 CURVE SMOOTH",
"128 265 OFFCURVE",
"38 236 OFFCURVE",
"38 122 CURVE SMOOTH",
"38 36 OFFCURVE",
"117 -15 OFFCURVE",
"207 -15 CURVE SMOOTH"
);
},
{
closed = 1;
nodes = (
"172 58 OFFCURVE",
"131 79 OFFCURVE",
"131 123 CURVE SMOOTH",
"131 187 OFFCURVE",
"207 214 OFFCURVE",
"286 235 CURVE SMOOTH",
"316 243 OFFCURVE",
"356 255 OFFCURVE",
"379 262 CURVE",
"379 211 LINE SMOOTH",
"379 138 OFFCURVE",
"341 93 OFFCURVE",
"297 76 CURVE SMOOTH",
"274 67 OFFCURVE",
"249 58 OFFCURVE",
"223 58 CURVE SMOOTH"
);
},
{
closed = 1;
nodes = (
"379 425 LINE",
"379 500 LINE",
"79 500 LINE",
"79 425 LINE"
);
}
);
width = 527;
},
{
layerId = "541F4A62-0ECD-4B4B-B1D5-38FFB5FB401F";
paths = (
{
closed = 1;
nodes = (
"281 -15 OFFCURVE",
"350 22 OFFCURVE",
"384 72 CURVE",
"397 0 LINE",
"519 0 LINE",
"505 131 LINE SMOOTH",
"503 152 OFFCURVE",
"505 177 OFFCURVE",
"505 208 CURVE SMOOTH",
"505 314 LINE SMOOTH",
"505 328 OFFCURVE",
"505 335 OFFCURVE",
"505 510 CURVE",
"360 510 LINE",
"360 471 OFFCURVE",
"360 339 OFFCURVE",
"360 216 CURVE",
"452 354 LINE",
"340 336 OFFCURVE",
"340 337 OFFCURVE",
"243 321 CURVE SMOOTH",
"112 299 OFFCURVE",
"24 238 OFFCURVE",
"24 142 CURVE SMOOTH",
"24 51 OFFCURVE",
"105 -15 OFFCURVE",
"218 -15 CURVE SMOOTH"
);
},
{
closed = 1;
nodes = (
"191 93 OFFCURVE",
"172 113 OFFCURVE",
"172 143 CURVE SMOOTH",
"172 185 OFFCURVE",
"206 199 OFFCURVE",
"305 226 CURVE SMOOTH",
"323 231 OFFCURVE",
"342 235 OFFCURVE",
"360 239 CURVE",
"360 221 LINE SMOOTH",
"360 171 OFFCURVE",
"331 127 OFFCURVE",
"297 110 CURVE SMOOTH",
"271 97 OFFCURVE",
"253 93 OFFCURVE",
"234 93 CURVE SMOOTH"
);
},
{
closed = 1;
nodes = (
"420 400 LINE",
"420 510 LINE",
"70 510 LINE",
"70 400 LINE"
);
}
);
width = 552;
}
);
leftKerningGroup = a;
leftMetricsKey = a;
rightKerningGroup = a;
rightMetricsKey = a;
},
{
glyphname = f.ss01;
lastChange = "2021-12-04 20:06:37 +0000";
layers = (
{
layerId = "3A3E882A-FD1E-4FEC-B6F3-0E8C1BCDAD39";
paths = (
{
closed = 1;
nodes = (
"178 0 LINE",
"178 714 LINE",
"93 714 LINE",
"93 0 LINE"
);
},
{
closed = 1;
nodes = (
"280 430 LINE",
"280 500 LINE",
"15 500 LINE",
"15 430 LINE"
);
},
{
closed = 1;
nodes = (
"323 634 LINE",
"323 714 LINE",
"93 714 LINE",
"93 634 LINE"
);
}
);
width = 338;
},
{
layerId = "541F4A62-0ECD-4B4B-B1D5-38FFB5FB401F";
paths = (
{
closed = 1;
nodes = (
"228 0 LINE",
"228 715 LINE",
"83 715 LINE",
"83 0 LINE"
);
},
{
closed = 1;
nodes = (
"330 410 LINE",
"330 510 LINE",
"5 510 LINE",
"5 410 LINE"
);
},
{
closed = 1;
nodes = (
"373 615 LINE",
"373 715 LINE",
"83 715 LINE",
"83 615 LINE"
);
}
);
width = 383;
}
);
leftKerningGroup = f;
leftMetricsKey = f;
rightKerningGroup = f;
},
{
glyphname = g.ss01;
lastChange = "2021-12-04 19:03:44 +0000";
layers = (
{
background = {
paths = (
{
closed = 1;
nodes = (
"27 59 OFFCURVE",
"151 -15 OFFCURVE",
"276 -15 CURVE SMOOTH",
"335 -15 OFFCURVE",
"395 13 OFFCURVE",
"439 64 CURVE",
"438 0 LINE",
"523 0 LINE",
"523 500 LINE",
"470 500 LINE",
"447 418 LINE",
"403 477 OFFCURVE",
"339 515 OFFCURVE",
"276 515 CURVE SMOOTH",
"133 515 OFFCURVE",
"27 396 OFFCURVE",
"27 250 CURVE SMOOTH"
);
},
{
closed = 1;
nodes = (
"110 356 OFFCURVE",
"169 440 OFFCURVE",
"274 440 CURVE SMOOTH",
"373 440 OFFCURVE",
"436 364 OFFCURVE",
"442 264 CURVE",
"441 232 LINE",
"435 133 OFFCURVE",
"372 60 OFFCURVE",
"274 60 CURVE SMOOTH",
"168 60 OFFCURVE",
"110 138 OFFCURVE",
"110 249 CURVE SMOOTH"
);
},
{
closed = 0;
nodes = (
"479 -30 LINE"
);
},
{
closed = 0;
nodes = (
"68 -34 LINE SMOOTH",
"68 -148 OFFCURVE",
"160 -240 OFFCURVE",
"274 -240 CURVE SMOOTH",
"387 -240 OFFCURVE",
"479 -148 OFFCURVE",
"479 -34 CURVE SMOOTH"
);
}
);
};
layerId = "3A3E882A-FD1E-4FEC-B6F3-0E8C1BCDAD39";
paths = (
{
closed = 1;
nodes = (
"336 -14 OFFCURVE",
"406 13 OFFCURVE",
"440 64 CURVE",
"439 -10 LINE",
"524 -10 LINE",
"524 426 LINE",
"442 426 LINE",
"442 227 LINE SMOOTH",
"442 131 OFFCURVE",
"373 56 OFFCURVE",
"275 56 CURVE SMOOTH",
"179 56 OFFCURVE",
"120 138 OFFCURVE",
"120 249 CURVE SMOOTH",
"120 356 OFFCURVE",
"179 425 OFFCURVE",
"274 425 CURVE SMOOTH",
"275 425 LINE",
"275 500 LINE",
"143 499 OFFCURVE",
"38 395 OFFCURVE",
"38 250 CURVE SMOOTH",
"38 59 OFFCURVE",
"162 -14 OFFCURVE",
"277 -14 CURVE SMOOTH"
);
},
{
closed = 1;
nodes = (
"393 -225 OFFCURVE",
"523 -184 OFFCURVE",
"524 -10 CURVE",
"439 -10 LINE",
"439 -137 OFFCURVE",
"348 -150 OFFCURVE",
"295 -150 CURVE SMOOTH",
"214 -150 OFFCURVE",
"183 -119 OFFCURVE",
"157 -85 CURVE",
"79 -122 LINE",
"122 -184 OFFCURVE",
"174 -225 OFFCURVE",
"295 -225 CURVE SMOOTH"
);
},
{
closed = 1;
nodes = (
"524 426 LINE",
"524 501 LINE",
"274 500 LINE",
"274 425 LINE"
);
}
);
width = 594;
},
{
layerId = "541F4A62-0ECD-4B4B-B1D5-38FFB5FB401F";
paths = (
{
closed = 1;
nodes = (
"339 -15 OFFCURVE",
"393 0 OFFCURVE",
"425 33 CURVE",
"425 0 LINE",
"570 5 LINE",
"570 436 LINE",
"428 436 LINE",
"428 247 LINE SMOOTH",
"428 145 OFFCURVE",
"370 100 OFFCURVE",
"291 100 CURVE SMOOTH",
"217 100 OFFCURVE",
"166 165 OFFCURVE",
"166 249 CURVE SMOOTH",
"166 346 OFFCURVE",
"214 395 OFFCURVE",
"290 395 CURVE SMOOTH",
"321 395 LINE",
"321 509 LINE",
"154 524 OFFCURVE",
"24 413 OFFCURVE",
"24 250 CURVE SMOOTH",
"24 98 OFFCURVE",
"131 -15 OFFCURVE",
"293 -15 CURVE SMOOTH"
);
},
{
closed = 1;
nodes = (
"488 -225 OFFCURVE",
"570 -124 OFFCURVE",
"570 10 CURVE",
"425 8 LINE",
"425 -67 OFFCURVE",
"395 -110 OFFCURVE",
"311 -110 CURVE SMOOTH",
"236 -110 OFFCURVE",
"207 -89 OFFCURVE",
"171 -42 CURVE",
"59 -95 LINE",
"114 -186 OFFCURVE",
"189 -225 OFFCURVE",
"311 -225 CURVE SMOOTH"
);
},
{
closed = 1;
nodes = (
"570 396 LINE",
"570 511 LINE",
"260 510 LINE",
"260 395 LINE"
);
}
);
width = 621;
},
{
associatedMasterId = "3A3E882A-FD1E-4FEC-B6F3-0E8C1BCDAD39";
background = {
paths = (
{
closed = 1;
nodes = (
"38 59 OFFCURVE",
"162 -15 OFFCURVE",
"287 -15 CURVE SMOOTH",
"346 -15 OFFCURVE",
"406 13 OFFCURVE",
"450 64 CURVE",
"449 0 LINE",
"534 0 LINE",
"534 500 LINE",
"481 500 LINE",
"458 418 LINE",
"414 477 OFFCURVE",
"350 515 OFFCURVE",
"287 515 CURVE SMOOTH",
"144 515 OFFCURVE",
"38 396 OFFCURVE",
"38 250 CURVE SMOOTH"
);
},
{
closed = 1;
nodes = (
"121 356 OFFCURVE",
"180 440 OFFCURVE",
"285 440 CURVE SMOOTH",
"384 440 OFFCURVE",
"447 364 OFFCURVE",
"453 264 CURVE",
"452 232 LINE",
"446 133 OFFCURVE",
"383 60 OFFCURVE",
"285 60 CURVE SMOOTH",
"179 60 OFFCURVE",
"121 138 OFFCURVE",
"121 249 CURVE SMOOTH"
);
},
{
closed = 0;
nodes = (
"490 -30 LINE"
);
},
{
closed = 0;
nodes = (
"79 -34 LINE SMOOTH",
"79 -148 OFFCURVE",
"171 -240 OFFCURVE",
"285 -240 CURVE SMOOTH",
"398 -240 OFFCURVE",
"490 -148 OFFCURVE",
"490 -34 CURVE SMOOTH"
);
}
);
};
layerId = "FB2009A9-0144-466E-ADF5-C615C3AEB447";
name = "Nov 18 21, 00:42";
paths = (
{
closed = 1;
nodes = (
"453 313 LINE",
"452 292 LINE SMOOTH",
"447 184 OFFCURVE",
"383 106 OFFCURVE",
"285 106 CURVE SMOOTH",
"179 106 OFFCURVE",
"121 158 OFFCURVE",
"121 269 CURVE SMOOTH",
"121 376 OFFCURVE",
"180 440 OFFCURVE",
"285 440 CURVE SMOOTH",
"287 440 OFFCURVE",
"288 440 OFFCURVE",
"290 440 CURVE",
"290 515 LINE",
"289 515 OFFCURVE",
"289 515 OFFCURVE",
"288 515 CURVE SMOOTH",
"145 515 OFFCURVE",
"39 416 OFFCURVE",
"39 270 CURVE SMOOTH",
"39 79 OFFCURVE",
"163 31 OFFCURVE",
"288 31 CURVE SMOOTH",
"347 31 OFFCURVE",
"407 53 OFFCURVE",
"451 104 CURVE",
"450 -10 LINE",
"535 -10 LINE",
"535 313 LINE"
);
},
{
closed = 0;
nodes = (
"490 -20 LINE"
);
},
{
closed = 1;
nodes = (
"90 -122 LINE",
"133 -184 OFFCURVE",
"185 -225 OFFCURVE",
"306 -225 CURVE SMOOTH",
"404 -225 OFFCURVE",
"534 -184 OFFCURVE",
"535 -10 CURVE",
"450 -10 LINE",
"450 -137 OFFCURVE",
"359 -150 OFFCURVE",
"306 -150 CURVE SMOOTH",
"225 -150 OFFCURVE",
"194 -119 OFFCURVE",
"168 -85 CURVE"
);
},
{
closed = 1;
nodes = (
"453 313 LINE",
"535 313 LINE",
"535 515 LINE",
"453 515 LINE"
);
},
{
closed = 1;
nodes = (
"290 440 LINE",
"610 440 LINE",
"610 515 LINE",
"290 515 LINE"
);
}
);
width = 606;
}
);
leftKerningGroup = g;
leftMetricsKey = g;
rightKerningGroup = g;
rightMetricsKey = g;
},
{
glyphname = h.ss01;
lastChange = "2021-12-05 10:04:52 +0000";
layers = (
{
layerId = "3A3E882A-FD1E-4FEC-B6F3-0E8C1BCDAD39";
paths = (
{
closed = 1;
nodes = (
"395 425 LINE",
"395 0 LINE",
"480 0 LINE",
"480 425 LINE"
);
},
{
closed = 1;
nodes = (
"155 438 LINE",
"155 438 OFFCURVE",
"155 438 OFFCURVE",
"155 438 CURVE",
"155 700 LINE",
"70 700 LINE",
"70 0 LINE",
"155 0 LINE",
"155 257 LINE SMOOTH",
"155 262 OFFCURVE",
"155 267 OFFCURVE",
"155 272 CURVE SMOOTH"
);
},
{
closed = 1;
nodes = (
"480 425 LINE",
"480 500 LINE",
"155 500 LINE",
"155 425 LINE"
);
}
);
width = 550;
},
{
layerId = "541F4A62-0ECD-4B4B-B1D5-38FFB5FB401F";
paths = (
{
closed = 1;
nodes = (
"375 435 LINE",
"375 0 LINE",
"520 0 LINE",
"520 435 LINE"
);
},
{
closed = 1;
nodes = (
"195 428 LINE",
"195 428 OFFCURVE",
"195 428 OFFCURVE",
"195 428 CURVE",
"195 700 LINE",
"50 700 LINE",
"50 0 LINE",
"195 0 LINE",
"195 257 LINE SMOOTH",
"195 262 OFFCURVE",
"195 267 OFFCURVE",
"195 272 CURVE SMOOTH"
);
},
{
closed = 1;
nodes = (
"520 395 LINE",
"520 510 LINE",
"135 510 LINE",
"135 395 LINE"
);
}
);
width = 590;
}
);
leftKerningGroup = h;
leftMetricsKey = h;
rightKerningGroup = h;
},
{
glyphname = m.ss01;
lastChange = "2021-12-05 10:03:33 +0000";
layers = (
{
layerId = "3A3E882A-FD1E-4FEC-B6F3-0E8C1BCDAD39";
paths = (
{
closed = 1;
nodes = (
"155 500 LINE",
"70 500 LINE",
"70 0 LINE",
"155 0 LINE"
);
},
{
closed = 1;
nodes = (
"466 500 LINE",
"381 500 LINE",
"381 0 LINE",
"466 0 LINE"
);
},
{
closed = 1;
nodes = (
"778 500 LINE",
"693 500 LINE",
"693 0 LINE",
"778 0 LINE"
);
},
{
closed = 1;
nodes = (
"693 425 LINE",
"693 500 LINE",
"155 500 LINE",
"155 425 LINE"
);
}
);
width = 846;
},
{
layerId = "541F4A62-0ECD-4B4B-B1D5-38FFB5FB401F";
paths = (
{
closed = 1;
nodes = (
"195 510 LINE",
"50 510 LINE",
"50 0 LINE",
"195 0 LINE"
);
},
{
closed = 1;
nodes = (
"506 510 LINE",
"361 510 LINE",
"361 0 LINE",
"506 0 LINE"
);
},
{
closed = 1;
nodes = (
"818 510 LINE",
"673 510 LINE",
"673 0 LINE",
"818 0 LINE"
);
},
{
closed = 1;
nodes = (
"733 395 LINE",
"733 510 LINE",
"135 510 LINE",
"135 395 LINE"
);
}
);
width = 868;
}
);
leftKerningGroup = m;
leftMetricsKey = m;
rightKerningGroup = m;
rightMetricsKey = h;
},
{
glyphname = n.ss01;
lastChange = "2021-12-05 10:04:27 +0000";
layers = (
{
layerId = "3A3E882A-FD1E-4FEC-B6F3-0E8C1BCDAD39";
paths = (
{
closed = 1;
nodes = (
"155 500 LINE",
"70 500 LINE",
"70 0 LINE",
"155 0 LINE"
);
},
{
closed = 1;
nodes = (
"480 500 LINE",
"395 500 LINE",
"395 0 LINE",
"480 0 LINE"
);
},
{
closed = 1;
nodes = (
"395 425 LINE",
"395 500 LINE",
"152 500 LINE",
"152 425 LINE"
);
}
);
width = 550;
},
{
associatedMasterId = "3A3E882A-FD1E-4FEC-B6F3-0E8C1BCDAD39";
layerId = "61EC8C2C-9DC9-41A3-AC52-05DA4A4B81F0";
name = "Nov 12 21, 13:16";
paths = (
{
closed = 1;
nodes = (
"164 0 LINE",
"164 269 LINE SMOOTH",
"164 376 OFFCURVE",
"214 432 OFFCURVE",
"295 432 CURVE SMOOTH",
"388 432 OFFCURVE",
"404 371 OFFCURVE",
"404 289 CURVE SMOOTH",
"404 0 LINE",
"488 0 LINE",
"488 314 LINE SMOOTH",
"488 427 OFFCURVE",
"439 515 OFFCURVE",
"328 515 CURVE SMOOTH",
"244 515 OFFCURVE",
"192 468 OFFCURVE",
"164 421 CURVE",
"142 500 LINE",
"80 500 LINE",
"80 0 LINE"
);
}
);
width = 558;
},
{
layerId = "541F4A62-0ECD-4B4B-B1D5-38FFB5FB401F";
paths = (
{
closed = 1;
nodes = (
"195 510 LINE",
"50 510 LINE",
"50 0 LINE",
"195 0 LINE"
);
},
{
closed = 1;
nodes = (
"520 510 LINE",
"375 510 LINE",
"375 0 LINE",
"520 0 LINE"
);
},
{
closed = 1;
nodes = (
"435 395 LINE",
"435 510 LINE",
"132 510 LINE",
"132 395 LINE"
);
}
);
width = 590;
}
);
leftKerningGroup = n;
leftMetricsKey = n;
rightKerningGroup = n;
},
{
glyphname = r.ss01;
lastChange = "2021-12-04 20:32:53 +0000";
layers = (
{
layerId = "3A3E882A-FD1E-4FEC-B6F3-0E8C1BCDAD39";
paths = (
{
closed = 1;
nodes = (
"155 500 LINE",
"70 500 LINE",
"70 0 LINE",
"155 0 LINE"
);
},
{
closed = 1;
nodes = (
"349 415 LINE",
"349 500 LINE",
"152 500 LINE",
"152 415 LINE"
);
}
);
width = 354;
},
{
layerId = "541F4A62-0ECD-4B4B-B1D5-38FFB5FB401F";
paths = (
{
closed = 1;
nodes = (
"195 510 LINE",
"50 510 LINE",
"50 0 LINE",
"195 0 LINE"
);
},
{
closed = 1;
nodes = (
"389 385 LINE",
"389 510 LINE",
"132 510 LINE",
"132 385 LINE"
);
}
);
width = 404;
}
);
leftKerningGroup = r;
leftMetricsKey = r;
rightKerningGroup = r;
rightMetricsKey = r;
},
{
glyphname = a.ss02;
lastChange = "2021-12-04 19:32:04 +0000";
layers = (
{
layerId = "3A3E882A-FD1E-4FEC-B6F3-0E8C1BCDAD39";
paths = (
{
closed = 1;
nodes = (
"38 104 OFFCURVE",
"142 -15 OFFCURVE",
"284 -15 CURVE SMOOTH",
"356 -15 OFFCURVE",
"427 33 OFFCURVE",
"458 92 CURVE",
"481 0 LINE",
"546 0 LINE",
"534 109 LINE",
"534 500 LINE",
"449 500 LINE",
"449 428 LINE",
"405 491 OFFCURVE",
"344 515 OFFCURVE",
"285 515 CURVE SMOOTH",
"160 515 OFFCURVE",
"38 441 OFFCURVE",
"38 250 CURVE SMOOTH"
);
},
{
closed = 1;
nodes = (
"121 362 OFFCURVE",
"177 440 OFFCURVE",
"284 440 CURVE SMOOTH",
"381 440 OFFCURVE",
"452 391 OFFCURVE",
"453 250 CURVE",
"453 150 OFFCURVE",
"392 60 OFFCURVE",
"284 60 CURVE SMOOTH",
"178 60 OFFCURVE",
"121 144 OFFCURVE",
"121 251 CURVE SMOOTH"
);
}
);
width = 616;
},
{
layerId = "541F4A62-0ECD-4B4B-B1D5-38FFB5FB401F";
paths = (
{
closed = 1;
nodes = (
"24 74 OFFCURVE",
"130 -15 OFFCURVE",
"286 -15 CURVE SMOOTH",
"365 -15 OFFCURVE",
"424 19 OFFCURVE",
"453 73 CURVE",
"472 0 LINE",
"594 0 LINE",
"580 130 LINE",
"580 510 LINE",
"435 510 LINE",
"435 444 LINE",
"400 500 OFFCURVE",
"342 525 OFFCURVE",
"284 525 CURVE SMOOTH",
"135 525 OFFCURVE",
"24 430 OFFCURVE",
"24 255 CURVE SMOOTH"
);
},
{
closed = 1;
nodes = (
"164 352 OFFCURVE",
"214 410 OFFCURVE",
"298 410 CURVE SMOOTH",
"390 410 OFFCURVE",
"442 352 OFFCURVE",
"442 255 CURVE SMOOTH",
"442 162 OFFCURVE",
"386 100 OFFCURVE",
"304 100 CURVE SMOOTH",
"223 100 OFFCURVE",
"164 161 OFFCURVE",
"164 255 CURVE SMOOTH"
);
}
);
width = 627;
}
);
leftKerningGroup = a;
leftMetricsKey = o;
rightKerningGroup = a;
},
{
glyphname = l.ss02;
lastChange = "2021-12-05 10:11:33 +0000";
layers = (
{
layerId = "3A3E882A-FD1E-4FEC-B6F3-0E8C1BCDAD39";
paths = (
{
closed = 1;
nodes = (
"155 0 LINE",
"155 700 LINE",
"70 700 LINE",
"70 0 LINE"
);
},
{
closed = 1;
nodes = (
"219 0 LINE",
"219 80 LINE",
"70 80 LINE",
"70 0 LINE"
);
}
);
width = 234;
},
{
layerId = "541F4A62-0ECD-4B4B-B1D5-38FFB5FB401F";
paths = (
{
closed = 1;
nodes = (
"195 0 LINE",
"195 700 LINE",
"50 700 LINE",
"50 0 LINE"
);
},
{
closed = 1;
nodes = (
"257 0 LINE",
"257 115 LINE",
"50 115 LINE",
"50 0 LINE"
);
}
);
width = 277;
}
);
leftKerningGroup = l;
leftMetricsKey = l;
rightKerningGroup = l;
rightMetricsKey = l;
},
{
glyphname = t.ss02;
lastChange = "2021-12-04 19:25:40 +0000";
layers = (
{
layerId = "3A3E882A-FD1E-4FEC-B6F3-0E8C1BCDAD39";
paths = (
{
closed = 1;
nodes = (
"186 80 LINE",
"186 648 LINE",
"101 648 LINE",
"101 80 LINE"
);
},
{
closed = 1;
nodes = (
"296 0 LINE",
"296 80 LINE",
"101 80 LINE",
"101 0 LINE"
);
},
{
closed = 1;
nodes = (
"290 430 LINE",
"290 500 LINE",
"20 500 LINE",
"20 430 LINE"
);
}
);
width = 336;
},
{
layerId = "541F4A62-0ECD-4B4B-B1D5-38FFB5FB401F";
paths = (
{
closed = 1;
nodes = (
"239 80 LINE",
"239 658 LINE",
"94 658 LINE",
"94 80 LINE"
);
},
{
closed = 1;
nodes = (
"344 0 LINE",
"344 110 LINE",
"94 110 LINE",
"94 0 LINE"
);
},
{
closed = 1;
nodes = (
"343 410 LINE",
"343 510 LINE",
"13 510 LINE",
"13 410 LINE"
);
}
);
width = 368;
}
);
leftKerningGroup = t;
leftMetricsKey = t;
rightKerningGroup = t;
rightMetricsKey = t;
},
{
glyphname = u.ss02;
lastChange = "2021-12-05 10:25:08 +0000";
layers = (
{
layerId = "3A3E882A-FD1E-4FEC-B6F3-0E8C1BCDAD39";
paths = (
{
closed = 1;
nodes = (
"68 500 LINE",
"68 0 LINE",
"153 0 LINE",
"153 500 LINE"
);
},
{
closed = 1;
nodes = (
"393 500 LINE",
"393 0 LINE",
"478 0 LINE",
"478 500 LINE"
);
},
{
closed = 1;
nodes = (
"150 0 LINE",
"393 0 LINE",
"393 75 LINE",
"150 75 LINE"
);
}
);
width = 548;
},
{
layerId = "541F4A62-0ECD-4B4B-B1D5-38FFB5FB401F";
paths = (
{
closed = 1;
nodes = (
"50 510 LINE",
"50 0 LINE",
"195 0 LINE",
"195 510 LINE"
);
},
{
closed = 1;
nodes = (
"375 510 LINE",
"375 0 LINE",
"520 0 LINE",
"520 510 LINE"
);
},
{
closed = 1;
nodes = (
"132 0 LINE",
"435 0 LINE",
"435 115 LINE",
"132 115 LINE"
);
}
);
width = 571;
}
);
leftMetricsKey = u;
rightKerningGroup = u;
rightMetricsKey = u;
},
{
glyphname = y.ss02;
lastChange = "2021-12-04 19:25:57 +0000";
layers = (
{
layerId = "3A3E882A-FD1E-4FEC-B6F3-0E8C1BCDAD39";
paths = (
{
closed = 1;
nodes = (
"267 -217 LINE",
"267 0 LINE",
"449 500 LINE",
"352 500 LINE",
"225 99 LINE",
"92 500 LINE",
"0 500 LINE",
"182 0 LINE",
"182 -142 LINE",
"62 -142 LINE",
"62 -217 LINE"
);
}
);
width = 449;
},
{
layerId = "541F4A62-0ECD-4B4B-B1D5-38FFB5FB401F";
paths = (
{
closed = 1;
nodes = (
"335 -220 LINE",
"335 0 LINE",
"525 510 LINE",
"366 510 LINE",
"262 155 LINE",
"154 510 LINE",
"0 510 LINE",
"190 0 LINE",
"190 -110 LINE",
"67 -110 LINE",
"67 -220 LINE"
);
}
);
width = 525;
}
);
leftKerningGroup = y;
rightKerningGroup = y;
},
{
glyphname = g.ss03;
lastChange = "2021-12-04 19:26:03 +0000";
layers = (
{
background = {
paths = (
{
closed = 1;
nodes = (
"37 59 OFFCURVE",
"161 -15 OFFCURVE",
"286 -15 CURVE SMOOTH",
"345 -15 OFFCURVE",
"405 13 OFFCURVE",
"449 64 CURVE",
"448 0 LINE",
"533 0 LINE",
"533 500 LINE",
"480 500 LINE",
"457 418 LINE",
"413 477 OFFCURVE",
"349 515 OFFCURVE",
"286 515 CURVE SMOOTH",
"143 515 OFFCURVE",
"37 396 OFFCURVE",
"37 250 CURVE SMOOTH"
);
},
{
closed = 1;
nodes = (
"120 356 OFFCURVE",
"179 440 OFFCURVE",
"284 440 CURVE SMOOTH",
"383 440 OFFCURVE",
"446 364 OFFCURVE",
"452 264 CURVE",
"451 232 LINE",
"445 133 OFFCURVE",
"382 60 OFFCURVE",
"284 60 CURVE SMOOTH",
"178 60 OFFCURVE",
"120 138 OFFCURVE",
"120 249 CURVE SMOOTH"
);
},
{
closed = 0;
nodes = (
"489 -30 LINE"
);
},
{
closed = 0;
nodes = (
"78 -34 LINE SMOOTH",
"78 -148 OFFCURVE",
"170 -240 OFFCURVE",
"284 -240 CURVE SMOOTH",
"397 -240 OFFCURVE",
"489 -148 OFFCURVE",
"489 -34 CURVE SMOOTH"
);
}
);
};
layerId = "3A3E882A-FD1E-4FEC-B6F3-0E8C1BCDAD39";
paths = (
{
closed = 1;
nodes = (
"346 -15 OFFCURVE",
"406 13 OFFCURVE",
"450 64 CURVE",
"449 0 LINE",
"534 0 LINE",
"534 500 LINE",
"481 500 LINE",
"458 418 LINE",
"414 477 OFFCURVE",
"350 515 OFFCURVE",
"287 515 CURVE SMOOTH",
"144 515 OFFCURVE",
"38 396 OFFCURVE",
"38 250 CURVE SMOOTH",
"38 59 OFFCURVE",
"162 -15 OFFCURVE",
"287 -15 CURVE SMOOTH"
);
},
{
closed = 1;
nodes = (
"449 -217 LINE",
"449 -142 LINE",
"158 -142 LINE",
"158 -217 LINE"
);
},
{
closed = 1;
nodes = (
"534 -217 LINE",
"534 0 LINE",
"449 0 LINE",
"449 -217 LINE"
);
},
{
closed = 1;
nodes = (
"178 60 OFFCURVE",
"120 138 OFFCURVE",
"120 249 CURVE SMOOTH",
"120 356 OFFCURVE",
"179 440 OFFCURVE",
"284 440 CURVE SMOOTH",
"383 440 OFFCURVE",
"446 364 OFFCURVE",
"452 264 CURVE",
"451 232 LINE SMOOTH",
"445 133 OFFCURVE",
"382 60 OFFCURVE",
"284 60 CURVE SMOOTH"
);
}
);
width = 604;
},
{
layerId = "541F4A62-0ECD-4B4B-B1D5-38FFB5FB401F";
paths = (
{
closed = 1;
nodes = (
"374 -15 OFFCURVE",
"412 20 OFFCURVE",
"435 57 CURVE",
"435 0 LINE",
"580 0 LINE",
"580 510 LINE",
"472 510 LINE",
"459 462 LINE",
"414 501 OFFCURVE",
"361 525 OFFCURVE",
"307 525 CURVE SMOOTH",
"150 525 OFFCURVE",
"24 410 OFFCURVE",
"24 250 CURVE SMOOTH",
"24 75 OFFCURVE",
"137 -15 OFFCURVE",
"297 -15 CURVE SMOOTH"
);
},
{
closed = 1;
nodes = (
"495 -220 LINE",
"495 -110 LINE",
"144 -110 LINE",
"144 -220 LINE"
);
},
{
closed = 1;
nodes = (
"580 -220 LINE",
"580 0 LINE",
"435 0 LINE",
"435 -220 LINE"
);
},
{
closed = 1;
nodes = (
"231 102 OFFCURVE",
"164 144 OFFCURVE",
"164 249 CURVE SMOOTH",
"164 352 OFFCURVE",
"233 410 OFFCURVE",
"304 410 CURVE SMOOTH",
"381 410 OFFCURVE",
"439 352 OFFCURVE",
"438 250 CURVE",
"438 249 LINE SMOOTH",
"438 144 OFFCURVE",
"381 102 OFFCURVE",
"304 102 CURVE SMOOTH"
);
}
);
width = 631;
},
{
associatedMasterId = "3A3E882A-FD1E-4FEC-B6F3-0E8C1BCDAD39";
background = {
paths = (
{
closed = 1;
nodes = (
"38 59 OFFCURVE",
"162 -15 OFFCURVE",
"287 -15 CURVE SMOOTH",
"346 -15 OFFCURVE",
"406 13 OFFCURVE",
"450 64 CURVE",
"449 0 LINE",
"534 0 LINE",
"534 500 LINE",
"481 500 LINE",
"458 418 LINE",
"414 477 OFFCURVE",
"350 515 OFFCURVE",
"287 515 CURVE SMOOTH",
"144 515 OFFCURVE",
"38 396 OFFCURVE",
"38 250 CURVE SMOOTH"
);
},
{
closed = 1;
nodes = (
"121 356 OFFCURVE",
"180 440 OFFCURVE",
"285 440 CURVE SMOOTH",
"384 440 OFFCURVE",
"447 364 OFFCURVE",
"453 264 CURVE",
"452 232 LINE",
"446 133 OFFCURVE",
"383 60 OFFCURVE",
"285 60 CURVE SMOOTH",
"179 60 OFFCURVE",
"121 138 OFFCURVE",
"121 249 CURVE SMOOTH"
);
},
{
closed = 0;
nodes = (
"490 -30 LINE"
);
},
{
closed = 0;
nodes = (
"79 -34 LINE SMOOTH",
"79 -148 OFFCURVE",
"171 -240 OFFCURVE",
"285 -240 CURVE SMOOTH",
"398 -240 OFFCURVE",
"490 -148 OFFCURVE",
"490 -34 CURVE SMOOTH"
);
}
);
};
layerId = "34868933-FA0D-4B30-BB69-66B6BD4AC2DA";
name = "Nov 21 21, 01:45";
paths = (
{
closed = 1;
nodes = (
"39 59 OFFCURVE",
"163 -15 OFFCURVE",
"288 -15 CURVE SMOOTH",
"347 -15 OFFCURVE",
"407 13 OFFCURVE",
"451 64 CURVE",
"450 0 LINE",
"535 0 LINE",
"535 500 LINE",
"482 500 LINE",
"459 418 LINE",
"415 477 OFFCURVE",
"351 515 OFFCURVE",
"288 515 CURVE SMOOTH",
"145 515 OFFCURVE",
"39 396 OFFCURVE",
"39 250 CURVE SMOOTH"
);
},
{
closed = 1;
nodes = (
"121 356 OFFCURVE",
"180 440 OFFCURVE",
"285 440 CURVE SMOOTH",
"384 440 OFFCURVE",
"447 364 OFFCURVE",
"453 264 CURVE",
"452 232 LINE SMOOTH",
"446 133 OFFCURVE",
"383 60 OFFCURVE",
"285 60 CURVE SMOOTH",
"179 60 OFFCURVE",
"121 138 OFFCURVE",
"121 249 CURVE SMOOTH"
);
},
{
closed = 0;
nodes = (
"490 -10 LINE"
);
},
{
closed = 1;
nodes = (
"450 -217 LINE",
"450 -142 LINE",
"159 -142 LINE",
"159 -217 LINE"
);
},
{
closed = 1;
nodes = (
"450 -217 LINE",
"535 -217 LINE",
"535 0 LINE",
"450 0 LINE"
);
}
);
width = 606;
}
);
leftKerningGroup = g;
leftMetricsKey = g;
rightKerningGroup = g;
rightMetricsKey = g;
},
{
glyphname = j.ss03;
lastChange = "2021-12-05 10:27:54 +0000";
layers = (
{
layerId = "3A3E882A-FD1E-4FEC-B6F3-0E8C1BCDAD39";
paths = (
{
closed = 1;
nodes = (
"178 -35 LINE",
"178 500 LINE",
"93 500 LINE",
"93 -35 LINE"
);
},
{
closed = 1;
nodes = (
"93 -220 LINE",
"93 -145 LINE",
"-58 -145 LINE",
"-58 -220 LINE"
);
},
{
closed = 1;
nodes = (
"93 -220 LINE",
"178 -220 LINE",
"178 -3 LINE",
"93 -3 LINE"
);
},
{
closed = 1;
nodes = (
"171 593 OFFCURVE",
"200 622 OFFCURVE",
"200 657 CURVE SMOOTH",
"200 692 OFFCURVE",
"172 722 OFFCURVE",
"136 722 CURVE SMOOTH",
"100 722 OFFCURVE",
"71 693 OFFCURVE",
"71 657 CURVE SMOOTH",
"71 620 OFFCURVE",
"103 593 OFFCURVE",
"136 593 CURVE SMOOTH"
);
}
);
width = 260;
},
{
layerId = "541F4A62-0ECD-4B4B-B1D5-38FFB5FB401F";
paths = (
{
closed = 1;
nodes = (
"226 -50 LINE",
"226 510 LINE",
"81 510 LINE",
"81 -50 LINE"
);
},
{
closed = 1;
nodes = (
"141 -224 LINE",
"141 -114 LINE",
"-70 -114 LINE",
"-70 -224 LINE"
);
},
{
closed = 1;
nodes = (
"81 -224 LINE",
"226 -224 LINE",
"226 22 LINE",
"81 22 LINE"
);
},
{
closed = 1;
nodes = (
"199 546 OFFCURVE",
"238 585 OFFCURVE",
"238 630 CURVE SMOOTH",
"238 676 OFFCURVE",
"200 715 OFFCURVE",
"154 715 CURVE SMOOTH",
"107 715 OFFCURVE",
"69 677 OFFCURVE",
"69 630 CURVE SMOOTH",
"69 584 OFFCURVE",
"108 546 OFFCURVE",
"154 546 CURVE SMOOTH"
);
}
);
width = 275;
}
);
leftKerningGroup = j;
leftMetricsKey = j;
rightKerningGroup = j;
rightMetricsKey = j;
},
{
glyphname = q.ss03;
lastChange = "2021-12-05 10:28:45 +0000";
layers = (
{
layerId = "3A3E882A-FD1E-4FEC-B6F3-0E8C1BCDAD39";
paths = (
{
closed = 1;
nodes = (
"38 59 OFFCURVE",
"162 -15 OFFCURVE",
"287 -15 CURVE SMOOTH",
"346 -15 OFFCURVE",
"406 13 OFFCURVE",
"450 64 CURVE",
"449 -195 LINE",
"534 -195 LINE",
"534 500 LINE",
"481 500 LINE",
"458 418 LINE",
"414 477 OFFCURVE",
"350 515 OFFCURVE",
"287 515 CURVE SMOOTH",
"144 515 OFFCURVE",
"38 396 OFFCURVE",
"38 250 CURVE SMOOTH"
);
},
{
closed = 1;
nodes = (
"121 356 OFFCURVE",
"180 440 OFFCURVE",
"285 440 CURVE SMOOTH",
"384 440 OFFCURVE",
"447 364 OFFCURVE",
"453 264 CURVE",
"452 232 LINE",
"446 133 OFFCURVE",
"383 60 OFFCURVE",
"285 60 CURVE SMOOTH",
"179 60 OFFCURVE",
"121 138 OFFCURVE",
"121 249 CURVE SMOOTH"
);
},
{
closed = 1;
nodes = (
"598 -195 LINE",
"598 -118 LINE",
"449 -118 LINE",
"449 -195 LINE"
);
}
);
width = 593;
},
{
layerId = "541F4A62-0ECD-4B4B-B1D5-38FFB5FB401F";
paths = (
{
closed = 1;
nodes = (
"24 80 OFFCURVE",
"155 -15 OFFCURVE",
"313 -15 CURVE SMOOTH",
"367 -15 OFFCURVE",
"422 10 OFFCURVE",
"446 46 CURVE",
"445 -185 LINE",
"590 -185 LINE",
"590 510 LINE",
"482 510 LINE",
"469 442 LINE",
"440 498 OFFCURVE",
"357 525 OFFCURVE",
"313 525 CURVE SMOOTH",
"156 525 OFFCURVE",
"24 415 OFFCURVE",
"24 255 CURVE SMOOTH"
);
},
{
closed = 1;
nodes = (
"164 357 OFFCURVE",
"227 405 OFFCURVE",
"308 405 CURVE SMOOTH",
"385 405 OFFCURVE",
"453 352 OFFCURVE",
"450 255 CURVE",
"450 255 LINE",
"449 164 OFFCURVE",
"384 105 OFFCURVE",
"308 105 CURVE SMOOTH",
"227 105 OFFCURVE",
"164 169 OFFCURVE",
"164 254 CURVE SMOOTH"
);
},
{
closed = 1;
nodes = (
"654 -195 LINE",
"654 -79 LINE",
"445 -79 LINE",
"445 -195 LINE"
);
}
);
width = 644;
}
);
leftKerningGroup = q;
leftMetricsKey = q;
},
{
glyphname = u.ss03;
lastChange = "2021-12-05 10:22:06 +0000";
layers = (
{
layerId = "3A3E882A-FD1E-4FEC-B6F3-0E8C1BCDAD39";
paths = (
{
closed = 1;
nodes = (
"68 500 LINE",
"68 0 LINE",
"153 0 LINE",
"153 500 LINE"
);
},
{
closed = 1;
nodes = (
"393 500 LINE",
"393 0 LINE",
"478 0 LINE",
"478 500 LINE"
);
},
{
closed = 1;
nodes = (
"150 0 LINE",
"393 0 LINE",
"393 75 LINE",
"150 75 LINE"
);
}
);
width = 548;
},
{
layerId = "541F4A62-0ECD-4B4B-B1D5-38FFB5FB401F";
paths = (
{
closed = 1;
nodes = (
"50 510 LINE",
"50 0 LINE",
"195 0 LINE",
"195 510 LINE"
);
},
{
closed = 1;
nodes = (
"375 510 LINE",
"375 0 LINE",
"520 0 LINE",
"520 510 LINE"
);
},
{
closed = 1;
nodes = (
"132 0 LINE",
"435 0 LINE",
"435 115 LINE",
"132 115 LINE"
);
}
);
width = 571;
}
);
leftMetricsKey = u;
rightKerningGroup = u;
rightMetricsKey = u;
},
{
glyphname = f_f;
lastChange = "2021-12-04 19:03:29 +0000";
layers = (
{
layerId = "3A3E882A-FD1E-4FEC-B6F3-0E8C1BCDAD39";
paths = (
{
closed = 1;
nodes = (
"178 0 LINE",
"178 557 LINE",
"93 557 LINE",
"93 0 LINE"
);
},
{
closed = 1;
nodes = (
"339 430 LINE",
"339 500 LINE",
"15 500 LINE",
"15 430 LINE"
);
},
{
closed = 1;
nodes = (
"502 0 LINE",
"502 555 LINE",
"417 555 LINE",
"417 0 LINE"
);
},
{
closed = 1;
nodes = (
"178 557 LINE",
"179 635 OFFCURVE",
"196 640 OFFCURVE",
"274 640 CURVE SMOOTH",
"338 640 LINE",
"343 713 LINE",
"266 714 LINE SMOOTH",
"181 715 OFFCURVE",
"130 706 OFFCURVE",
"109 657 CURVE SMOOTH",
"99 634 OFFCURVE",
"94 595 OFFCURVE",
"93 557 CURVE"
);
},
{
closed = 1;
nodes = (
"609 430 LINE",
"609 500 LINE",
"339 500 LINE",
"339 430 LINE"
);
},
{
closed = 1;
nodes = (
"502 555 LINE",
"503 633 OFFCURVE",
"521 638 OFFCURVE",
"598 638 CURVE SMOOTH",
"616 638 LINE",
"621 711 LINE",
"590 712 LINE SMOOTH",
"506 715 OFFCURVE",
"454 704 OFFCURVE",
"433 655 CURVE SMOOTH",
"423 632 OFFCURVE",
"418 593 OFFCURVE",
"417 555 CURVE"
);
}
);
width = 646;
},
{
layerId = "541F4A62-0ECD-4B4B-B1D5-38FFB5FB401F";
paths = (
{
closed = 1;
nodes = (
"228 0 LINE",
"228 577 LINE",
"83 577 LINE",
"83 0 LINE"
);
},
{
closed = 1;
nodes = (
"389 410 LINE",
"389 510 LINE",
"5 510 LINE",
"5 410 LINE"
);
},
{
closed = 1;
nodes = (
"612 0 LINE",
"612 575 LINE",
"467 575 LINE",
"467 0 LINE"
);
},
{
closed = 1;
nodes = (
"228 537 LINE",
"230 598 OFFCURVE",
"241 610 OFFCURVE",
"294 610 CURVE SMOOTH",
"387 610 LINE",
"394 713 LINE",
"286 714 LINE SMOOTH",
"198 715 OFFCURVE",
"126 702 OFFCURVE",
"101 645 CURVE SMOOTH",
"88 616 OFFCURVE",
"82 591 OFFCURVE",
"83 537 CURVE"
);
},
{
closed = 1;
nodes = (
"719 410 LINE",
"719 510 LINE",
"389 510 LINE",
"389 410 LINE"
);
},
{
closed = 1;
nodes = (
"612 535 LINE",
"611 596 OFFCURVE",
"604 608 OFFCURVE",
"678 608 CURVE SMOOTH",
"725 608 LINE",
"732 715 LINE",
"671 715 LINE SMOOTH",
"568 715 OFFCURVE",
"508 695 OFFCURVE",
"485 643 CURVE SMOOTH",
"472 614 OFFCURVE",
"466 589 OFFCURVE",
"467 535 CURVE"
);
}
);
width = 752;
}
);
leftKerningGroup = f;
leftMetricsKey = f;
rightKerningGroup = f;
rightMetricsKey = f;
},
{
glyphname = f_i;
lastChange = "2021-12-04 19:52:11 +0000";
layers = (
{
layerId = "3A3E882A-FD1E-4FEC-B6F3-0E8C1BCDAD39";
paths = (
{
closed = 1;
nodes = (
"425 0 LINE",
"510 0 LINE",
"510 500 LINE",
"358 500 LINE",
"358 430 LINE",
"425 430 LINE"
);
},
{
closed = 1;
nodes = (
"178 0 LINE",
"178 557 LINE",
"93 557 LINE",
"93 0 LINE"
);
},
{
closed = 1;
nodes = (
"358 430 LINE",
"358 500 LINE",
"15 500 LINE",
"15 430 LINE"
);
},
{
closed = 1;
nodes = (
"178 557 LINE",
"179 635 OFFCURVE",
"196 640 OFFCURVE",
"274 640 CURVE SMOOTH",
"338 640 LINE",
"343 713 LINE",
"266 714 LINE SMOOTH",
"181 715 OFFCURVE",
"130 706 OFFCURVE",
"109 657 CURVE SMOOTH",
"99 634 OFFCURVE",
"94 595 OFFCURVE",
"93 557 CURVE"
);
},
{
closed = 1;
nodes = (
"503 593 OFFCURVE",
"532 622 OFFCURVE",
"532 657 CURVE SMOOTH",
"532 692 OFFCURVE",
"504 722 OFFCURVE",
"468 722 CURVE SMOOTH",
"432 722 OFFCURVE",
"403 693 OFFCURVE",
"403 657 CURVE SMOOTH",
"403 620 OFFCURVE",
"435 593 OFFCURVE",
"468 593 CURVE SMOOTH"
);
}
);
width = 592;
},
{
layerId = "541F4A62-0ECD-4B4B-B1D5-38FFB5FB401F";
paths = (
{
closed = 1;
nodes = (
"469 0 LINE",
"614 0 LINE",
"614 510 LINE",
"402 510 LINE",
"402 410 LINE",
"469 410 LINE"
);
},
{
closed = 1;
nodes = (
"228 0 LINE",
"228 577 LINE",
"83 577 LINE",
"83 0 LINE"
);
},
{
closed = 1;
nodes = (
"402 410 LINE",
"402 510 LINE",
"5 510 LINE",
"5 410 LINE"
);
},
{
closed = 1;
nodes = (
"228 537 LINE",
"230 598 OFFCURVE",
"240 610 OFFCURVE",
"294 610 CURVE SMOOTH",
"387 610 LINE",
"394 713 LINE",
"286 714 LINE SMOOTH",
"198 715 OFFCURVE",
"126 702 OFFCURVE",
"101 645 CURVE SMOOTH",
"88 616 OFFCURVE",
"82 591 OFFCURVE",
"83 537 CURVE"
);
},
{
closed = 1;
nodes = (
"588 546 OFFCURVE",
"627 585 OFFCURVE",
"627 630 CURVE SMOOTH",
"627 676 OFFCURVE",
"589 715 OFFCURVE",
"543 715 CURVE SMOOTH",
"496 715 OFFCURVE",
"458 677 OFFCURVE",
"458 630 CURVE SMOOTH",
"458 584 OFFCURVE",
"497 546 OFFCURVE",
"543 546 CURVE SMOOTH"
);
}
);
width = 657;
}
);
leftKerningGroup = f;
leftMetricsKey = f;
rightKerningGroup = i;
rightMetricsKey = i;
},
{
glyphname = f_l;
lastChange = "2021-12-05 10:12:49 +0000";
layers = (
{
layerId = "3A3E882A-FD1E-4FEC-B6F3-0E8C1BCDAD39";
paths = (
{
closed = 1;
nodes = (
"543 81 LINE",
"481 84 OFFCURVE",
"479 90 OFFCURVE",
"479 152 CURVE SMOOTH",
"479 700 LINE",
"394 700 LINE",
"394 152 LINE SMOOTH",
"394 118 OFFCURVE",
"393 74 OFFCURVE",
"408 45 CURVE SMOOTH",
"428 6 OFFCURVE",
"463 -2 OFFCURVE",
"543 0 CURVE"
);
},
{
closed = 1;
nodes = (
"178 0 LINE",
"178 557 LINE",
"93 557 LINE",
"93 0 LINE"
);
},
{
closed = 1;
nodes = (
"285 430 LINE",
"285 500 LINE",
"15 500 LINE",
"15 430 LINE"
);
},
{
closed = 1;
nodes = (
"178 557 LINE",
"179 635 OFFCURVE",
"199 640 OFFCURVE",
"274 640 CURVE SMOOTH",
"476 640 LINE",
"481 713 LINE",
"266 714 LINE SMOOTH",
"183 714 OFFCURVE",
"130 706 OFFCURVE",
"109 657 CURVE SMOOTH",
"99 634 OFFCURVE",
"94 595 OFFCURVE",
"93 557 CURVE"
);
}
);
width = 558;
},
{
layerId = "541F4A62-0ECD-4B4B-B1D5-38FFB5FB401F";
paths = (
{
closed = 1;
nodes = (
"651 118 LINE",
"596 118 OFFCURVE",
"592 118 OFFCURVE",
"592 172 CURVE SMOOTH",
"592 716 LINE",
"447 716 LINE",
"447 172 LINE SMOOTH",
"447 109 OFFCURVE",
"450 79 OFFCURVE",
"464 52 CURVE SMOOTH",
"489 5 OFFCURVE",
"537 -5 OFFCURVE",
"651 1 CURVE"
);
},
{
closed = 1;
nodes = (
"228 0 LINE",
"228 573 LINE",
"83 573 LINE",
"83 0 LINE"
);
},
{
closed = 1;
nodes = (
"335 410 LINE",
"335 510 LINE",
"5 510 LINE",
"5 410 LINE"
);
},
{
closed = 1;
nodes = (
"228 533 LINE",
"229 593 OFFCURVE",
"222 603 OFFCURVE",
"294 603 CURVE SMOOTH",
"532 603 LINE",
"532 716 LINE",
"286 717 LINE SMOOTH",
"200 717 OFFCURVE",
"125 719 OFFCURVE",
"101 661 CURVE SMOOTH",
"89 632 OFFCURVE",
"82 587 OFFCURVE",
"83 533 CURVE"
);
}
);
width = 671;
}
);
leftKerningGroup = f;
leftMetricsKey = f;
rightKerningGroup = l;
rightMetricsKey = l;
},
{
glyphname = f_t;
lastChange = "2021-12-04 19:52:17 +0000";
layers = (
{
layerId = "3A3E882A-FD1E-4FEC-B6F3-0E8C1BCDAD39";
paths = (
{
closed = 1;
nodes = (
"619 0 LINE",
"619 75 LINE",
"591 73 LINE SMOOTH",
"510 67 OFFCURVE",
"510 94 OFFCURVE",
"510 156 CURVE SMOOTH",
"510 648 LINE",
"425 648 LINE",
"425 156 LINE SMOOTH",
"425 122 OFFCURVE",
"424 73 OFFCURVE",
"439 44 CURVE SMOOTH",
"461 1 OFFCURVE",
"501 0 OFFCURVE",
"603 0 CURVE SMOOTH"
);
},
{
closed = 1;
nodes = (
"178 0 LINE",
"178 557 LINE",
"93 557 LINE",
"93 0 LINE"
);
},
{
closed = 1;
nodes = (
"344 430 LINE",
"344 500 LINE",
"15 500 LINE",
"15 430 LINE"
);
},
{
closed = 1;
nodes = (
"178 557 LINE",
"179 635 OFFCURVE",
"196 640 OFFCURVE",
"274 640 CURVE SMOOTH",
"338 640 LINE",
"343 713 LINE",
"266 714 LINE SMOOTH",
"181 715 OFFCURVE",
"130 706 OFFCURVE",
"109 657 CURVE SMOOTH",
"99 634 OFFCURVE",
"94 595 OFFCURVE",
"93 557 CURVE"
);
},
{
closed = 1;
nodes = (
"614 430 LINE",
"614 500 LINE",
"344 500 LINE",
"344 430 LINE"
);
}
);
width = 659;
},
{
layerId = "541F4A62-0ECD-4B4B-B1D5-38FFB5FB401F";
paths = (
{
closed = 1;
nodes = (
"754 0 LINE",
"754 115 LINE",
"694 115 LINE",
"650 115 OFFCURVE",
"645 123 OFFCURVE",
"645 176 CURVE SMOOTH",
"645 658 LINE",
"500 658 LINE",
"500 176 LINE SMOOTH",
"500 110 OFFCURVE",
"503 82 OFFCURVE",
"517 55 CURVE SMOOTH",
"545 2 OFFCURVE",
"606 0 OFFCURVE",
"708 0 CURVE SMOOTH"
);
},
{
closed = 1;
nodes = (
"228 0 LINE",
"228 550 LINE",
"83 550 LINE",
"83 0 LINE"
);
},
{
closed = 1;
nodes = (
"424 410 LINE",
"424 510 LINE",
"5 510 LINE",
"5 410 LINE"
);
},
{
closed = 1;
nodes = (
"228 510 LINE",
"230 581 OFFCURVE",
"223 610 OFFCURVE",
"294 610 CURVE SMOOTH",
"387 610 LINE",
"394 713 LINE",
"286 714 LINE SMOOTH",
"198 715 OFFCURVE",
"125 702 OFFCURVE",
"100 645 CURVE SMOOTH",
"87 616 OFFCURVE",
"82 564 OFFCURVE",
"83 510 CURVE"
);
},
{
closed = 1;
nodes = (
"749 410 LINE",
"749 510 LINE",
"419 510 LINE",
"419 410 LINE"
);
}
);
width = 778;
}
);
leftKerningGroup = f;
leftMetricsKey = f;
rightKerningGroup = t;
rightMetricsKey = t;
},
{
glyphname = t_i;
lastChange = "2021-12-04 19:52:21 +0000";
layers = (
{
layerId = "3A3E882A-FD1E-4FEC-B6F3-0E8C1BCDAD39";
paths = (
{
closed = 1;
nodes = (
"295 0 LINE",
"295 75 LINE",
"267 73 LINE SMOOTH",
"186 67 OFFCURVE",
"186 94 OFFCURVE",
"186 156 CURVE SMOOTH",
"186 648 LINE",
"101 648 LINE",
"101 156 LINE SMOOTH",
"101 122 OFFCURVE",
"100 73 OFFCURVE",
"115 44 CURVE SMOOTH",
"137 1 OFFCURVE",
"177 0 OFFCURVE",
"279 0 CURVE SMOOTH"
);
},
{
closed = 1;
nodes = (
"358 430 LINE",
"358 500 LINE",
"20 500 LINE",
"20 430 LINE"
);
},
{
closed = 1;
nodes = (
"510 0 LINE",
"510 500 LINE",
"358 500 LINE",
"358 430 LINE",
"425 430 LINE",
"425 0 LINE"
);
},
{
closed = 1;
nodes = (
"503 593 OFFCURVE",
"532 622 OFFCURVE",
"532 657 CURVE SMOOTH",
"532 692 OFFCURVE",
"504 722 OFFCURVE",
"468 722 CURVE SMOOTH",
"432 722 OFFCURVE",
"403 693 OFFCURVE",
"403 657 CURVE SMOOTH",
"403 620 OFFCURVE",
"435 593 OFFCURVE",
"468 593 CURVE SMOOTH"
);
}
);
width = 592;
},
{
layerId = "541F4A62-0ECD-4B4B-B1D5-38FFB5FB401F";
paths = (
{
closed = 1;
nodes = (
"348 0 LINE",
"348 117 LINE",
"288 117 LINE",
"239 117 OFFCURVE",
"239 124 OFFCURVE",
"239 176 CURVE SMOOTH",
"239 658 LINE",
"94 658 LINE",
"94 176 LINE SMOOTH",
"94 110 OFFCURVE",
"97 82 OFFCURVE",
"111 55 CURVE SMOOTH",
"139 2 OFFCURVE",
"200 0 OFFCURVE",
"302 0 CURVE SMOOTH"
);
},
{
closed = 1;
nodes = (
"421 410 LINE",
"421 510 LINE",
"13 510 LINE",
"13 410 LINE"
);
},
{
closed = 1;
nodes = (
"618 0 LINE",
"618 510 LINE",
"421 510 LINE",
"421 410 LINE",
"473 410 LINE",
"473 0 LINE"
);
},
{
closed = 1;
nodes = (
"590 546 OFFCURVE",
"629 585 OFFCURVE",
"629 630 CURVE SMOOTH",
"629 676 OFFCURVE",
"591 715 OFFCURVE",
"545 715 CURVE SMOOTH",
"498 715 OFFCURVE",
"460 677 OFFCURVE",
"460 630 CURVE SMOOTH",
"460 584 OFFCURVE",
"499 546 OFFCURVE",
"545 546 CURVE SMOOTH"
);
}
);
width = 659;
}
);
leftKerningGroup = t;
leftMetricsKey = t;
rightKerningGroup = i;
rightMetricsKey = i;
},
{
glyphname = t_t;
lastChange = "2021-12-04 19:52:24 +0000";
layers = (
{
layerId = "3A3E882A-FD1E-4FEC-B6F3-0E8C1BCDAD39";
paths = (
{
closed = 1;
nodes = (
"632 0 LINE",
"632 75 LINE",
"604 73 LINE SMOOTH",
"523 67 OFFCURVE",
"523 94 OFFCURVE",
"523 156 CURVE SMOOTH",
"523 648 LINE",
"438 648 LINE",
"438 156 LINE SMOOTH",
"438 122 OFFCURVE",
"437 73 OFFCURVE",
"452 44 CURVE SMOOTH",
"474 1 OFFCURVE",
"514 0 OFFCURVE",
"616 0 CURVE SMOOTH"
);
},
{
closed = 1;
nodes = (
"295 0 LINE",
"295 75 LINE",
"267 73 LINE SMOOTH",
"186 67 OFFCURVE",
"186 94 OFFCURVE",
"186 156 CURVE SMOOTH",
"186 648 LINE",
"101 648 LINE",
"101 156 LINE SMOOTH",
"101 122 OFFCURVE",
"100 73 OFFCURVE",
"115 44 CURVE SMOOTH",
"137 1 OFFCURVE",
"177 0 OFFCURVE",
"279 0 CURVE SMOOTH"
);
},
{
closed = 1;
nodes = (
"357 430 LINE",
"357 500 LINE",
"20 500 LINE",
"20 430 LINE"
);
},
{
closed = 1;
nodes = (
"627 430 LINE",
"627 500 LINE",
"357 500 LINE",
"357 430 LINE"
);
}
);
width = 672;
},
{
layerId = "541F4A62-0ECD-4B4B-B1D5-38FFB5FB401F";
paths = (
{
closed = 1;
nodes = (
"758 0 LINE",
"758 115 LINE",
"698 115 LINE",
"662 115 OFFCURVE",
"649 116 OFFCURVE",
"649 176 CURVE SMOOTH",
"649 658 LINE",
"504 658 LINE",
"504 176 LINE SMOOTH",
"504 110 OFFCURVE",
"507 82 OFFCURVE",
"521 55 CURVE SMOOTH",
"549 2 OFFCURVE",
"610 0 OFFCURVE",
"712 0 CURVE SMOOTH"
);
},
{
closed = 1;
nodes = (
"348 0 LINE",
"348 115 LINE",
"288 115 LINE",
"243 115 OFFCURVE",
"239 126 OFFCURVE",
"239 176 CURVE SMOOTH",
"239 658 LINE",
"94 658 LINE",
"94 176 LINE SMOOTH",
"94 110 OFFCURVE",
"97 82 OFFCURVE",
"111 55 CURVE SMOOTH",
"139 2 OFFCURVE",
"200 0 OFFCURVE",
"302 0 CURVE SMOOTH"
);
},
{
closed = 1;
nodes = (
"423 410 LINE",
"423 510 LINE",
"13 510 LINE",
"13 410 LINE"
);
},
{
closed = 1;
nodes = (
"753 410 LINE",
"753 510 LINE",
"423 510 LINE",
"423 410 LINE"
);
}
);
width = 782;
}
);
leftKerningGroup = t;
leftMetricsKey = t;
rightKerningGroup = t;
rightMetricsKey = t;
},
{
glyphname = f_f.ss01;
lastChange = "2021-12-04 19:52:30 +0000";
layers = (
{
layerId = "3A3E882A-FD1E-4FEC-B6F3-0E8C1BCDAD39";
paths = (
{
closed = 1;
nodes = (
"323 715 LINE",
"93 715 LINE",
"93 500 LINE",
"15 500 LINE",
"15 430 LINE",
"93 430 LINE",
"93 0 LINE",
"178 0 LINE",
"178 430 LINE",
"339 430 LINE",
"339 500 LINE",
"178 500 LINE",
"178 635 LINE",
"323 635 LINE"
);
},
{
closed = 1;
nodes = (
"647 715 LINE",
"417 715 LINE",
"417 500 LINE",
"339 500 LINE",
"339 430 LINE",
"417 430 LINE",
"417 0 LINE",
"502 0 LINE",
"502 430 LINE",
"604 430 LINE",
"604 500 LINE",
"502 500 LINE",
"502 635 LINE",
"647 635 LINE"
);
}
);
width = 672;
},
{
layerId = "541F4A62-0ECD-4B4B-B1D5-38FFB5FB401F";
paths = (
{
closed = 1;
nodes = (
"373 715 LINE",
"83 715 LINE",
"83 510 LINE",
"5 510 LINE",
"5 410 LINE",
"83 410 LINE",
"83 0 LINE",
"228 0 LINE",
"228 410 LINE",
"389 410 LINE",
"389 510 LINE",
"228 510 LINE",
"228 615 LINE",
"373 615 LINE"
);
},
{
closed = 1;
nodes = (
"737 715 LINE",
"447 715 LINE",
"447 510 LINE",
"369 510 LINE",
"369 410 LINE",
"447 410 LINE",
"447 0 LINE",
"592 0 LINE",
"592 410 LINE",
"694 410 LINE",
"694 510 LINE",
"592 510 LINE",
"592 615 LINE",
"737 615 LINE"
);
}
);
width = 757;
}
);
leftKerningGroup = f;
leftMetricsKey = f;
rightKerningGroup = f;
rightMetricsKey = f;
},
{
glyphname = f_i.ss01;
lastChange = "2021-12-04 19:52:36 +0000";
layers = (
{
layerId = "3A3E882A-FD1E-4FEC-B6F3-0E8C1BCDAD39";
paths = (
{
closed = 1;
nodes = (
"425 0 LINE",
"510 0 LINE",
"510 500 LINE",
"358 500 LINE",
"358 430 LINE",
"425 430 LINE"
);
},
{
closed = 1;
nodes = (
"503 593 OFFCURVE",
"532 622 OFFCURVE",
"532 657 CURVE SMOOTH",
"532 692 OFFCURVE",
"504 722 OFFCURVE",
"468 722 CURVE SMOOTH",
"432 722 OFFCURVE",
"403 693 OFFCURVE",
"403 657 CURVE SMOOTH",
"403 620 OFFCURVE",
"435 593 OFFCURVE",
"468 593 CURVE SMOOTH"
);
},
{
closed = 1;
nodes = (
"323 715 LINE",
"93 715 LINE",
"93 500 LINE",
"15 500 LINE",
"15 430 LINE",
"93 430 LINE",
"93 0 LINE",
"178 0 LINE",
"178 430 LINE",
"358 430 LINE",
"358 500 LINE",
"178 500 LINE",
"178 635 LINE",
"323 635 LINE"
);
}
);
width = 592;
},
{
layerId = "541F4A62-0ECD-4B4B-B1D5-38FFB5FB401F";
paths = (
{
closed = 1;
nodes = (
"469 0 LINE",
"614 0 LINE",
"614 510 LINE",
"402 510 LINE",
"402 410 LINE",
"469 410 LINE"
);
},
{
closed = 1;
nodes = (
"588 546 OFFCURVE",
"627 585 OFFCURVE",
"627 630 CURVE SMOOTH",
"627 676 OFFCURVE",
"589 715 OFFCURVE",
"543 715 CURVE SMOOTH",
"496 715 OFFCURVE",
"458 677 OFFCURVE",
"458 630 CURVE SMOOTH",
"458 584 OFFCURVE",
"497 546 OFFCURVE",
"543 546 CURVE SMOOTH"
);
},
{
closed = 1;
nodes = (
"393 715 LINE",
"83 715 LINE",
"83 510 LINE",
"5 510 LINE",
"5 410 LINE",
"83 410 LINE",
"83 0 LINE",
"228 0 LINE",
"228 410 LINE",
"402 410 LINE",
"402 510 LINE",
"228 510 LINE",
"228 615 LINE",
"393 615 LINE"
);
}
);
width = 657;
}
);
leftKerningGroup = f;
leftMetricsKey = f;
rightKerningGroup = i;
rightMetricsKey = i;
},
{
glyphname = f_l.ss01;
lastChange = "2021-12-05 10:12:53 +0000";
layers = (
{
layerId = "3A3E882A-FD1E-4FEC-B6F3-0E8C1BCDAD39";
paths = (
{
closed = 1;
nodes = (
"543 81 LINE",
"481 84 OFFCURVE",
"479 90 OFFCURVE",
"479 152 CURVE SMOOTH",
"479 700 LINE",
"394 700 LINE",
"394 152 LINE SMOOTH",
"394 118 OFFCURVE",
"393 74 OFFCURVE",
"408 45 CURVE SMOOTH",
"428 6 OFFCURVE",
"463 -2 OFFCURVE",
"543 0 CURVE"
);
},
{
closed = 1;
nodes = (
"479 715 LINE",
"93 715 LINE",
"93 500 LINE",
"15 500 LINE",
"15 430 LINE",
"93 430 LINE",
"93 0 LINE",
"178 0 LINE",
"178 430 LINE",
"280 430 LINE",
"280 500 LINE",
"178 500 LINE",
"178 635 LINE",
"479 635 LINE"
);
}
);
width = 558;
},
{
layerId = "541F4A62-0ECD-4B4B-B1D5-38FFB5FB401F";
paths = (
{
closed = 1;
nodes = (
"651 118 LINE",
"596 118 OFFCURVE",
"592 118 OFFCURVE",
"592 172 CURVE SMOOTH",
"592 715 LINE",
"447 715 LINE",
"447 172 LINE SMOOTH",
"447 109 OFFCURVE",
"450 79 OFFCURVE",
"464 52 CURVE SMOOTH",
"489 5 OFFCURVE",
"537 -5 OFFCURVE",
"651 1 CURVE"
);
},
{
closed = 1;
nodes = (
"592 715 LINE",
"83 715 LINE",
"83 510 LINE",
"5 510 LINE",
"5 410 LINE",
"83 410 LINE",
"83 0 LINE",
"228 0 LINE",
"228 410 LINE",
"330 410 LINE",
"330 510 LINE",
"228 510 LINE",
"228 615 LINE",
"592 615 LINE"
);
}
);
width = 671;
}
);
leftKerningGroup = f;
leftMetricsKey = f.ss01;
rightKerningGroup = l;
rightMetricsKey = l;
},
{
glyphname = f_t.ss01;
lastChange = "2021-12-04 19:52:43 +0000";
layers = (
{
layerId = "3A3E882A-FD1E-4FEC-B6F3-0E8C1BCDAD39";
paths = (
{
closed = 1;
nodes = (
"323 714 LINE",
"93 714 LINE",
"93 500 LINE",
"15 500 LINE",
"15 430 LINE",
"93 430 LINE",
"93 0 LINE",
"178 0 LINE",
"178 430 LINE",
"344 430 LINE",
"344 500 LINE",
"178 500 LINE",
"178 634 LINE",
"323 634 LINE"
);
},
{
closed = 1;
nodes = (
"510 80 LINE",
"510 648 LINE",
"425 648 LINE",
"425 80 LINE"
);
},
{
closed = 1;
nodes = (
"620 0 LINE",
"620 80 LINE",
"425 80 LINE",
"425 0 LINE"
);
},
{
closed = 1;
nodes = (
"614 430 LINE",
"614 500 LINE",
"344 500 LINE",
"344 430 LINE"
);
}
);
width = 660;
},
{
layerId = "541F4A62-0ECD-4B4B-B1D5-38FFB5FB401F";
paths = (
{
closed = 1;
nodes = (
"373 715 LINE",
"83 715 LINE",
"83 510 LINE",
"5 510 LINE",
"5 410 LINE",
"83 410 LINE",
"83 0 LINE",
"228 0 LINE",
"228 410 LINE",
"389 410 LINE",
"389 510 LINE",
"228 510 LINE",
"228 615 LINE",
"373 615 LINE"
);
},
{
closed = 1;
nodes = (
"615 80 LINE",
"615 658 LINE",
"470 658 LINE",
"470 80 LINE"
);
},
{
closed = 1;
nodes = (
"720 0 LINE",
"720 110 LINE",
"470 110 LINE",
"470 0 LINE"
);
},
{
closed = 1;
nodes = (
"719 410 LINE",
"719 510 LINE",
"389 510 LINE",
"389 410 LINE"
);
}
);
width = 744;
}
);
leftKerningGroup = f;
leftMetricsKey = f;
rightKerningGroup = t;
rightMetricsKey = t;
},
{
glyphname = t_i.ss01;
lastChange = "2021-12-04 19:52:47 +0000";
layers = (
{
layerId = "3A3E882A-FD1E-4FEC-B6F3-0E8C1BCDAD39";
paths = (
{
closed = 1;
nodes = (
"510 0 LINE",
"510 500 LINE",
"358 500 LINE",
"358 430 LINE",
"425 430 LINE",
"425 0 LINE"
);
},
{
closed = 1;
nodes = (
"503 593 OFFCURVE",
"532 622 OFFCURVE",
"532 657 CURVE SMOOTH",
"532 692 OFFCURVE",
"504 722 OFFCURVE",
"468 722 CURVE SMOOTH",
"432 722 OFFCURVE",
"403 693 OFFCURVE",
"403 657 CURVE SMOOTH",
"403 620 OFFCURVE",
"435 593 OFFCURVE",
"468 593 CURVE SMOOTH"
);
},
{
closed = 1;
nodes = (
"186 430 LINE",
"358 430 LINE",
"358 500 LINE",
"186 500 LINE",
"186 648 LINE",
"101 648 LINE",
"101 500 LINE",
"20 500 LINE",
"20 430 LINE",
"101 430 LINE",
"101 0 LINE",
"296 0 LINE",
"296 80 LINE",
"186 80 LINE"
);
}
);
width = 592;
},
{
layerId = "541F4A62-0ECD-4B4B-B1D5-38FFB5FB401F";
paths = (
{
closed = 1;
nodes = (
"618 0 LINE",
"618 510 LINE",
"421 510 LINE",
"421 410 LINE",
"473 410 LINE",
"473 0 LINE"
);
},
{
closed = 1;
nodes = (
"590 546 OFFCURVE",
"629 585 OFFCURVE",
"629 630 CURVE SMOOTH",
"629 676 OFFCURVE",
"591 715 OFFCURVE",
"545 715 CURVE SMOOTH",
"498 715 OFFCURVE",
"460 677 OFFCURVE",
"460 630 CURVE SMOOTH",
"460 584 OFFCURVE",
"499 546 OFFCURVE",
"545 546 CURVE SMOOTH"
);
},
{
closed = 1;
nodes = (
"239 410 LINE",
"421 410 LINE",
"421 510 LINE",
"239 510 LINE",
"239 658 LINE",
"94 658 LINE",
"94 510 LINE",
"13 510 LINE",
"13 410 LINE",
"94 410 LINE",
"94 0 LINE",
"344 0 LINE",
"344 110 LINE",
"239 110 LINE"
);
}
);
width = 659;
}
);
leftKerningGroup = t;
leftMetricsKey = t;
rightKerningGroup = i;
rightMetricsKey = i;
},
{
glyphname = t_t.ss01;
lastChange = "2021-12-04 19:52:50 +0000";
layers = (
{
layerId = "3A3E882A-FD1E-4FEC-B6F3-0E8C1BCDAD39";
paths = (
{
closed = 1;
nodes = (
"186 430 LINE",
"357 430 LINE",
"357 500 LINE",
"186 500 LINE",
"186 648 LINE",
"101 648 LINE",
"101 500 LINE",
"20 500 LINE",
"20 430 LINE",
"101 430 LINE",
"101 0 LINE",
"296 0 LINE",
"296 80 LINE",
"186 80 LINE"
);
},
{
closed = 1;
nodes = (
"523 430 LINE",
"627 430 LINE",
"627 500 LINE",
"523 500 LINE",
"523 648 LINE",
"438 648 LINE",
"438 500 LINE",
"357 500 LINE",
"357 430 LINE",
"438 430 LINE",
"438 0 LINE",
"633 0 LINE",
"633 80 LINE",
"523 80 LINE"
);
}
);
width = 673;
},
{
layerId = "541F4A62-0ECD-4B4B-B1D5-38FFB5FB401F";
paths = (
{
closed = 1;
nodes = (
"239 410 LINE",
"423 410 LINE",
"423 510 LINE",
"239 510 LINE",
"239 658 LINE",
"94 658 LINE",
"94 510 LINE",
"13 510 LINE",
"13 410 LINE",
"94 410 LINE",
"94 0 LINE",
"344 0 LINE",
"344 110 LINE",
"239 110 LINE"
);
},
{
closed = 1;
nodes = (
"649 410 LINE",
"753 410 LINE",
"753 510 LINE",
"649 510 LINE",
"649 658 LINE",
"504 658 LINE",
"504 510 LINE",
"423 510 LINE",
"423 410 LINE",
"504 410 LINE",
"504 0 LINE",
"754 0 LINE",
"754 110 LINE",
"649 110 LINE"
);
}
);
width = 778;
}
);
leftKerningGroup = t;
leftMetricsKey = t;
rightKerningGroup = t;
rightMetricsKey = t;
},
{
glyphname = zero;
lastChange = "2021-12-04 17:32:10 +0000";
layers = (
{
background = {
paths = (
{
closed = 1;
nodes = (
"543 -15 OFFCURVE",
"617 148 OFFCURVE",
"617 349 CURVE SMOOTH",
"617 545 OFFCURVE",
"546 715 OFFCURVE",
"328 715 CURVE SMOOTH",
"115 715 OFFCURVE",
"40 548 OFFCURVE",
"40 349 CURVE SMOOTH",
"40 153 OFFCURVE",
"111 -15 OFFCURVE",
"328 -15 CURVE SMOOTH"
);
},
{
closed = 1;
nodes = (
"171 65 OFFCURVE",
"136 196 OFFCURVE",
"136 349 CURVE SMOOTH",
"136 501 OFFCURVE",
"170 635 OFFCURVE",
"328 635 CURVE SMOOTH",
"486 635 OFFCURVE",
"521 503 OFFCURVE",
"521 349 CURVE SMOOTH",
"521 195 OFFCURVE",
"487 65 OFFCURVE",
"328 65 CURVE SMOOTH"
);
},
{
closed = 1;
nodes = (
"143 544 LINE",
"189 624 LINE",
"514 159 LINE",
"469 76 LINE"
);
}
);
};
layerId = "3A3E882A-FD1E-4FEC-B6F3-0E8C1BCDAD39";
paths = (
{
closed = 1;
nodes = (
"528 -15 OFFCURVE",
"597 148 OFFCURVE",
"597 349 CURVE SMOOTH",
"597 545 OFFCURVE",
"531 715 OFFCURVE",
"328 715 CURVE SMOOTH",
"130 715 OFFCURVE",
"60 548 OFFCURVE",
"60 349 CURVE SMOOTH",
"60 153 OFFCURVE",
"126 -15 OFFCURVE",
"328 -15 CURVE SMOOTH"
);
},
{
closed = 1;
nodes = (
"186 65 OFFCURVE",
"154 196 OFFCURVE",
"154 349 CURVE SMOOTH",
"154 501 OFFCURVE",
"185 635 OFFCURVE",
"328 635 CURVE SMOOTH",
"471 635 OFFCURVE",
"503 503 OFFCURVE",
"503 349 CURVE SMOOTH",
"503 195 OFFCURVE",
"472 65 OFFCURVE",
"328 65 CURVE SMOOTH"
);
},
{
closed = 1;
nodes = (
"514 159 LINE",
"189 624 LINE",
"143 544 LINE",
"469 76 LINE"
);
}
);
width = 657;
},
{
layerId = "541F4A62-0ECD-4B4B-B1D5-38FFB5FB401F";
paths = (
{
closed = 1;
nodes = (
"538 -15 OFFCURVE",
"642 101 OFFCURVE",
"642 349 CURVE SMOOTH",
"642 598 OFFCURVE",
"537 715 OFFCURVE",
"343 715 CURVE SMOOTH",
"151 715 OFFCURVE",
"45 596 OFFCURVE",
"45 349 CURVE SMOOTH",
"45 101 OFFCURVE",
"149 -15 OFFCURVE",
"343 -15 CURVE SMOOTH"
);
},
{
closed = 1;
nodes = (
"245 105 OFFCURVE",
"190 167 OFFCURVE",
"190 349 CURVE SMOOTH",
"190 532 OFFCURVE",
"245 595 OFFCURVE",
"343 595 CURVE SMOOTH",
"442 595 OFFCURVE",
"497 533 OFFCURVE",
"497 349 CURVE SMOOTH",
"497 166 OFFCURVE",
"443 105 OFFCURVE",
"343 105 CURVE SMOOTH"
);
},
{
closed = 1;
nodes = (
"546 160 LINE",
"202 652 LINE",
"140 543 LINE",
"485 48 LINE"
);
}
);
width = 676;
}
);
unicode = 0030;
},
{
glyphname = one;
lastChange = "2021-12-04 17:32:18 +0000";
layers = (
{
layerId = "3A3E882A-FD1E-4FEC-B6F3-0E8C1BCDAD39";
paths = (
{
closed = 1;
nodes = (
"42 536 LINE",
"208 536 LINE",
"208 0 LINE",
"293 0 LINE",
"293 700 LINE",
"236 700 LINE",
"217 645 OFFCURVE",
"175 619 OFFCURVE",
"120 610 CURVE SMOOTH",
"97 606 OFFCURVE",
"67 604 OFFCURVE",
"42 603 CURVE"
);
}
);
width = 391;
},
{
background = {
paths = (
{
closed = 1;
nodes = (
"37 516 LINE",
"203 516 LINE",
"203 -20 LINE",
"348 -20 LINE",
"348 720 LINE",
"237 720 LINE",
"222 665 OFFCURVE",
"194 639 OFFCURVE",
"140 630 CURVE SMOOTH",
"115 625 OFFCURVE",
"82 623 OFFCURVE",
"37 622 CURVE"
);
}
);
};
layerId = "541F4A62-0ECD-4B4B-B1D5-38FFB5FB401F";
paths = (
{
closed = 1;
nodes = (
"47 509 LINE",
"203 509 LINE",
"203 0 LINE",
"348 0 LINE",
"348 700 LINE",
"237 700 LINE",
"222 645 OFFCURVE",
"194 629 OFFCURVE",
"140 620 CURVE SMOOTH",
"115 616 OFFCURVE",
"92 613 OFFCURVE",
"47 612 CURVE"
);
}
);
width = 446;
}
);
unicode = 0031;
},
{
glyphname = two;
lastChange = "2021-12-04 17:32:24 +0000";
layers = (
{
layerId = "3A3E882A-FD1E-4FEC-B6F3-0E8C1BCDAD39";
paths = (
{
closed = 1;
nodes = (
"505 0 LINE",
"505 77 LINE",
"164 77 LINE",
"325 178 OFFCURVE",
"506 319 OFFCURVE",
"506 485 CURVE SMOOTH",
"506 633 OFFCURVE",
"417 714 OFFCURVE",
"275 714 CURVE SMOOTH",
"158 714 OFFCURVE",
"73 653 OFFCURVE",
"49 556 CURVE",
"133 518 LINE",
"149 613 OFFCURVE",
"210 634 OFFCURVE",
"273 634 CURVE SMOOTH",
"352 634 OFFCURVE",
"417 599 OFFCURVE",
"417 484 CURVE SMOOTH",
"417 397 OFFCURVE",
"347 320 OFFCURVE",
"226 223 CURVE",
"34 75 LINE",
"34 0 LINE"
);
}
);
width = 540;
},
{
layerId = "541F4A62-0ECD-4B4B-B1D5-38FFB5FB401F";
paths = (
{
closed = 1;
nodes = (
"565 0 LINE",
"565 115 LINE",
"260 115 LINE",
"463 246 OFFCURVE",
"566 346 OFFCURVE",
"566 475 CURVE SMOOTH",
"566 630 OFFCURVE",
"468 714 OFFCURVE",
"305 714 CURVE SMOOTH",
"170 714 OFFCURVE",
"67 640 OFFCURVE",
"47 527 CURVE",
"179 464 LINE",
"186 558 OFFCURVE",
"227 594 OFFCURVE",
"303 594 CURVE SMOOTH",
"380 594 OFFCURVE",
"421 553 OFFCURVE",
"421 474 CURVE SMOOTH",
"421 400 OFFCURVE",
"367 362 OFFCURVE",
"234 256 CURVE",
"34 100 LINE",
"34 0 LINE"
);
}
);
width = 605;
}
);
unicode = 0032;
},
{
glyphname = three;
lastChange = "2021-12-04 17:32:37 +0000";
layers = (
{
layerId = "3A3E882A-FD1E-4FEC-B6F3-0E8C1BCDAD39";
paths = (
{
closed = 1;
nodes = (
"403 -12 OFFCURVE",
"524 56 OFFCURVE",
"524 188 CURVE SMOOTH",
"524 279 OFFCURVE",
"486 340 OFFCURVE",
"376 371 CURVE",
"447 390 OFFCURVE",
"505 457 OFFCURVE",
"505 545 CURVE SMOOTH",
"505 652 OFFCURVE",
"407 715 OFFCURVE",
"279 715 CURVE SMOOTH",
"156 715 OFFCURVE",
"76 652 OFFCURVE",
"52 557 CURVE",
"134 523 LINE",
"147 590 OFFCURVE",
"196 645 OFFCURVE",
"277 645 CURVE SMOOTH",
"348 645 OFFCURVE",
"417 608 OFFCURVE",
"417 536 CURVE SMOOTH",
"417 437 OFFCURVE",
"307 407 OFFCURVE",
"218 407 CURVE",
"218 331 LINE",
"331 331 OFFCURVE",
"434 290 OFFCURVE",
"434 187 CURVE SMOOTH",
"434 104 OFFCURVE",
"361 63 OFFCURVE",
"273 63 CURVE SMOOTH",
"188 63 OFFCURVE",
"140 106 OFFCURVE",
"125 175 CURVE",
"42 151 LINE",
"70 45 OFFCURVE",
"152 -12 OFFCURVE",
"272 -12 CURVE SMOOTH"
);
}
);
width = 584;
},
{
layerId = "541F4A62-0ECD-4B4B-B1D5-38FFB5FB401F";
paths = (
{
closed = 1;
nodes = (
"460 -15 OFFCURVE",
"578 75 OFFCURVE",
"578 205 CURVE SMOOTH",
"578 295 OFFCURVE",
"540 332 OFFCURVE",
"459 367 CURVE",
"520 403 OFFCURVE",
"559 452 OFFCURVE",
"559 525 CURVE SMOOTH",
"559 638 OFFCURVE",
"453 715 OFFCURVE",
"303 715 CURVE SMOOTH",
"166 715 OFFCURVE",
"65 643 OFFCURVE",
"44 527 CURVE",
"184 489 LINE",
"189 554 OFFCURVE",
"234 605 OFFCURVE",
"301 605 CURVE SMOOTH",
"368 605 OFFCURVE",
"411 570 OFFCURVE",
"411 516 CURVE SMOOTH",
"411 440 OFFCURVE",
"334 423 OFFCURVE",
"222 423 CURVE",
"222 305 LINE",
"360 305 OFFCURVE",
"428 290 OFFCURVE",
"428 204 CURVE SMOOTH",
"428 139 OFFCURVE",
"380 100 OFFCURVE",
"297 100 CURVE SMOOTH",
"223 100 OFFCURVE",
"184 138 OFFCURVE",
"174 221 CURVE",
"33 180 LINE",
"57 57 OFFCURVE",
"155 -15 OFFCURVE",
"296 -15 CURVE SMOOTH"
);
}
);
width = 629;
}
);
unicode = 0033;
},
{
glyphname = four;
lastChange = "2021-12-04 17:36:59 +0000";
layers = (
{
layerId = "3A3E882A-FD1E-4FEC-B6F3-0E8C1BCDAD39";
paths = (
{
closed = 1;
nodes = (
"454 0 LINE",
"454 175 LINE",
"571 175 LINE",
"571 254 LINE",
"454 254 LINE",
"454 700 LINE",
"369 700 LINE",
"38 254 LINE",
"38 175 LINE",
"370 175 LINE",
"370 0 LINE"
);
},
{
closed = 1;
nodes = (
"370 585 LINE",
"370 254 LINE",
"129 254 LINE"
);
}
);
width = 609;
},
{
layerId = "541F4A62-0ECD-4B4B-B1D5-38FFB5FB401F";
paths = (
{
closed = 1;
nodes = (
"500 0 LINE",
"500 160 LINE",
"596 160 LINE",
"596 270 LINE",
"500 270 LINE",
"500 700 LINE",
"366 700 LINE",
"23 278 LINE",
"23 160 LINE",
"355 160 LINE",
"355 0 LINE"
);
},
{
closed = 1;
nodes = (
"355 509 LINE",
"355 270 LINE",
"181 270 LINE"
);
}
);
width = 630;
}
);
unicode = 0034;
},
{
glyphname = five;
lastChange = "2021-12-04 17:37:59 +0000";
layers = (
{
layerId = "3A3E882A-FD1E-4FEC-B6F3-0E8C1BCDAD39";
paths = (
{
closed = 1;
nodes = (
"419 -15 OFFCURVE",
"531 78 OFFCURVE",
"531 220 CURVE SMOOTH",
"531 359 OFFCURVE",
"446 467 OFFCURVE",
"312 467 CURVE SMOOTH",
"257 467 OFFCURVE",
"193 452 OFFCURVE",
"158 417 CURVE",
"181 620 LINE",
"486 620 LINE",
"486 700 LINE",
"113 700 LINE",
"72 345 LINE",
"154 321 LINE",
"169 354 OFFCURVE",
"224 395 OFFCURVE",
"293 395 CURVE SMOOTH",
"388 395 OFFCURVE",
"444 324 OFFCURVE",
"444 219 CURVE SMOOTH",
"444 128 OFFCURVE",
"368 55 OFFCURVE",
"284 55 CURVE SMOOTH",
"197 55 OFFCURVE",
"152 102 OFFCURVE",
"136 175 CURVE",
"54 151 LINE",
"85 43 OFFCURVE",
"174 -15 OFFCURVE",
"284 -15 CURVE SMOOTH"
);
}
);
width = 593;
},
{
layerId = "541F4A62-0ECD-4B4B-B1D5-38FFB5FB401F";
paths = (
{
closed = 1;
nodes = (
"463 -15 OFFCURVE",
"581 94 OFFCURVE",
"581 240 CURVE SMOOTH",
"581 377 OFFCURVE",
"501 498 OFFCURVE",
"345 498 CURVE SMOOTH",
"295 498 OFFCURVE",
"253 484 OFFCURVE",
"219 456 CURVE",
"234 585 LINE",
"536 585 LINE",
"536 700 LINE",
"113 700 LINE",
"68 333 LINE",
"196 293 LINE",
"201 338 OFFCURVE",
"256 375 OFFCURVE",
"313 375 CURVE SMOOTH",
"387 375 OFFCURVE",
"436 316 OFFCURVE",
"436 239 CURVE SMOOTH",
"436 161 OFFCURVE",
"373 100 OFFCURVE",
"304 100 CURVE SMOOTH",
"231 100 OFFCURVE",
"193 135 OFFCURVE",
"181 224 CURVE",
"41 183 LINE",
"67 61 OFFCURVE",
"170 -15 OFFCURVE",
"304 -15 CURVE SMOOTH"
);
}
);
width = 628;
}
);
unicode = 0035;
},
{
glyphname = six;
lastChange = "2021-12-04 17:37:59 +0000";
layers = (
{
layerId = "3A3E882A-FD1E-4FEC-B6F3-0E8C1BCDAD39";
paths = (
{
closed = 1;
nodes = (
"448 -12 OFFCURVE",
"548 87 OFFCURVE",
"548 218 CURVE SMOOTH",
"548 348 OFFCURVE",
"460 465 OFFCURVE",
"333 465 CURVE SMOOTH",
"244 465 OFFCURVE",
"178 414 OFFCURVE",
"147 352 CURVE",
"151 542 OFFCURVE",
"217 645 OFFCURVE",
"321 645 CURVE SMOOTH",
"374 645 OFFCURVE",
"414 622 OFFCURVE",
"434 583 CURVE",
"519 608 LINE",
"490 668 OFFCURVE",
"430 715 OFFCURVE",
"331 715 CURVE SMOOTH",
"131 715 OFFCURVE",
"60 549 OFFCURVE",
"60 310 CURVE SMOOTH",
"60 105 OFFCURVE",
"146 -12 OFFCURVE",
"313 -12 CURVE SMOOTH"
);
},
{
closed = 1;
nodes = (
"224 59 OFFCURVE",
"157 123 OFFCURVE",
"157 215 CURVE SMOOTH",
"157 307 OFFCURVE",
"214 386 OFFCURVE",
"313 386 CURVE SMOOTH",
"401 386 OFFCURVE",
"463 307 OFFCURVE",
"463 215 CURVE SMOOTH",
"463 123 OFFCURVE",
"401 59 OFFCURVE",
"313 59 CURVE SMOOTH"
);
}
);
width = 608;
},
{
layerId = "541F4A62-0ECD-4B4B-B1D5-38FFB5FB401F";
paths = (
{
closed = 1;
nodes = (
"479 -15 OFFCURVE",
"599 93 OFFCURVE",
"599 235 CURVE SMOOTH",
"599 385 OFFCURVE",
"486 489 OFFCURVE",
"348 489 CURVE SMOOTH",
"282 489 OFFCURVE",
"236 472 OFFCURVE",
"195 418 CURVE",
"195 552 OFFCURVE",
"272 605 OFFCURVE",
"342 605 CURVE SMOOTH",
"390 605 OFFCURVE",
"428 584 OFFCURVE",
"446 536 CURVE",
"575 587 LINE",
"535 673 OFFCURVE",
"459 715 OFFCURVE",
"352 715 CURVE SMOOTH",
"152 715 OFFCURVE",
"51 599 OFFCURVE",
"51 327 CURVE SMOOTH",
"51 107 OFFCURVE",
"146 -15 OFFCURVE",
"328 -15 CURVE SMOOTH"
);
},
{
closed = 1;
nodes = (
"257 95 OFFCURVE",
"208 152 OFFCURVE",
"208 232 CURVE SMOOTH",
"208 321 OFFCURVE",
"257 373 OFFCURVE",
"331 373 CURVE SMOOTH",
"398 373 OFFCURVE",
"454 317 OFFCURVE",
"454 232 CURVE SMOOTH",
"454 151 OFFCURVE",
"403 95 OFFCURVE",
"331 95 CURVE SMOOTH"
);
}
);
width = 653;
}
);
unicode = 0036;
},
{
glyphname = seven;
lastChange = "2021-12-04 17:37:22 +0000";
layers = (
{
layerId = "3A3E882A-FD1E-4FEC-B6F3-0E8C1BCDAD39";
paths = (
{
closed = 1;
nodes = (
"199 0 LINE",
"487 642 LINE",
"487 700 LINE",
"15 700 LINE",
"15 620 LINE",
"434 620 LINE",
"405 663 LINE",
"95 0 LINE"
);
}
);
width = 521;
},
{
layerId = "541F4A62-0ECD-4B4B-B1D5-38FFB5FB401F";
paths = (
{
closed = 1;
nodes = (
"251 0 LINE",
"547 620 LINE",
"547 700 LINE",
"15 700 LINE",
"15 580 LINE",
"510 580 LINE",
"430 699 LINE",
"85 0 LINE"
);
}
);
width = 575;
}
);
unicode = 0037;
},
{
glyphname = eight;
lastChange = "2021-12-04 17:38:12 +0000";
layers = (
{
layerId = "3A3E882A-FD1E-4FEC-B6F3-0E8C1BCDAD39";
paths = (
{
closed = 1;
nodes = (
"435 -15 OFFCURVE",
"555 67 OFFCURVE",
"555 195 CURVE SMOOTH",
"555 282 OFFCURVE",
"507 362 OFFCURVE",
"432 391 CURVE",
"467 424 OFFCURVE",
"491 473 OFFCURVE",
"491 527 CURVE SMOOTH",
"491 634 OFFCURVE",
"422 715 OFFCURVE",
"307 715 CURVE SMOOTH",
"196 715 OFFCURVE",
"124 634 OFFCURVE",
"124 527 CURVE SMOOTH",
"124 473 OFFCURVE",
"148 424 OFFCURVE",
"183 391 CURVE",
"110 362 OFFCURVE",
"60 282 OFFCURVE",
"60 195 CURVE SMOOTH",
"60 61 OFFCURVE",
"168 -15 OFFCURVE",
"308 -15 CURVE SMOOTH"
);
},
{
closed = 1;
nodes = (
"249 418 OFFCURVE",
"198 466 OFFCURVE",
"198 527 CURVE SMOOTH",
"198 596 OFFCURVE",
"249 640 OFFCURVE",
"308 640 CURVE SMOOTH",
"367 640 OFFCURVE",
"417 596 OFFCURVE",
"417 527 CURVE SMOOTH",
"417 466 OFFCURVE",
"367 418 OFFCURVE",
"308 418 CURVE SMOOTH"
);
},
{
closed = 1;
nodes = (
"213 60 OFFCURVE",
"150 118 OFFCURVE",
"150 195 CURVE SMOOTH",
"150 274 OFFCURVE",
"212 338 OFFCURVE",
"307 338 CURVE SMOOTH",
"403 338 OFFCURVE",
"465 274 OFFCURVE",
"465 195 CURVE SMOOTH",
"465 118 OFFCURVE",
"404 60 OFFCURVE",
"308 60 CURVE SMOOTH"
);
}
);
width = 615;
},
{
layerId = "541F4A62-0ECD-4B4B-B1D5-38FFB5FB401F";
paths = (
{
closed = 1;
nodes = (
"470 -15 OFFCURVE",
"593 83 OFFCURVE",
"593 212 CURVE SMOOTH",
"593 298 OFFCURVE",
"550 357 OFFCURVE",
"479 396 CURVE",
"512 434 OFFCURVE",
"529 470 OFFCURVE",
"529 518 CURVE SMOOTH",
"529 621 OFFCURVE",
"442 715 OFFCURVE",
"315 715 CURVE SMOOTH",
"191 715 OFFCURVE",
"102 619 OFFCURVE",
"102 518 CURVE SMOOTH",
"102 470 OFFCURVE",
"119 434 OFFCURVE",
"152 396 CURVE",
"82 356 OFFCURVE",
"38 297 OFFCURVE",
"38 212 CURVE SMOOTH",
"38 75 OFFCURVE",
"151 -15 OFFCURVE",
"316 -15 CURVE SMOOTH"
);
},
{
closed = 1;
nodes = (
"272 438 OFFCURVE",
"236 469 OFFCURVE",
"236 518 CURVE SMOOTH",
"236 572 OFFCURVE",
"270 600 OFFCURVE",
"316 600 CURVE SMOOTH",
"362 600 OFFCURVE",
"395 572 OFFCURVE",
"395 518 CURVE SMOOTH",
"395 469 OFFCURVE",
"359 438 OFFCURVE",
"316 438 CURVE SMOOTH"
);
},
{
closed = 1;
nodes = (
"239 100 OFFCURVE",
"188 143 OFFCURVE",
"188 212 CURVE SMOOTH",
"188 284 OFFCURVE",
"240 323 OFFCURVE",
"315 323 CURVE SMOOTH",
"391 323 OFFCURVE",
"443 284 OFFCURVE",
"443 212 CURVE SMOOTH",
"443 143 OFFCURVE",
"393 100 OFFCURVE",
"316 100 CURVE SMOOTH"
);
}
);
width = 631;
}
);
unicode = 0038;
},
{
glyphname = nine;
lastChange = "2021-12-04 17:38:19 +0000";
layers = (
{
layerId = "3A3E882A-FD1E-4FEC-B6F3-0E8C1BCDAD39";
paths = (
{
closed = 1;
nodes = (
"295 0 LINE",
"346 75 OFFCURVE",
"415 189 OFFCURVE",
"452 254 CURVE SMOOTH",
"505 347 OFFCURVE",
"538 401 OFFCURVE",
"538 475 CURVE SMOOTH",
"538 607 OFFCURVE",
"438 715 OFFCURVE",
"299 715 CURVE SMOOTH",
"170 715 OFFCURVE",
"60 613 OFFCURVE",
"60 477 CURVE SMOOTH",
"60 345 OFFCURVE",
"170 237 OFFCURVE",
"299 237 CURVE SMOOTH",
"318 237 OFFCURVE",
"335 239 OFFCURVE",
"352 243 CURVE",
"261 102 OFFCURVE",
"206 20 OFFCURVE",
"191 0 CURVE"
);
},
{
closed = 1;
nodes = (
"215 322 OFFCURVE",
"145 393 OFFCURVE",
"145 477 CURVE SMOOTH",
"145 560 OFFCURVE",
"210 630 OFFCURVE",
"299 630 CURVE SMOOTH",
"385 630 OFFCURVE",
"454 562 OFFCURVE",
"454 477 CURVE SMOOTH",
"454 395 OFFCURVE",
"387 322 OFFCURVE",
"299 322 CURVE SMOOTH"
);
}
);
width = 598;
},
{
layerId = "541F4A62-0ECD-4B4B-B1D5-38FFB5FB401F";
paths = (
{
closed = 1;
nodes = (
"330 0 LINE",
"387 96 OFFCURVE",
"447 198 OFFCURVE",
"485 264 CURVE SMOOTH",
"540 360 OFFCURVE",
"557 398 OFFCURVE",
"557 475 CURVE SMOOTH",
"557 602 OFFCURVE",
"449 715 OFFCURVE",
"297 715 CURVE SMOOTH",
"148 715 OFFCURVE",
"38 600 OFFCURVE",
"38 477 CURVE SMOOTH",
"38 355 OFFCURVE",
"151 237 OFFCURVE",
"297 237 CURVE SMOOTH",
"298 237 OFFCURVE",
"318 237 OFFCURVE",
"319 237 CURVE",
"241 118 OFFCURVE",
"198 53 OFFCURVE",
"162 0 CURVE"
);
},
{
closed = 1;
nodes = (
"230 362 OFFCURVE",
"183 404 OFFCURVE",
"183 477 CURVE SMOOTH",
"183 532 OFFCURVE",
"227 590 OFFCURVE",
"297 590 CURVE SMOOTH",
"366 590 OFFCURVE",
"413 531 OFFCURVE",
"413 477 CURVE SMOOTH",
"413 403 OFFCURVE",
"365 362 OFFCURVE",
"297 362 CURVE SMOOTH"
);
}
);
width = 602;
}
);
unicode = 0039;
},
{
glyphname = period;
lastChange = "2021-12-04 18:53:34 +0000";
layers = (
{
layerId = "3A3E882A-FD1E-4FEC-B6F3-0E8C1BCDAD39";
paths = (
{
closed = 1;
nodes = (
"138 -15 OFFCURVE",
"167 14 OFFCURVE",
"167 49 CURVE SMOOTH",
"167 84 OFFCURVE",
"139 114 OFFCURVE",
"103 114 CURVE SMOOTH",
"67 114 OFFCURVE",
"38 85 OFFCURVE",
"38 49 CURVE SMOOTH",
"38 12 OFFCURVE",
"70 -15 OFFCURVE",
"103 -15 CURVE SMOOTH"
);
}
);
userData = {
assembly = "NPUSHB[ ]	/* 23 values pushed */\0120 1 1 0 97 2 1 0 0 41 0 78 1 0 7 5 0 11 1 11 3 8 22 \012CALL[ ]	/* CallFunction */";
};
width = 205;
},
{
layerId = "541F4A62-0ECD-4B4B-B1D5-38FFB5FB401F";
paths = (
{
closed = 1;
nodes = (
"154 -15 OFFCURVE",
"193 24 OFFCURVE",
"193 69 CURVE SMOOTH",
"193 116 OFFCURVE",
"155 154 OFFCURVE",
"109 154 CURVE SMOOTH",
"62 154 OFFCURVE",
"24 116 OFFCURVE",
"24 69 CURVE SMOOTH",
"24 23 OFFCURVE",
"63 -15 OFFCURVE",
"109 -15 CURVE SMOOTH"
);
}
);
width = 217;
}
);
note = period;
rightKerningGroup = quotesinglbase;
unicode = 002E;
},
{
glyphname = comma;
lastChange = "2021-12-04 18:53:34 +0000";
layers = (
{
layerId = "3A3E882A-FD1E-4FEC-B6F3-0E8C1BCDAD39";
paths = (
{
closed = 1;
nodes = (
"100 -136 LINE",
"162 25 LINE SMOOTH",
"165 34 OFFCURVE",
"167 42 OFFCURVE",
"167 50 CURVE SMOOTH",
"167 85 OFFCURVE",
"138 114 OFFCURVE",
"102 114 CURVE SMOOTH",
"67 114 OFFCURVE",
"38 85 OFFCURVE",
"38 50 CURVE SMOOTH",
"38 18 OFFCURVE",
"61 -9 OFFCURVE",
"92 -14 CURVE",
"45 -136 LINE"
);
}
);
userData = {
assembly = "NPUSHB[ ]	/* 33 values pushed */\0121 1 1 0 1 76 0 0 1 1 0 89 0 0 0 1 95 2 1 1 0 1 79 0 0 0 13 0 13 38 3 8 23 \012CALL[ ]	/* CallFunction */";
};
width = 205;
},
{
layerId = "541F4A62-0ECD-4B4B-B1D5-38FFB5FB401F";
paths = (
{
closed = 1;
nodes = (
"112 -136 LINE",
"183 29 LINE SMOOTH",
"189 42 OFFCURVE",
"193 61 OFFCURVE",
"193 70 CURVE SMOOTH",
"193 116 OFFCURVE",
"155 154 OFFCURVE",
"108 154 CURVE SMOOTH",
"62 154 OFFCURVE",
"24 116 OFFCURVE",
"24 70 CURVE SMOOTH",
"24 37 OFFCURVE",
"48 -2 OFFCURVE",
"82 -8 CURVE",
"29 -136 LINE"
);
}
);
width = 217;
}
);
note = comma;
rightKerningGroup = quotesinglbase;
unicode = 002C;
},
{
glyphname = colon;
lastChange = "2021-12-04 18:08:45 +0000";
layers = (
{
layerId = "3A3E882A-FD1E-4FEC-B6F3-0E8C1BCDAD39";
paths = (
{
closed = 1;
nodes = (
"138 386 OFFCURVE",
"167 415 OFFCURVE",
"167 451 CURVE SMOOTH",
"167 486 OFFCURVE",
"138 515 OFFCURVE",
"102 515 CURVE SMOOTH",
"67 515 OFFCURVE",
"38 486 OFFCURVE",
"38 451 CURVE SMOOTH",
"38 415 OFFCURVE",
"67 386 OFFCURVE",
"102 386 CURVE SMOOTH"
);
},
{
closed = 1;
nodes = (
"138 -15 OFFCURVE",
"167 14 OFFCURVE",
"167 49 CURVE SMOOTH",
"167 85 OFFCURVE",
"138 114 OFFCURVE",
"102 114 CURVE SMOOTH",
"67 114 OFFCURVE",
"38 85 OFFCURVE",
"38 49 CURVE SMOOTH",
"38 14 OFFCURVE",
"67 -15 OFFCURVE",
"102 -15 CURVE SMOOTH"
);
}
);
userData = {
assembly = "NPUSHB[ ]	/* 42 values pushed */\0124 1 0 0 1 97 0 1 1 43 77 0 3 3 2 97 5 1 2 2 41 2 78 13 12 1 0 19 17 12 23 13 23 7 5 0 11 1 11 6 8 22 \012CALL[ ]	/* CallFunction */";
};
width = 205;
},
{
layerId = "541F4A62-0ECD-4B4B-B1D5-38FFB5FB401F";
paths = (
{
closed = 1;
nodes = (
"155 356 OFFCURVE",
"193 394 OFFCURVE",
"193 441 CURVE SMOOTH",
"193 487 OFFCURVE",
"155 525 OFFCURVE",
"108 525 CURVE SMOOTH",
"62 525 OFFCURVE",
"24 487 OFFCURVE",
"24 441 CURVE SMOOTH",
"24 394 OFFCURVE",
"62 356 OFFCURVE",
"108 356 CURVE SMOOTH"
);
},
{
closed = 1;
nodes = (
"155 -15 OFFCURVE",
"193 23 OFFCURVE",
"193 69 CURVE SMOOTH",
"193 116 OFFCURVE",
"155 154 OFFCURVE",
"108 154 CURVE SMOOTH",
"62 154 OFFCURVE",
"24 116 OFFCURVE",
"24 69 CURVE SMOOTH",
"24 23 OFFCURVE",
"62 -15 OFFCURVE",
"108 -15 CURVE SMOOTH"
);
}
);
width = 217;
}
);
note = colon;
unicode = 003A;
},
{
glyphname = semicolon;
lastChange = "2021-12-04 18:08:45 +0000";
layers = (
{
layerId = "3A3E882A-FD1E-4FEC-B6F3-0E8C1BCDAD39";
paths = (
{
closed = 1;
nodes = (
"138 386 OFFCURVE",
"167 415 OFFCURVE",
"167 451 CURVE SMOOTH",
"167 486 OFFCURVE",
"138 515 OFFCURVE",
"102 515 CURVE SMOOTH",
"67 515 OFFCURVE",
"38 486 OFFCURVE",
"38 451 CURVE SMOOTH",
"38 415 OFFCURVE",
"67 386 OFFCURVE",
"102 386 CURVE SMOOTH"
);
},
{
closed = 1;
nodes = (
"100 -136 LINE",
"162 25 LINE SMOOTH",
"165 34 OFFCURVE",
"167 42 OFFCURVE",
"167 50 CURVE SMOOTH",
"167 85 OFFCURVE",
"137 114 OFFCURVE",
"102 114 CURVE SMOOTH",
"67 114 OFFCURVE",
"38 85 OFFCURVE",
"38 50 CURVE SMOOTH",
"38 18 OFFCURVE",
"61 -9 OFFCURVE",
"92 -14 CURVE",
"45 -136 LINE"
);
}
);
userData = {
assembly = "NPUSHB[ ]	/* 45 values pushed */\01213 1 3 2 1 76 0 2 5 1 3 2 3 99 4 1 0 0 1 97 0 1 1 43 0 78 12 12 1 0 12 25 12 25 20 18 7 5 0 11 1 11 6 8 22 \012CALL[ ]	/* CallFunction */";
};
width = 205;
},
{
layerId = "541F4A62-0ECD-4B4B-B1D5-38FFB5FB401F";
paths = (
{
closed = 1;
nodes = (
"155 356 OFFCURVE",
"193 394 OFFCURVE",
"193 441 CURVE SMOOTH",
"193 487 OFFCURVE",
"155 525 OFFCURVE",
"108 525 CURVE SMOOTH",
"62 525 OFFCURVE",
"24 487 OFFCURVE",
"24 441 CURVE SMOOTH",
"24 394 OFFCURVE",
"62 356 OFFCURVE",
"108 356 CURVE SMOOTH"
);
},
{
closed = 1;
nodes = (
"112 -136 LINE",
"183 29 LINE SMOOTH",
"189 42 OFFCURVE",
"193 61 OFFCURVE",
"193 70 CURVE SMOOTH",
"193 116 OFFCURVE",
"155 154 OFFCURVE",
"108 154 CURVE SMOOTH",
"62 154 OFFCURVE",
"24 116 OFFCURVE",
"24 70 CURVE SMOOTH",
"24 37 OFFCURVE",
"48 -2 OFFCURVE",
"82 -8 CURVE",
"29 -136 LINE"
);
}
);
width = 217;
}
);
note = semicolon;
unicode = 003B;
},
{
glyphname = ellipsis;
lastChange = "2021-12-04 18:53:34 +0000";
layers = (
{
layerId = "3A3E882A-FD1E-4FEC-B6F3-0E8C1BCDAD39";
paths = (
{
closed = 1;
nodes = (
"153 -15 OFFCURVE",
"182 14 OFFCURVE",
"182 49 CURVE SMOOTH",
"182 85 OFFCURVE",
"153 114 OFFCURVE",
"117 114 CURVE SMOOTH",
"82 114 OFFCURVE",
"53 85 OFFCURVE",
"53 49 CURVE SMOOTH",
"53 14 OFFCURVE",
"82 -15 OFFCURVE",
"117 -15 CURVE SMOOTH"
);
},
{
closed = 1;
nodes = (
"384 -15 OFFCURVE",
"413 14 OFFCURVE",
"413 49 CURVE SMOOTH",
"413 85 OFFCURVE",
"384 114 OFFCURVE",
"348 114 CURVE SMOOTH",
"312 114 OFFCURVE",
"284 85 OFFCURVE",
"284 49 CURVE SMOOTH",
"284 14 OFFCURVE",
"312 -15 OFFCURVE",
"348 -15 CURVE SMOOTH"
);
},
{
closed = 1;
nodes = (
"614 -15 OFFCURVE",
"643 14 OFFCURVE",
"643 49 CURVE SMOOTH",
"643 85 OFFCURVE",
"614 114 OFFCURVE",
"579 114 CURVE SMOOTH",
"543 114 OFFCURVE",
"514 85 OFFCURVE",
"514 49 CURVE SMOOTH",
"514 14 OFFCURVE",
"543 -15 OFFCURVE",
"579 -15 CURVE SMOOTH"
);
}
);
userData = {
assembly = "NPUSHB[ ]	/* 45 values pushed */\0125 3 2 1 1 0 97 8 4 7 2 6 5 0 0 41 0 78 25 24 13 12 1 0 31 29 24 35 25 35 19 17 12 23 13 23 7 5 0 11 1 11 9 8 22 \012CALL[ ]	/* CallFunction */";
};
width = 696;
},
{
layerId = "541F4A62-0ECD-4B4B-B1D5-38FFB5FB401F";
paths = (
{
closed = 1;
nodes = (
"172 -15 OFFCURVE",
"210 23 OFFCURVE",
"210 69 CURVE SMOOTH",
"210 116 OFFCURVE",
"172 154 OFFCURVE",
"125 154 CURVE SMOOTH",
"79 154 OFFCURVE",
"41 116 OFFCURVE",
"41 69 CURVE SMOOTH",
"41 23 OFFCURVE",
"79 -15 OFFCURVE",
"125 -15 CURVE SMOOTH"
);
},
{
closed = 1;
nodes = (
"403 -15 OFFCURVE",
"441 23 OFFCURVE",
"441 69 CURVE SMOOTH",
"441 116 OFFCURVE",
"403 154 OFFCURVE",
"356 154 CURVE SMOOTH",
"309 154 OFFCURVE",
"272 116 OFFCURVE",
"272 69 CURVE SMOOTH",
"272 23 OFFCURVE",
"310 -15 OFFCURVE",
"356 -15 CURVE SMOOTH"
);
},
{
closed = 1;
nodes = (
"633 -15 OFFCURVE",
"671 23 OFFCURVE",
"671 69 CURVE SMOOTH",
"671 116 OFFCURVE",
"633 154 OFFCURVE",
"587 154 CURVE SMOOTH",
"540 154 OFFCURVE",
"502 116 OFFCURVE",
"502 69 CURVE SMOOTH",
"502 23 OFFCURVE",
"540 -15 OFFCURVE",
"587 -15 CURVE SMOOTH"
);
}
);
width = 712;
}
);
note = ellipsis;
rightKerningGroup = quotesinglbase;
unicode = 2026;
},
{
glyphname = exclam;
lastChange = "2021-12-04 18:32:11 +0000";
layers = (
{
layerId = "3A3E882A-FD1E-4FEC-B6F3-0E8C1BCDAD39";
paths = (
{
closed = 1;
nodes = (
"167 190 LINE",
"185 500 LINE",
"185 700 LINE",
"96 700 LINE",
"96 500 LINE",
"114 190 LINE"
);
},
{
closed = 1;
nodes = (
"176 -15 OFFCURVE",
"205 14 OFFCURVE",
"205 49 CURVE SMOOTH",
"205 84 OFFCURVE",
"177 114 OFFCURVE",
"141 114 CURVE SMOOTH",
"105 114 OFFCURVE",
"76 85 OFFCURVE",
"76 49 CURVE SMOOTH",
"76 12 OFFCURVE",
"108 -15 OFFCURVE",
"141 -15 CURVE SMOOTH"
);
}
);
userData = {
assembly = "NPUSHB[ ]	/* 41 values pushed */\0124 1 1 1 0 95 0 0 0 34 77 0 3 3 2 97 5 1 2 2 41 2 78 7 6 0 0 13 11 6 17 7 17 0 5 0 5 18 6 8 23 \012CALL[ ]	/* CallFunction */";
};
width = 281;
},
{
layerId = "541F4A62-0ECD-4B4B-B1D5-38FFB5FB401F";
paths = (
{
closed = 1;
nodes = (
"174 209 LINE",
"203 525 LINE",
"203 700 LINE",
"54 700 LINE",
"54 525 LINE",
"83 209 LINE"
);
},
{
closed = 1;
nodes = (
"174 -15 OFFCURVE",
"213 24 OFFCURVE",
"213 69 CURVE SMOOTH",
"213 116 OFFCURVE",
"175 154 OFFCURVE",
"129 154 CURVE SMOOTH",
"82 154 OFFCURVE",
"44 116 OFFCURVE",
"44 69 CURVE SMOOTH",
"44 23 OFFCURVE",
"83 -15 OFFCURVE",
"129 -15 CURVE SMOOTH"
);
}
);
width = 257;
}
);
note = exclam;
unicode = 0021;
},
{
glyphname = exclamdown;
lastChange = "2021-12-04 18:32:11 +0000";
layers = (
{
layerId = "3A3E882A-FD1E-4FEC-B6F3-0E8C1BCDAD39";
paths = (
{
closed = 1;
nodes = (
"96 0 LINE",
"96 -200 LINE",
"185 -200 LINE",
"185 0 LINE",
"167 310 LINE",
"114 310 LINE"
);
},
{
closed = 1;
nodes = (
"108 515 OFFCURVE",
"76 488 OFFCURVE",
"76 451 CURVE SMOOTH",
"76 415 OFFCURVE",
"105 386 OFFCURVE",
"141 386 CURVE SMOOTH",
"177 386 OFFCURVE",
"205 416 OFFCURVE",
"205 451 CURVE SMOOTH",
"205 486 OFFCURVE",
"176 515 OFFCURVE",
"141 515 CURVE SMOOTH"
);
}
);
userData = {
assembly = "MPPEM[ ]	/* MeasurePixelPerEm */\012PUSHB[ ]	/* 1 value pushed */\01233 \012LT[ ]	/* LessThan */\012IF[ ]	/* If */\012NPUSHB[ ]	/* 23 values pushed */\0124 1 0 0 1 97 0 1 1 43 77 0 2 2 3 95 5 1 3 3 39 3 78 \012ELSE[ ]	/* Else */\012NPUSHB[ ]	/* 21 values pushed */\0120 1 4 1 0 2 1 0 105 0 2 2 3 95 5 1 3 3 39 3 78 \012EIF[ ]	/* EndIf */\012NPUSHB[ ]	/* 19 values pushed */\01212 12 1 0 12 17 12 17 15 14 7 5 0 11 1 11 6 8 22 \012CALL[ ]	/* CallFunction */";
};
width = 281;
},
{
layerId = "541F4A62-0ECD-4B4B-B1D5-38FFB5FB401F";
paths = (
{
closed = 1;
nodes = (
"54 -15 LINE",
"54 -190 LINE",
"203 -190 LINE",
"203 -15 LINE",
"174 301 LINE",
"83 301 LINE"
);
},
{
closed = 1;
nodes = (
"83 525 OFFCURVE",
"44 487 OFFCURVE",
"44 441 CURVE SMOOTH",
"44 394 OFFCURVE",
"82 356 OFFCURVE",
"129 356 CURVE SMOOTH",
"175 356 OFFCURVE",
"213 394 OFFCURVE",
"213 441 CURVE SMOOTH",
"213 486 OFFCURVE",
"174 525 OFFCURVE",
"129 525 CURVE SMOOTH"
);
}
);
width = 257;
}
);
note = exclamdown;
unicode = 00A1;
},
{
glyphname = question;
lastChange = "2021-12-04 18:34:02 +0000";
layers = (
{
layerId = "3A3E882A-FD1E-4FEC-B6F3-0E8C1BCDAD39";
paths = (
{
closed = 1;
nodes = (
"269 180 LINE",
"269 249 LINE SMOOTH",
"269 301 OFFCURVE",
"293 319 OFFCURVE",
"346 353 CURVE SMOOTH",
"389 381 OFFCURVE",
"429 415 OFFCURVE",
"453 468 CURVE SMOOTH",
"465 495 OFFCURVE",
"471 522 OFFCURVE",
"471 551 CURVE SMOOTH",
"471 627 OFFCURVE",
"426 674 OFFCURVE",
"362 698 CURVE SMOOTH",
"330 709 OFFCURVE",
"297 715 OFFCURVE",
"262 715 CURVE SMOOTH",
"149 715 OFFCURVE",
"61 655 OFFCURVE",
"41 559 CURVE",
"123 536 LINE",
"135 596 OFFCURVE",
"175 645 OFFCURVE",
"258 645 CURVE SMOOTH",
"331 645 OFFCURVE",
"383 607 OFFCURVE",
"383 543 CURVE SMOOTH",
"383 490 OFFCURVE",
"345 443 OFFCURVE",
"297 412 CURVE SMOOTH",
"246 380 OFFCURVE",
"212 353 OFFCURVE",
"196 318 CURVE SMOOTH",
"187 300 OFFCURVE",
"183 278 OFFCURVE",
"183 252 CURVE SMOOTH",
"183 180 LINE"
);
},
{
closed = 1;
nodes = (
"263 -15 OFFCURVE",
"292 14 OFFCURVE",
"292 49 CURVE SMOOTH",
"292 84 OFFCURVE",
"264 114 OFFCURVE",
"228 114 CURVE SMOOTH",
"192 114 OFFCURVE",
"163 85 OFFCURVE",
"163 49 CURVE SMOOTH",
"163 12 OFFCURVE",
"195 -15 OFFCURVE",
"228 -15 CURVE SMOOTH"
);
}
);
userData = {
assembly = "NPUSHB[ ]	/* 57 values pushed */\01216 15 2 2 0 1 76 5 1 2 0 4 0 2 4 128 0 0 0 1 97 0 1 1 40 77 0 4 4 3 97 6 1 3 3 41 3 78 34 33 0 0 40 38 33 44 34 44 0 32 0 32 38 42 7 8 24 \012CALL[ ]	/* CallFunction */";
};
width = 522;
},
{
layerId = "541F4A62-0ECD-4B4B-B1D5-38FFB5FB401F";
paths = (
{
closed = 1;
nodes = (
"320 208 LINE",
"320 249 LINE SMOOTH",
"320 288 OFFCURVE",
"339 302 OFFCURVE",
"393 336 CURVE SMOOTH",
"442 368 OFFCURVE",
"487 386 OFFCURVE",
"511 440 CURVE SMOOTH",
"525 472 OFFCURVE",
"532 500 OFFCURVE",
"532 531 CURVE SMOOTH",
"532 608 OFFCURVE",
"488 665 OFFCURVE",
"403 697 CURVE SMOOTH",
"368 710 OFFCURVE",
"330 715 OFFCURVE",
"293 715 CURVE SMOOTH",
"158 715 OFFCURVE",
"53 639 OFFCURVE",
"40 526 CURVE",
"180 487 LINE",
"188 567 OFFCURVE",
"223 595 OFFCURVE",
"289 595 CURVE SMOOTH",
"349 595 OFFCURVE",
"384 575 OFFCURVE",
"384 523 CURVE SMOOTH",
"384 481 OFFCURVE",
"357 458 OFFCURVE",
"312 429 CURVE SMOOTH",
"256 394 OFFCURVE",
"227 362 OFFCURVE",
"210 327 CURVE SMOOTH",
"199 304 OFFCURVE",
"194 282 OFFCURVE",
"194 252 CURVE SMOOTH",
"194 208 LINE"
);
},
{
closed = 1;
nodes = (
"301 -15 OFFCURVE",
"340 24 OFFCURVE",
"340 69 CURVE SMOOTH",
"340 116 OFFCURVE",
"302 159 OFFCURVE",
"256 159 CURVE SMOOTH",
"209 159 OFFCURVE",
"171 116 OFFCURVE",
"171 69 CURVE SMOOTH",
"171 23 OFFCURVE",
"210 -15 OFFCURVE",
"256 -15 CURVE SMOOTH"
);
}
);
width = 582;
}
);
note = question;
unicode = 003F;
},
{
glyphname = questiondown;
lastChange = "2021-12-04 18:34:05 +0000";
layers = (
{
layerId = "3A3E882A-FD1E-4FEC-B6F3-0E8C1BCDAD39";
paths = (
{
closed = 1;
nodes = (
"251 320 LINE",
"251 251 LINE SMOOTH",
"251 199 OFFCURVE",
"227 181 OFFCURVE",
"174 147 CURVE SMOOTH",
"131 119 OFFCURVE",
"91 85 OFFCURVE",
"67 32 CURVE SMOOTH",
"55 5 OFFCURVE",
"49 -22 OFFCURVE",
"49 -51 CURVE SMOOTH",
"49 -127 OFFCURVE",
"93 -176 OFFCURVE",
"158 -198 CURVE SMOOTH",
"190 -209 OFFCURVE",
"223 -215 OFFCURVE",
"258 -215 CURVE SMOOTH",
"371 -215 OFFCURVE",
"459 -155 OFFCURVE",
"479 -59 CURVE",
"397 -36 LINE",
"385 -96 OFFCURVE",
"345 -145 OFFCURVE",
"262 -145 CURVE SMOOTH",
"189 -145 OFFCURVE",
"137 -107 OFFCURVE",
"137 -43 CURVE SMOOTH",
"137 10 OFFCURVE",
"175 58 OFFCURVE",
"223 88 CURVE SMOOTH",
"274 120 OFFCURVE",
"307 148 OFFCURVE",
"324 182 CURVE SMOOTH",
"333 200 OFFCURVE",
"337 222 OFFCURVE",
"337 248 CURVE SMOOTH",
"337 320 LINE"
);
},
{
closed = 1;
nodes = (
"257 515 OFFCURVE",
"228 486 OFFCURVE",
"228 451 CURVE SMOOTH",
"228 416 OFFCURVE",
"256 386 OFFCURVE",
"292 386 CURVE SMOOTH",
"328 386 OFFCURVE",
"357 415 OFFCURVE",
"357 451 CURVE SMOOTH",
"357 488 OFFCURVE",
"325 515 OFFCURVE",
"292 515 CURVE SMOOTH"
);
}
);
userData = {
assembly = "PUSHB[ ]	/* 7 values pushed */\01242 41 2 4 3 1 76 \012MPPEM[ ]	/* MeasurePixelPerEm */\012PUSHB[ ]	/* 1 value pushed */\01233 \012LT[ ]	/* LessThan */\012IF[ ]	/* If */\012NPUSHB[ ]	/* 31 values pushed */\0120 3 0 4 0 3 4 128 5 1 0 0 1 97 0 1 1 43 77 0 4 4 2 98 6 1 2 2 39 2 78 \012ELSE[ ]	/* Else */\012MPPEM[ ]	/* MeasurePixelPerEm */\012PUSHB[ ]	/* 1 value pushed */\01239 \012LT[ ]	/* LessThan */\012IF[ ]	/* If */\012NPUSHB[ ]	/* 29 values pushed */\0120 3 0 4 0 3 4 128 0 1 5 1 0 3 1 0 105 0 4 4 2 98 6 1 2 2 39 2 78 \012ELSE[ ]	/* Else */\012NPUSHB[ ]	/* 34 values pushed */\0120 3 0 4 0 3 4 128 0 1 5 1 0 3 1 0 105 0 4 2 2 4 89 0 4 4 2 98 6 1 2 4 2 82 \012EIF[ ]	/* EndIf */\012EIF[ ]	/* EndIf */\012NPUSHB[ ]	/* 21 values pushed */\01213 12 1 0 38 36 26 25 12 44 13 44 7 5 0 11 1 11 7 8 22 \012CALL[ ]	/* CallFunction */";
};
width = 520;
},
{
layerId = "541F4A62-0ECD-4B4B-B1D5-38FFB5FB401F";
paths = (
{
closed = 1;
nodes = (
"262 302 LINE",
"262 261 LINE SMOOTH",
"262 222 OFFCURVE",
"242 209 OFFCURVE",
"189 174 CURVE SMOOTH",
"140 142 OFFCURVE",
"95 124 OFFCURVE",
"71 70 CURVE SMOOTH",
"57 38 OFFCURVE",
"50 10 OFFCURVE",
"50 -21 CURVE SMOOTH",
"50 -98 OFFCURVE",
"94 -155 OFFCURVE",
"179 -187 CURVE SMOOTH",
"214 -200 OFFCURVE",
"252 -205 OFFCURVE",
"289 -205 CURVE SMOOTH",
"424 -205 OFFCURVE",
"529 -129 OFFCURVE",
"542 -16 CURVE",
"402 23 LINE",
"394 -57 OFFCURVE",
"359 -85 OFFCURVE",
"293 -85 CURVE SMOOTH",
"233 -85 OFFCURVE",
"198 -65 OFFCURVE",
"198 -13 CURVE SMOOTH",
"198 29 OFFCURVE",
"225 53 OFFCURVE",
"270 81 CURVE SMOOTH",
"326 116 OFFCURVE",
"355 148 OFFCURVE",
"372 183 CURVE SMOOTH",
"383 206 OFFCURVE",
"388 228 OFFCURVE",
"388 258 CURVE SMOOTH",
"388 302 LINE"
);
},
{
closed = 1;
nodes = (
"281 525 OFFCURVE",
"242 486 OFFCURVE",
"242 441 CURVE SMOOTH",
"242 394 OFFCURVE",
"280 351 OFFCURVE",
"326 351 CURVE SMOOTH",
"373 351 OFFCURVE",
"411 394 OFFCURVE",
"411 441 CURVE SMOOTH",
"411 487 OFFCURVE",
"372 525 OFFCURVE",
"326 525 CURVE SMOOTH"
);
}
);
width = 582;
}
);
note = questiondown;
unicode = 00BF;
},
{
glyphname = periodcentered;
lastChange = "2021-12-04 18:34:16 +0000";
layers = (
{
layerId = "3A3E882A-FD1E-4FEC-B6F3-0E8C1BCDAD39";
paths = (
{
closed = 1;
nodes = (
"153 183 OFFCURVE",
"182 212 OFFCURVE",
"182 248 CURVE SMOOTH",
"182 283 OFFCURVE",
"153 312 OFFCURVE",
"117 312 CURVE SMOOTH",
"82 312 OFFCURVE",
"53 283 OFFCURVE",
"53 248 CURVE SMOOTH",
"53 212 OFFCURVE",
"82 183 OFFCURVE",
"117 183 CURVE SMOOTH"
);
}
);
userData = {
assembly = "NPUSHB[ ]	/* 28 values pushed */\0120 1 0 0 1 89 0 1 1 0 97 2 1 0 1 0 81 1 0 7 5 0 11 1 11 3 8 22 \012CALL[ ]	/* CallFunction */";
};
width = 235;
},
{
layerId = "541F4A62-0ECD-4B4B-B1D5-38FFB5FB401F";
paths = (
{
closed = 1;
nodes = (
"184 163 OFFCURVE",
"222 201 OFFCURVE",
"222 248 CURVE SMOOTH",
"222 294 OFFCURVE",
"184 332 OFFCURVE",
"137 332 CURVE SMOOTH",
"91 332 OFFCURVE",
"53 294 OFFCURVE",
"53 248 CURVE SMOOTH",
"53 201 OFFCURVE",
"91 163 OFFCURVE",
"137 163 CURVE SMOOTH"
);
}
);
width = 275;
}
);
note = periodcentered;
unicode = 00B7;
},
{
glyphname = bullet;
lastChange = "2021-12-04 18:34:16 +0000";
layers = (
{
layerId = "3A3E882A-FD1E-4FEC-B6F3-0E8C1BCDAD39";
paths = (
{
closed = 1;
nodes = (
"280 88 OFFCURVE",
"333 120 OFFCURVE",
"363 171 CURVE SMOOTH",
"378 196 OFFCURVE",
"385 224 OFFCURVE",
"385 254 CURVE SMOOTH",
"385 315 OFFCURVE",
"353 368 OFFCURVE",
"303 398 CURVE SMOOTH",
"278 413 OFFCURVE",
"250 420 OFFCURVE",
"219 420 CURVE SMOOTH",
"158 420 OFFCURVE",
"106 388 OFFCURVE",
"76 338 CURVE SMOOTH",
"61 313 OFFCURVE",
"53 285 OFFCURVE",
"53 254 CURVE SMOOTH",
"53 194 OFFCURVE",
"86 141 OFFCURVE",
"136 111 CURVE SMOOTH",
"161 96 OFFCURVE",
"188 88 OFFCURVE",
"219 88 CURVE SMOOTH"
);
}
);
userData = {
assembly = "NPUSHB[ ]	/* 28 values pushed */\0120 1 0 0 1 89 0 1 1 0 97 2 1 0 1 0 81 1 0 9 7 0 15 1 15 3 8 22 \012CALL[ ]	/* CallFunction */";
};
width = 438;
},
{
layerId = "541F4A62-0ECD-4B4B-B1D5-38FFB5FB401F";
paths = (
{
closed = 1;
nodes = (
"305 68 OFFCURVE",
"367 103 OFFCURVE",
"400 161 CURVE SMOOTH",
"416 189 OFFCURVE",
"425 220 OFFCURVE",
"425 254 CURVE SMOOTH",
"425 320 OFFCURVE",
"390 381 OFFCURVE",
"333 415 CURVE SMOOTH",
"306 431 OFFCURVE",
"274 440 OFFCURVE",
"239 440 CURVE SMOOTH",
"173 440 OFFCURVE",
"114 405 OFFCURVE",
"79 348 CURVE SMOOTH",
"62 320 OFFCURVE",
"53 288 OFFCURVE",
"53 254 CURVE SMOOTH",
"53 189 OFFCURVE",
"89 129 OFFCURVE",
"146 94 CURVE SMOOTH",
"174 77 OFFCURVE",
"206 68 OFFCURVE",
"239 68 CURVE SMOOTH"
);
}
);
width = 478;
}
);
note = bullet;
unicode = 2022;
},
{
glyphname = asterisk;
lastChange = "2021-12-04 18:34:27 +0000";
layers = (
{
layerId = "3A3E882A-FD1E-4FEC-B6F3-0E8C1BCDAD39";
paths = (
{
closed = 1;
nodes = (
"215 507 LINE",
"278 421 LINE",
"324 455 LINE",
"261 541 LINE",
"363 573 LINE",
"345 628 LINE",
"244 595 LINE",
"244 701 LINE",
"187 701 LINE",
"187 595 LINE",
"86 628 LINE",
"68 573 LINE",
"169 541 LINE",
"107 455 LINE",
"153 421 LINE"
);
}
);
userData = {
assembly = "NPUSHB[ ]	/* 25 values pushed */\01214 13 12 11 10 9 8 5 4 3 2 1 12 0 73 0 0 0 34 0 78 22 1 8 23 \012CALL[ ]	/* CallFunction */";
};
width = 433;
},
{
layerId = "541F4A62-0ECD-4B4B-B1D5-38FFB5FB401F";
paths = (
{
closed = 1;
nodes = (
"222 452 LINE",
"281 372 LINE",
"359 430 LINE",
"301 509 LINE",
"395 539 LINE",
"365 632 LINE",
"271 602 LINE",
"271 700 LINE",
"174 700 LINE",
"174 602 LINE",
"80 632 LINE",
"50 539 LINE",
"144 509 LINE",
"86 430 LINE",
"164 372 LINE"
);
}
);
width = 446;
}
);
note = asterisk;
unicode = 002A;
},
{
glyphname = numbersign;
lastChange = "2021-12-04 18:34:38 +0000";
layers = (
{
layerId = "3A3E882A-FD1E-4FEC-B6F3-0E8C1BCDAD39";
paths = (
{
closed = 1;
nodes = (
"219 0 LINE",
"243 172 LINE",
"366 172 LINE",
"342 0 LINE",
"424 0 LINE",
"448 172 LINE",
"572 172 LINE",
"583 253 LINE",
"460 253 LINE",
"486 447 LINE",
"610 447 LINE",
"621 528 LINE",
"498 528 LINE",
"522 700 LINE",
"440 700 LINE",
"416 528 LINE",
"293 528 LINE",
"317 700 LINE",
"235 700 LINE",
"211 528 LINE",
"87 528 LINE",
"76 447 LINE",
"200 447 LINE",
"173 253 LINE",
"49 253 LINE",
"38 172 LINE",
"162 172 LINE",
"137 0 LINE"
);
},
{
closed = 1;
nodes = (
"281 447 LINE",
"404 447 LINE",
"378 253 LINE",
"255 253 LINE"
);
}
);
userData = {
assembly = "NPUSHB[ ]	/* 70 values pushed */\01214 9 2 1 12 10 2 0 11 1 0 103 6 1 4 4 34 77 15 8 2 2 2 3 95 7 5 2 3 3 37 77 16 13 2 11 11 35 11 78 0 0 31 30 29 28 0 27 0 27 26 25 24 23 22 21 20 19 17 17 17 17 17 17 17 17 17 17 8 31 \012CALL[ ]	/* CallFunction */";
};
width = 659;
},
{
layerId = "541F4A62-0ECD-4B4B-B1D5-38FFB5FB401F";
paths = (
{
closed = 1;
nodes = (
"245 0 LINE",
"269 172 LINE",
"352 172 LINE",
"328 0 LINE",
"450 0 LINE",
"474 172 LINE",
"598 172 LINE",
"615 293 LINE",
"492 293 LINE",
"512 407 LINE",
"636 407 LINE",
"653 528 LINE",
"530 528 LINE",
"554 700 LINE",
"432 700 LINE",
"408 528 LINE",
"325 528 LINE",
"349 700 LINE",
"227 700 LINE",
"203 528 LINE",
"79 528 LINE",
"62 407 LINE",
"186 407 LINE",
"165 293 LINE",
"41 293 LINE",
"24 172 LINE",
"148 172 LINE",
"123 0 LINE"
);
},
{
closed = 1;
nodes = (
"307 407 LINE",
"390 407 LINE",
"370 293 LINE",
"287 293 LINE"
);
}
);
width = 677;
}
);
note = numbersign;
unicode = 0023;
},
{
glyphname = slash;
lastChange = "2021-11-24 16:10:35 +0000";
layers = (
{
layerId = "3A3E882A-FD1E-4FEC-B6F3-0E8C1BCDAD39";
paths = (
{
closed = 1;
nodes = (
"102 0 LINE",
"374 700 LINE",
"287 700 LINE",
"15 0 LINE"
);
}
);
userData = {
assembly = "NPUSHB[ ]	/* 22 values pushed */\0120 0 0 34 77 2 1 1 1 35 1 78 0 0 0 3 0 3 17 3 8 23 \012CALL[ ]	/* CallFunction */";
};
width = 389;
},
{
layerId = "541F4A62-0ECD-4B4B-B1D5-38FFB5FB401F";
paths = (
{
closed = 1;
nodes = (
"158 0 LINE",
"430 700 LINE",
"287 700 LINE",
"15 0 LINE"
);
}
);
width = 445;
}
);
note = slash;
unicode = 002F;
},
{
glyphname = backslash;
lastChange = "2021-11-24 16:10:08 +0000";
layers = (
{
layerId = "3A3E882A-FD1E-4FEC-B6F3-0E8C1BCDAD39";
paths = (
{
closed = 1;
nodes = (
"374 0 LINE",
"102 700 LINE",
"15 700 LINE",
"287 0 LINE"
);
}
);
userData = {
assembly = "NPUSHB[ ]	/* 22 values pushed */\0120 0 0 34 77 2 1 1 1 35 1 78 0 0 0 3 0 3 17 3 8 23 \012CALL[ ]	/* CallFunction */";
};
width = 389;
},
{
layerId = "541F4A62-0ECD-4B4B-B1D5-38FFB5FB401F";
paths = (
{
closed = 1;
nodes = (
"430 0 LINE",
"158 700 LINE",
"15 700 LINE",
"287 0 LINE"
);
}
);
width = 445;
}
);
note = backslash;
unicode = 005C;
},
{
glyphname = parenleft;
lastChange = "2021-12-04 18:35:02 +0000";
layers = (
{
layerId = "3A3E882A-FD1E-4FEC-B6F3-0E8C1BCDAD39";
paths = (
{
closed = 1;
nodes = (
"268 -155 LINE",
"167 -18 OFFCURVE",
"124 152 OFFCURVE",
"124 297 CURVE SMOOTH",
"124 452 OFFCURVE",
"173 607 OFFCURVE",
"238 700 CURVE",
"163 700 LINE",
"90 583 OFFCURVE",
"50 435 OFFCURVE",
"50 299 CURVE SMOOTH",
"50 144 OFFCURVE",
"100 -24 OFFCURVE",
"192 -155 CURVE"
);
}
);
userData = {
assembly = "NPUSHB[ ]	/* 22 values pushed */\0120 0 0 34 77 2 1 1 1 39 1 78 0 0 0 13 0 13 22 3 8 23 \012CALL[ ]	/* CallFunction */";
};
width = 303;
},
{
layerId = "541F4A62-0ECD-4B4B-B1D5-38FFB5FB401F";
paths = (
{
closed = 1;
nodes = (
"307 -155 LINE",
"223 -40 OFFCURVE",
"169 135 OFFCURVE",
"169 297 CURVE SMOOTH",
"169 440 OFFCURVE",
"215 610 OFFCURVE",
"277 700 CURVE",
"153 700 LINE",
"75 575 OFFCURVE",
"35 438 OFFCURVE",
"35 299 CURVE SMOOTH",
"35 139 OFFCURVE",
"86 -17 OFFCURVE",
"183 -155 CURVE"
);
}
);
width = 342;
}
);
note = parenleft;
unicode = 0028;
},
{
glyphname = parenright;
lastChange = "2021-12-04 18:35:02 +0000";
layers = (
{
layerId = "3A3E882A-FD1E-4FEC-B6F3-0E8C1BCDAD39";
paths = (
{
closed = 1;
nodes = (
"203 -24 OFFCURVE",
"253 144 OFFCURVE",
"253 299 CURVE SMOOTH",
"253 435 OFFCURVE",
"213 583 OFFCURVE",
"140 700 CURVE",
"65 700 LINE",
"130 607 OFFCURVE",
"179 452 OFFCURVE",
"179 297 CURVE SMOOTH",
"179 152 OFFCURVE",
"136 -18 OFFCURVE",
"35 -155 CURVE",
"111 -155 LINE"
);
}
);
userData = {
assembly = "NPUSHB[ ]	/* 22 values pushed */\0120 0 0 34 77 2 1 1 1 39 1 78 0 0 0 13 0 13 22 3 8 23 \012CALL[ ]	/* CallFunction */";
};
width = 303;
},
{
layerId = "541F4A62-0ECD-4B4B-B1D5-38FFB5FB401F";
paths = (
{
closed = 1;
nodes = (
"256 -17 OFFCURVE",
"307 140 OFFCURVE",
"307 299 CURVE SMOOTH",
"307 438 OFFCURVE",
"267 575 OFFCURVE",
"189 700 CURVE",
"64 700 LINE",
"127 611 OFFCURVE",
"173 441 OFFCURVE",
"173 297 CURVE SMOOTH",
"173 134 OFFCURVE",
"119 -41 OFFCURVE",
"35 -155 CURVE",
"160 -155 LINE"
);
}
);
width = 342;
}
);
note = parenright;
unicode = 0029;
},
{
glyphname = braceleft;
lastChange = "2021-12-04 18:35:15 +0000";
layers = (
{
layerId = "3A3E882A-FD1E-4FEC-B6F3-0E8C1BCDAD39";
paths = (
{
closed = 1;
nodes = (
"285 -151 LINE",
"285 -80 LINE",
"243 -80 LINE SMOOTH",
"199 -80 OFFCURVE",
"192 -68 OFFCURVE",
"192 -16 CURVE SMOOTH",
"192 147 LINE SMOOTH",
"192 230 OFFCURVE",
"164 260 OFFCURVE",
"113 273 CURVE",
"113 274 LINE",
"161 287 OFFCURVE",
"192 316 OFFCURVE",
"192 400 CURVE SMOOTH",
"192 563 LINE SMOOTH",
"192 614 OFFCURVE",
"199 627 OFFCURVE",
"243 627 CURVE SMOOTH",
"285 627 LINE",
"285 698 LINE",
"242 698 LINE SMOOTH",
"167 698 OFFCURVE",
"131 683 OFFCURVE",
"118 644 CURVE SMOOTH",
"111 624 OFFCURVE",
"108 597 OFFCURVE",
"108 562 CURVE SMOOTH",
"108 402 LINE SMOOTH",
"108 345 OFFCURVE",
"101 307 OFFCURVE",
"38 307 CURVE",
"38 240 LINE",
"101 240 OFFCURVE",
"108 202 OFFCURVE",
"108 145 CURVE SMOOTH",
"108 -15 LINE SMOOTH",
"108 -83 OFFCURVE",
"118 -122 OFFCURVE",
"157 -139 CURVE SMOOTH",
"176 -147 OFFCURVE",
"205 -151 OFFCURVE",
"242 -151 CURVE SMOOTH"
);
}
);
userData = {
assembly = "NPUSHB[ ]	/* 55 values pushed */\01227 1 1 2 1 76 0 2 0 1 5 2 1 105 0 4 4 3 97 0 3 3 34 77 0 5 5 0 97 6 1 0 0 39 0 78 1 0 36 34 21 19 18 16 10 9 8 7 0 37 1 37 7 8 22 \012CALL[ ]	/* CallFunction */";
};
width = 319;
},
{
layerId = "541F4A62-0ECD-4B4B-B1D5-38FFB5FB401F";
paths = (
{
closed = 1;
nodes = (
"311 -155 LINE",
"311 -44 LINE",
"249 -44 LINE SMOOTH",
"230 -44 OFFCURVE",
"218 -34 OFFCURVE",
"218 0 CURVE SMOOTH",
"218 146 LINE SMOOTH",
"218 231 OFFCURVE",
"160 275 OFFCURVE",
"109 288 CURVE",
"109 258 LINE",
"159 271 OFFCURVE",
"218 316 OFFCURVE",
"218 399 CURVE SMOOTH",
"218 545 LINE SMOOTH",
"218 578 OFFCURVE",
"230 589 OFFCURVE",
"249 589 CURVE SMOOTH",
"311 589 LINE",
"311 700 LINE",
"248 700 LINE SMOOTH",
"164 700 OFFCURVE",
"121 680 OFFCURVE",
"105 632 CURVE SMOOTH",
"98 611 OFFCURVE",
"94 583 OFFCURVE",
"94 544 CURVE SMOOTH",
"94 401 LINE SMOOTH",
"94 331 OFFCURVE",
"82 323 OFFCURVE",
"24 327 CURVE",
"24 218 LINE",
"82 222 OFFCURVE",
"94 214 OFFCURVE",
"94 144 CURVE SMOOTH",
"94 1 LINE SMOOTH",
"94 -81 OFFCURVE",
"111 -123 OFFCURVE",
"155 -141 CURVE SMOOTH",
"177 -150 OFFCURVE",
"208 -155 OFFCURVE",
"248 -155 CURVE SMOOTH"
);
}
);
width = 345;
}
);
note = braceleft;
unicode = 007B;
},
{
glyphname = braceright;
lastChange = "2021-12-04 18:35:19 +0000";
layers = (
{
layerId = "3A3E882A-FD1E-4FEC-B6F3-0E8C1BCDAD39";
paths = (
{
closed = 1;
nodes = (
"152 -151 OFFCURVE",
"188 -136 OFFCURVE",
"201 -96 CURVE SMOOTH",
"208 -76 OFFCURVE",
"211 -49 OFFCURVE",
"211 -15 CURVE SMOOTH",
"211 145 LINE SMOOTH",
"211 202 OFFCURVE",
"218 240 OFFCURVE",
"281 240 CURVE",
"281 307 LINE",
"218 307 OFFCURVE",
"211 345 OFFCURVE",
"211 402 CURVE SMOOTH",
"211 562 LINE SMOOTH",
"211 631 OFFCURVE",
"201 669 OFFCURVE",
"162 686 CURVE SMOOTH",
"143 694 OFFCURVE",
"114 698 OFFCURVE",
"77 698 CURVE SMOOTH",
"34 698 LINE",
"34 627 LINE",
"76 627 LINE SMOOTH",
"120 627 OFFCURVE",
"127 614 OFFCURVE",
"127 563 CURVE SMOOTH",
"127 400 LINE SMOOTH",
"127 316 OFFCURVE",
"158 287 OFFCURVE",
"206 274 CURVE",
"206 273 LINE",
"155 260 OFFCURVE",
"127 230 OFFCURVE",
"127 147 CURVE SMOOTH",
"127 -16 LINE SMOOTH",
"127 -68 OFFCURVE",
"120 -80 OFFCURVE",
"76 -80 CURVE SMOOTH",
"34 -80 LINE",
"34 -151 LINE",
"77 -151 LINE SMOOTH"
);
}
);
userData = {
assembly = "NPUSHB[ ]	/* 50 values pushed */\0129 1 4 3 1 76 0 3 0 4 0 3 4 105 0 1 1 2 97 0 2 2 34 77 0 0 0 5 97 6 1 5 5 39 5 78 0 0 0 37 0 36 17 22 33 45 33 7 8 27 \012CALL[ ]	/* CallFunction */";
};
width = 319;
},
{
layerId = "541F4A62-0ECD-4B4B-B1D5-38FFB5FB401F";
paths = (
{
closed = 1;
nodes = (
"137 -155 OFFCURVE",
"168 -150 OFFCURVE",
"190 -141 CURVE SMOOTH",
"234 -123 OFFCURVE",
"251 -81 OFFCURVE",
"251 1 CURVE SMOOTH",
"251 144 LINE SMOOTH",
"251 214 OFFCURVE",
"263 222 OFFCURVE",
"321 218 CURVE",
"321 327 LINE",
"263 323 OFFCURVE",
"251 331 OFFCURVE",
"251 401 CURVE SMOOTH",
"251 544 LINE SMOOTH",
"251 583 OFFCURVE",
"247 611 OFFCURVE",
"240 632 CURVE SMOOTH",
"224 680 OFFCURVE",
"181 700 OFFCURVE",
"97 700 CURVE SMOOTH",
"34 700 LINE",
"34 589 LINE",
"96 589 LINE SMOOTH",
"115 589 OFFCURVE",
"127 578 OFFCURVE",
"127 545 CURVE SMOOTH",
"127 399 LINE SMOOTH",
"127 316 OFFCURVE",
"186 271 OFFCURVE",
"236 258 CURVE",
"236 288 LINE",
"185 275 OFFCURVE",
"127 231 OFFCURVE",
"127 146 CURVE SMOOTH",
"127 0 LINE SMOOTH",
"127 -34 OFFCURVE",
"115 -44 OFFCURVE",
"96 -44 CURVE SMOOTH",
"34 -44 LINE",
"34 -155 LINE",
"97 -155 LINE SMOOTH"
);
}
);
width = 345;
}
);
note = braceright;
unicode = 007D;
},
{
glyphname = bracketleft;
lastChange = "2021-12-04 18:35:30 +0000";
layers = (
{
layerId = "3A3E882A-FD1E-4FEC-B6F3-0E8C1BCDAD39";
paths = (
{
closed = 1;
nodes = (
"282 -151 LINE",
"282 -77 LINE",
"157 -77 LINE",
"157 626 LINE",
"282 626 LINE",
"282 700 LINE",
"76 700 LINE",
"76 -151 LINE"
);
}
);
userData = {
assembly = "NPUSHB[ ]	/* 34 values pushed */\0120 1 1 0 95 0 0 0 34 77 0 2 2 3 95 4 1 3 3 39 3 78 0 0 0 7 0 7 17 17 17 5 8 25 \012CALL[ ]	/* CallFunction */";
};
width = 315;
},
{
layerId = "541F4A62-0ECD-4B4B-B1D5-38FFB5FB401F";
paths = (
{
closed = 1;
nodes = (
"310 -151 LINE",
"310 -36 LINE",
"185 -36 LINE",
"185 585 LINE",
"310 585 LINE",
"310 700 LINE",
"44 700 LINE",
"44 -151 LINE"
);
}
);
width = 343;
}
);
note = bracketleft;
unicode = 005B;
},
{
glyphname = bracketright;
lastChange = "2021-12-04 18:35:37 +0000";
layers = (
{
layerId = "3A3E882A-FD1E-4FEC-B6F3-0E8C1BCDAD39";
paths = (
{
closed = 1;
nodes = (
"239 700 LINE",
"33 700 LINE",
"33 626 LINE",
"158 626 LINE",
"158 -77 LINE",
"33 -77 LINE",
"33 -151 LINE",
"239 -151 LINE"
);
}
);
userData = {
assembly = "NPUSHB[ ]	/* 34 values pushed */\0120 1 1 2 95 0 2 2 34 77 0 0 0 3 95 4 1 3 3 39 3 78 0 0 0 7 0 7 17 17 17 5 8 25 \012CALL[ ]	/* CallFunction */";
};
width = 315;
},
{
layerId = "541F4A62-0ECD-4B4B-B1D5-38FFB5FB401F";
paths = (
{
closed = 1;
nodes = (
"299 700 LINE",
"33 700 LINE",
"33 585 LINE",
"158 585 LINE",
"158 -36 LINE",
"33 -36 LINE",
"33 -151 LINE",
"299 -151 LINE"
);
}
);
width = 343;
}
);
note = bracketright;
unicode = 005D;
},
{
glyphname = hyphen;
lastChange = "2021-12-04 18:35:50 +0000";
layers = (
{
layerId = "3A3E882A-FD1E-4FEC-B6F3-0E8C1BCDAD39";
paths = (
{
closed = 1;
nodes = (
"330 210 LINE",
"330 292 LINE",
"38 292 LINE",
"38 210 LINE"
);
}
);
userData = {
assembly = "NPUSHB[ ]	/* 27 values pushed */\0120 0 1 1 0 87 0 0 0 1 95 2 1 1 0 1 79 0 0 0 3 0 3 17 3 8 23 \012CALL[ ]	/* CallFunction */";
};
width = 368;
},
{
layerId = "541F4A62-0ECD-4B4B-B1D5-38FFB5FB401F";
paths = (
{
closed = 1;
nodes = (
"376 201 LINE",
"376 323 LINE",
"24 323 LINE",
"24 201 LINE"
);
}
);
width = 400;
}
);
note = hyphen;
unicode = 002D;
},
{
glyphname = uni00AD;
lastChange = "2021-12-04 18:36:02 +0000";
layers = (
{
layerId = "3A3E882A-FD1E-4FEC-B6F3-0E8C1BCDAD39";
paths = (
{
closed = 1;
nodes = (
"310 210 LINE",
"310 292 LINE",
"38 292 LINE",
"38 210 LINE"
);
}
);
userData = {
assembly = "NPUSHB[ ]	/* 27 values pushed */\0120 0 1 1 0 87 0 0 0 1 95 2 1 1 0 1 79 0 0 0 3 0 3 17 3 8 23 \012CALL[ ]	/* CallFunction */";
};
width = 348;
},
{
layerId = "541F4A62-0ECD-4B4B-B1D5-38FFB5FB401F";
paths = (
{
closed = 1;
nodes = (
"356 200 LINE",
"356 322 LINE",
"24 322 LINE",
"24 200 LINE"
);
}
);
width = 380;
}
);
note = uni00AD;
unicode = 00AD;
},
{
glyphname = endash;
lastChange = "2021-12-04 18:36:13 +0000";
layers = (
{
layerId = "3A3E882A-FD1E-4FEC-B6F3-0E8C1BCDAD39";
paths = (
{
closed = 1;
nodes = (
"440 211 LINE",
"440 291 LINE",
"42 291 LINE",
"42 211 LINE"
);
}
);
userData = {
assembly = "NPUSHB[ ]	/* 27 values pushed */\0120 0 1 1 0 87 0 0 0 1 95 2 1 1 0 1 79 0 0 0 3 0 3 17 3 8 23 \012CALL[ ]	/* CallFunction */";
};
width = 482;
},
{
layerId = "541F4A62-0ECD-4B4B-B1D5-38FFB5FB401F";
paths = (
{
closed = 1;
nodes = (
"499 201 LINE",
"499 321 LINE",
"41 321 LINE",
"41 201 LINE"
);
}
);
width = 540;
}
);
note = endash;
unicode = 2013;
},
{
glyphname = emdash;
lastChange = "2021-12-04 18:36:13 +0000";
layers = (
{
layerId = "3A3E882A-FD1E-4FEC-B6F3-0E8C1BCDAD39";
paths = (
{
closed = 1;
nodes = (
"759 211 LINE",
"759 291 LINE",
"41 291 LINE",
"41 211 LINE"
);
}
);
userData = {
assembly = "NPUSHB[ ]	/* 27 values pushed */\0120 0 1 1 0 87 0 0 0 1 95 2 1 1 0 1 79 0 0 0 3 0 3 17 3 8 23 \012CALL[ ]	/* CallFunction */";
};
width = 800;
},
{
layerId = "541F4A62-0ECD-4B4B-B1D5-38FFB5FB401F";
paths = (
{
closed = 1;
nodes = (
"819 201 LINE",
"819 321 LINE",
"41 321 LINE",
"41 201 LINE"
);
}
);
width = 860;
}
);
note = emdash;
unicode = 2014;
},
{
glyphname = underscore;
lastChange = "2021-11-24 16:48:32 +0000";
layers = (
{
layerId = "3A3E882A-FD1E-4FEC-B6F3-0E8C1BCDAD39";
paths = (
{
closed = 1;
nodes = (
"386 -80 LINE",
"386 0 LINE",
"10 0 LINE",
"10 -80 LINE"
);
}
);
userData = {
assembly = "PUSHB[ ]	/* 2 values pushed */\0126 100 \012WCVTP[ ]	/* WriteCVTInPixels */\012NPUSHB[ ]	/* 27 values pushed */\0120 0 1 1 0 87 0 0 0 1 95 2 1 1 0 1 79 0 0 0 3 0 3 17 3 8 23 \012CALL[ ]	/* CallFunction */\012PUSHB[ ]	/* 2 values pushed */\0126 0 \012WCVTP[ ]	/* WriteCVTInPixels */";
};
width = 396;
},
{
layerId = "541F4A62-0ECD-4B4B-B1D5-38FFB5FB401F";
paths = (
{
closed = 1;
nodes = (
"446 -120 LINE",
"446 0 LINE",
"10 0 LINE",
"10 -120 LINE"
);
}
);
width = 456;
}
);
note = underscore;
unicode = 005F;
},
{
glyphname = quotesinglbase;
lastChange = "2021-12-04 18:53:34 +0000";
layers = (
{
layerId = "3A3E882A-FD1E-4FEC-B6F3-0E8C1BCDAD39";
paths = (
{
closed = 1;
nodes = (
"115 -136 LINE",
"177 25 LINE SMOOTH",
"180 34 OFFCURVE",
"182 42 OFFCURVE",
"182 50 CURVE SMOOTH",
"182 85 OFFCURVE",
"153 114 OFFCURVE",
"117 114 CURVE SMOOTH",
"82 114 OFFCURVE",
"53 85 OFFCURVE",
"53 50 CURVE SMOOTH",
"53 18 OFFCURVE",
"76 -9 OFFCURVE",
"107 -14 CURVE",
"60 -136 LINE"
);
}
);
userData = {
assembly = "NPUSHB[ ]	/* 33 values pushed */\0121 1 1 0 1 76 0 0 1 1 0 89 0 0 0 1 95 2 1 1 0 1 79 0 0 0 13 0 13 38 3 8 23 \012CALL[ ]	/* CallFunction */";
};
width = 234;
},
{
layerId = "541F4A62-0ECD-4B4B-B1D5-38FFB5FB401F";
paths = (
{
closed = 1;
nodes = (
"129 -136 LINE",
"200 29 LINE SMOOTH",
"206 42 OFFCURVE",
"210 61 OFFCURVE",
"210 70 CURVE SMOOTH",
"210 116 OFFCURVE",
"172 154 OFFCURVE",
"125 154 CURVE SMOOTH",
"79 154 OFFCURVE",
"41 116 OFFCURVE",
"41 70 CURVE SMOOTH",
"41 37 OFFCURVE",
"65 -2 OFFCURVE",
"99 -8 CURVE",
"46 -136 LINE"
);
}
);
width = 251;
}
);
note = quotesinglbase;
rightKerningGroup = quotesinglbase;
unicode = 201A;
},
{
glyphname = quotedblbase;
lastChange = "2021-12-04 18:53:34 +0000";
layers = (
{
layerId = "3A3E882A-FD1E-4FEC-B6F3-0E8C1BCDAD39";
paths = (
{
closed = 1;
nodes = (
"115 -134 LINE",
"177 28 LINE SMOOTH",
"180 37 OFFCURVE",
"182 45 OFFCURVE",
"182 53 CURVE SMOOTH",
"182 88 OFFCURVE",
"153 117 OFFCURVE",
"117 117 CURVE SMOOTH",
"82 117 OFFCURVE",
"53 88 OFFCURVE",
"53 52 CURVE SMOOTH",
"53 20 OFFCURVE",
"76 -6 OFFCURVE",
"107 -11 CURVE",
"60 -134 LINE"
);
},
{
closed = 1;
nodes = (
"279 -134 LINE",
"340 28 LINE SMOOTH",
"343 37 OFFCURVE",
"345 45 OFFCURVE",
"345 53 CURVE SMOOTH",
"345 88 OFFCURVE",
"317 117 OFFCURVE",
"281 117 CURVE SMOOTH",
"245 117 OFFCURVE",
"216 88 OFFCURVE",
"216 52 CURVE SMOOTH",
"216 20 OFFCURVE",
"239 -6 OFFCURVE",
"270 -11 CURVE",
"223 -134 LINE"
);
}
);
userData = {
assembly = "NPUSHB[ ]	/* 46 values pushed */\01215 1 2 1 0 1 76 2 1 0 1 1 0 89 2 1 0 0 1 95 5 3 4 3 1 0 1 79 14 14 0 0 14 27 14 27 22 20 0 13 0 13 38 6 8 23 \012CALL[ ]	/* CallFunction */";
};
width = 398;
},
{
layerId = "541F4A62-0ECD-4B4B-B1D5-38FFB5FB401F";
paths = (
{
closed = 1;
nodes = (
"129 -136 LINE",
"200 29 LINE SMOOTH",
"206 42 OFFCURVE",
"210 61 OFFCURVE",
"210 70 CURVE SMOOTH",
"210 117 OFFCURVE",
"172 154 OFFCURVE",
"125 154 CURVE SMOOTH",
"79 154 OFFCURVE",
"41 116 OFFCURVE",
"41 70 CURVE SMOOTH",
"41 37 OFFCURVE",
"65 -2 OFFCURVE",
"99 -8 CURVE",
"46 -136 LINE"
);
},
{
closed = 1;
nodes = (
"330 -136 LINE",
"401 29 LINE SMOOTH",
"407 42 OFFCURVE",
"411 61 OFFCURVE",
"411 70 CURVE SMOOTH",
"411 117 OFFCURVE",
"373 154 OFFCURVE",
"326 154 CURVE SMOOTH",
"280 154 OFFCURVE",
"242 116 OFFCURVE",
"242 70 CURVE SMOOTH",
"242 37 OFFCURVE",
"266 -2 OFFCURVE",
"300 -8 CURVE",
"247 -136 LINE"
);
}
);
width = 452;
}
);
note = quotedblbase;
rightKerningGroup = quotesinglbase;
unicode = 201E;
},
{
glyphname = quotedblleft;
lastChange = "2021-12-04 18:36:27 +0000";
layers = (
{
layerId = "3A3E882A-FD1E-4FEC-B6F3-0E8C1BCDAD39";
paths = (
{
closed = 1;
nodes = (
"283 700 LINE",
"221 538 LINE SMOOTH",
"218 529 OFFCURVE",
"216 521 OFFCURVE",
"216 513 CURVE SMOOTH",
"216 478 OFFCURVE",
"245 449 OFFCURVE",
"281 449 CURVE SMOOTH",
"316 449 OFFCURVE",
"345 478 OFFCURVE",
"345 514 CURVE SMOOTH",
"345 546 OFFCURVE",
"322 572 OFFCURVE",
"291 577 CURVE",
"338 700 LINE"
);
},
{
closed = 1;
nodes = (
"119 700 LINE",
"58 538 LINE SMOOTH",
"55 529 OFFCURVE",
"53 521 OFFCURVE",
"53 513 CURVE SMOOTH",
"53 478 OFFCURVE",
"81 449 OFFCURVE",
"117 449 CURVE SMOOTH",
"153 449 OFFCURVE",
"182 478 OFFCURVE",
"182 514 CURVE SMOOTH",
"182 546 OFFCURVE",
"159 572 OFFCURVE",
"128 577 CURVE",
"175 700 LINE"
);
}
);
userData = {
assembly = "NPUSHB[ ]	/* 41 values pushed */\01224 9 2 0 1 1 76 5 2 4 3 0 0 1 95 3 1 1 1 34 0 78 16 15 1 0 23 22 15 29 16 29 8 7 0 14 1 14 6 8 22 \012CALL[ ]	/* CallFunction */";
};
width = 398;
},
{
layerId = "541F4A62-0ECD-4B4B-B1D5-38FFB5FB401F";
paths = (
{
closed = 1;
nodes = (
"323 700 LINE",
"252 535 LINE SMOOTH",
"246 522 OFFCURVE",
"242 503 OFFCURVE",
"242 494 CURVE SMOOTH",
"242 447 OFFCURVE",
"280 410 OFFCURVE",
"327 410 CURVE SMOOTH",
"373 410 OFFCURVE",
"411 448 OFFCURVE",
"411 494 CURVE SMOOTH",
"411 527 OFFCURVE",
"387 566 OFFCURVE",
"353 572 CURVE",
"406 700 LINE"
);
},
{
closed = 1;
nodes = (
"122 700 LINE",
"51 535 LINE SMOOTH",
"45 522 OFFCURVE",
"41 503 OFFCURVE",
"41 494 CURVE SMOOTH",
"41 447 OFFCURVE",
"79 410 OFFCURVE",
"126 410 CURVE SMOOTH",
"172 410 OFFCURVE",
"210 448 OFFCURVE",
"210 494 CURVE SMOOTH",
"210 527 OFFCURVE",
"186 566 OFFCURVE",
"152 572 CURVE",
"205 700 LINE"
);
}
);
width = 452;
}
);
note = quotedblleft;
unicode = 201C;
},
{
glyphname = quotedblright;
lastChange = "2021-12-18 10:37:35 +0000";
layers = (
{
layerId = "3A3E882A-FD1E-4FEC-B6F3-0E8C1BCDAD39";
paths = (
{
closed = 1;
nodes = (
"115 464 LINE",
"177 626 LINE SMOOTH",
"180 635 OFFCURVE",
"182 643 OFFCURVE",
"182 651 CURVE SMOOTH",
"182 686 OFFCURVE",
"153 715 OFFCURVE",
"117 715 CURVE SMOOTH",
"82 715 OFFCURVE",
"53 686 OFFCURVE",
"53 650 CURVE SMOOTH",
"53 618 OFFCURVE",
"76 592 OFFCURVE",
"107 587 CURVE",
"60 464 LINE"
);
},
{
closed = 1;
nodes = (
"279 464 LINE",
"340 626 LINE SMOOTH",
"343 635 OFFCURVE",
"345 643 OFFCURVE",
"345 651 CURVE SMOOTH",
"345 686 OFFCURVE",
"317 715 OFFCURVE",
"281 715 CURVE SMOOTH",
"245 715 OFFCURVE",
"216 686 OFFCURVE",
"216 650 CURVE SMOOTH",
"216 618 OFFCURVE",
"239 592 OFFCURVE",
"270 587 CURVE",
"223 464 LINE"
);
}
);
userData = {
assembly = "NPUSHB[ ]	/* 40 values pushed */\01215 1 2 1 0 1 76 5 3 4 3 1 1 0 97 2 1 0 0 40 1 78 14 14 0 0 14 27 14 27 22 20 0 13 0 13 38 6 8 23 \012CALL[ ]	/* CallFunction */";
};
width = 398;
},
{
layerId = "541F4A62-0ECD-4B4B-B1D5-38FFB5FB401F";
paths = (
{
closed = 1;
nodes = (
"129 426 LINE",
"200 591 LINE SMOOTH",
"206 604 OFFCURVE",
"210 623 OFFCURVE",
"210 632 CURVE SMOOTH",
"210 679 OFFCURVE",
"172 716 OFFCURVE",
"125 716 CURVE SMOOTH",
"79 716 OFFCURVE",
"41 678 OFFCURVE",
"41 632 CURVE SMOOTH",
"41 599 OFFCURVE",
"65 560 OFFCURVE",
"99 554 CURVE",
"46 426 LINE"
);
},
{
closed = 1;
nodes = (
"330 426 LINE",
"401 591 LINE SMOOTH",
"407 604 OFFCURVE",
"411 623 OFFCURVE",
"411 632 CURVE SMOOTH",
"411 679 OFFCURVE",
"373 716 OFFCURVE",
"326 716 CURVE SMOOTH",
"280 716 OFFCURVE",
"242 678 OFFCURVE",
"242 632 CURVE SMOOTH",
"242 599 OFFCURVE",
"266 560 OFFCURVE",
"300 554 CURVE",
"247 426 LINE"
);
}
);
width = 452;
}
);
note = quotedblright;
rightKerningGroup = quoteright;
unicode = 201D;
},
{
glyphname = quoteleft;
lastChange = "2021-12-04 18:36:27 +0000";
layers = (
{
layerId = "3A3E882A-FD1E-4FEC-B6F3-0E8C1BCDAD39";
paths = (
{
closed = 1;
nodes = (
"119 700 LINE",
"58 538 LINE SMOOTH",
"55 529 OFFCURVE",
"53 521 OFFCURVE",
"53 513 CURVE SMOOTH",
"53 478 OFFCURVE",
"81 449 OFFCURVE",
"117 449 CURVE SMOOTH",
"153 449 OFFCURVE",
"182 478 OFFCURVE",
"182 514 CURVE SMOOTH",
"182 546 OFFCURVE",
"159 572 OFFCURVE",
"128 577 CURVE",
"175 700 LINE"
);
}
);
userData = {
assembly = "NPUSHB[ ]	/* 29 values pushed */\0128 1 0 1 1 76 2 1 0 0 1 95 0 1 1 34 0 78 1 0 7 6 0 13 1 13 3 8 22 \012CALL[ ]	/* CallFunction */";
};
width = 235;
},
{
layerId = "541F4A62-0ECD-4B4B-B1D5-38FFB5FB401F";
paths = (
{
closed = 1;
nodes = (
"122 700 LINE",
"51 535 LINE SMOOTH",
"45 522 OFFCURVE",
"41 503 OFFCURVE",
"41 494 CURVE SMOOTH",
"41 447 OFFCURVE",
"79 410 OFFCURVE",
"126 410 CURVE SMOOTH",
"172 410 OFFCURVE",
"210 448 OFFCURVE",
"210 494 CURVE SMOOTH",
"210 527 OFFCURVE",
"186 566 OFFCURVE",
"152 572 CURVE",
"205 700 LINE"
);
}
);
width = 251;
}
);
note = quoteleft;
unicode = 2018;
},
{
glyphname = quoteright;
lastChange = "2021-12-04 18:53:34 +0000";
layers = (
{
layerId = "3A3E882A-FD1E-4FEC-B6F3-0E8C1BCDAD39";
paths = (
{
closed = 1;
nodes = (
"115 464 LINE",
"177 626 LINE SMOOTH",
"180 635 OFFCURVE",
"182 643 OFFCURVE",
"182 651 CURVE SMOOTH",
"182 686 OFFCURVE",
"153 715 OFFCURVE",
"117 715 CURVE SMOOTH",
"82 715 OFFCURVE",
"53 686 OFFCURVE",
"53 650 CURVE SMOOTH",
"53 618 OFFCURVE",
"76 592 OFFCURVE",
"107 587 CURVE",
"60 464 LINE"
);
}
);
userData = {
assembly = "NPUSHB[ ]	/* 28 values pushed */\0121 1 1 0 1 76 2 1 1 1 0 97 0 0 0 40 1 78 0 0 0 13 0 13 38 3 8 23 \012CALL[ ]	/* CallFunction */";
};
width = 235;
},
{
layerId = "541F4A62-0ECD-4B4B-B1D5-38FFB5FB401F";
paths = (
{
closed = 1;
nodes = (
"129 426 LINE",
"200 591 LINE SMOOTH",
"206 604 OFFCURVE",
"210 623 OFFCURVE",
"210 632 CURVE SMOOTH",
"210 679 OFFCURVE",
"172 716 OFFCURVE",
"125 716 CURVE SMOOTH",
"79 716 OFFCURVE",
"41 678 OFFCURVE",
"41 632 CURVE SMOOTH",
"41 599 OFFCURVE",
"65 560 OFFCURVE",
"99 554 CURVE",
"46 426 LINE"
);
}
);
width = 251;
}
);
note = quoteright;
rightKerningGroup = quoteright;
unicode = 2019;
},
{
glyphname = guillemotleft;
lastChange = "2021-12-04 18:36:47 +0000";
layers = (
{
layerId = "3A3E882A-FD1E-4FEC-B6F3-0E8C1BCDAD39";
paths = (
{
closed = 1;
nodes = (
"300 40 LINE",
"151 251 LINE",
"300 461 LINE",
"201 461 LINE",
"53 251 LINE",
"201 40 LINE"
);
},
{
closed = 1;
nodes = (
"509 40 LINE",
"359 251 LINE",
"509 461 LINE",
"409 461 LINE",
"262 251 LINE",
"409 40 LINE"
);
}
);
userData = {
assembly = "NPUSHB[ ]	/* 48 values pushed */\01210 7 4 1 4 1 0 1 76 2 1 0 1 1 0 87 2 1 0 0 1 95 5 3 4 3 1 0 1 79 6 6 0 0 6 11 6 11 9 8 0 5 0 5 18 6 8 23 \012CALL[ ]	/* CallFunction */";
};
width = 562;
},
{
layerId = "541F4A62-0ECD-4B4B-B1D5-38FFB5FB401F";
paths = (
{
closed = 1;
nodes = (
"370 45 LINE",
"217 256 LINE",
"370 466 LINE",
"205 466 LINE",
"53 256 LINE",
"205 45 LINE"
);
},
{
closed = 1;
nodes = (
"579 45 LINE",
"425 256 LINE",
"579 466 LINE",
"413 466 LINE",
"262 256 LINE",
"413 45 LINE"
);
}
);
width = 632;
}
);
note = guillemotleft;
unicode = 00AB;
},
{
glyphname = guillemotright;
lastChange = "2021-12-14 17:12:28 +0000";
layers = (
{
layerId = "3A3E882A-FD1E-4FEC-B6F3-0E8C1BCDAD39";
paths = (
{
closed = 1;
nodes = (
"361 40 LINE",
"509 251 LINE",
"361 461 LINE",
"262 461 LINE",
"411 251 LINE",
"262 40 LINE"
);
},
{
closed = 1;
nodes = (
"153 40 LINE",
"300 251 LINE",
"153 461 LINE",
"53 461 LINE",
"202 251 LINE",
"53 40 LINE"
);
}
);
userData = {
assembly = "NPUSHB[ ]	/* 48 values pushed */\01210 7 4 1 4 1 0 1 76 2 1 0 1 1 0 87 2 1 0 0 1 95 5 3 4 3 1 0 1 79 6 6 0 0 6 11 6 11 9 8 0 5 0 5 18 6 8 23 \012CALL[ ]	/* CallFunction */";
};
width = 562;
},
{
layerId = "541F4A62-0ECD-4B4B-B1D5-38FFB5FB401F";
paths = (
{
closed = 1;
nodes = (
"427 45 LINE",
"579 256 LINE",
"427 466 LINE",
"262 466 LINE",
"415 256 LINE",
"262 45 LINE"
);
},
{
closed = 1;
nodes = (
"219 45 LINE",
"370 256 LINE",
"219 466 LINE",
"53 466 LINE",
"207 256 LINE",
"53 45 LINE"
);
}
);
width = 632;
}
);
note = guillemotright;
unicode = 00BB;
},
{
glyphname = guilsinglleft;
lastChange = "2021-12-04 18:36:41 +0000";
layers = (
{
layerId = "3A3E882A-FD1E-4FEC-B6F3-0E8C1BCDAD39";
paths = (
{
closed = 1;
nodes = (
"300 40 LINE",
"151 250 LINE",
"300 461 LINE",
"201 461 LINE",
"53 250 LINE",
"201 40 LINE"
);
}
);
userData = {
assembly = "NPUSHB[ ]	/* 34 values pushed */\0124 1 2 1 0 1 76 0 0 1 1 0 87 0 0 0 1 95 2 1 1 0 1 79 0 0 0 5 0 5 18 3 8 23 \012CALL[ ]	/* CallFunction */";
};
width = 353;
},
{
layerId = "541F4A62-0ECD-4B4B-B1D5-38FFB5FB401F";
paths = (
{
closed = 1;
nodes = (
"368 27 LINE",
"205 257 LINE",
"368 488 LINE",
"203 488 LINE",
"41 257 LINE",
"203 27 LINE"
);
}
);
width = 409;
}
);
note = guilsinglleft;
unicode = 2039;
},
{
glyphname = guilsinglright;
lastChange = "2021-12-04 18:36:41 +0000";
layers = (
{
layerId = "3A3E882A-FD1E-4FEC-B6F3-0E8C1BCDAD39";
paths = (
{
closed = 1;
nodes = (
"154 40 LINE",
"301 250 LINE",
"154 461 LINE",
"54 461 LINE",
"203 250 LINE",
"54 40 LINE"
);
}
);
userData = {
assembly = "NPUSHB[ ]	/* 34 values pushed */\0124 1 2 1 0 1 76 0 0 1 1 0 87 0 0 0 1 95 2 1 1 0 1 79 0 0 0 5 0 5 18 3 8 23 \012CALL[ ]	/* CallFunction */";
};
width = 355;
},
{
layerId = "541F4A62-0ECD-4B4B-B1D5-38FFB5FB401F";
paths = (
{
closed = 1;
nodes = (
"207 27 LINE",
"368 257 LINE",
"207 488 LINE",
"41 488 LINE",
"204 257 LINE",
"41 27 LINE"
);
}
);
width = 409;
}
);
note = guilsinglright;
unicode = 203A;
},
{
glyphname = quotedbl;
lastChange = "2021-12-04 18:36:57 +0000";
layers = (
{
layerId = "3A3E882A-FD1E-4FEC-B6F3-0E8C1BCDAD39";
paths = (
{
closed = 1;
nodes = (
"106 479 LINE",
"120 700 LINE",
"40 700 LINE",
"54 479 LINE"
);
},
{
closed = 1;
nodes = (
"247 479 LINE",
"261 700 LINE",
"181 700 LINE",
"195 479 LINE"
);
}
);
userData = {
assembly = "NPUSHB[ ]	/* 33 values pushed */\0125 3 4 3 1 1 0 95 2 1 0 0 34 1 78 4 4 0 0 4 7 4 7 6 5 0 3 0 3 17 6 8 23 \012CALL[ ]	/* CallFunction */";
};
width = 301;
},
{
layerId = "541F4A62-0ECD-4B4B-B1D5-38FFB5FB401F";
paths = (
{
closed = 1;
nodes = (
"166 469 LINE",
"182 700 LINE",
"40 700 LINE",
"56 469 LINE"
);
},
{
closed = 1;
nodes = (
"346 469 LINE",
"362 700 LINE",
"220 700 LINE",
"236 469 LINE"
);
}
);
width = 402;
}
);
note = quotedbl;
unicode = 0022;
},
{
glyphname = quotesingle;
lastChange = "2021-11-24 17:26:54 +0000";
layers = (
{
layerId = "3A3E882A-FD1E-4FEC-B6F3-0E8C1BCDAD39";
paths = (
{
closed = 1;
nodes = (
"106 479 LINE",
"120 700 LINE",
"40 700 LINE",
"54 479 LINE"
);
}
);
userData = {
assembly = "NPUSHB[ ]	/* 22 values pushed */\0122 1 1 1 0 95 0 0 0 34 1 78 0 0 0 3 0 3 17 3 8 23 \012CALL[ ]	/* CallFunction */";
};
width = 160;
},
{
layerId = "541F4A62-0ECD-4B4B-B1D5-38FFB5FB401F";
paths = (
{
closed = 1;
nodes = (
"166 469 LINE",
"182 700 LINE",
"40 700 LINE",
"56 469 LINE"
);
}
);
width = 222;
}
);
note = quotesingle;
unicode = 0027;
},
{
glyphname = cent;
lastChange = "2021-12-04 14:48:28 +0000";
layers = (
{
layerId = "3A3E882A-FD1E-4FEC-B6F3-0E8C1BCDAD39";
paths = (
{
closed = 1;
nodes = (
"290 -87 LINE",
"290 571 LINE",
"235 571 LINE",
"235 -87 LINE"
);
},
{
closed = 1;
nodes = (
"373 87 OFFCURVE",
"342 62 OFFCURVE",
"284 62 CURVE SMOOTH",
"180 62 OFFCURVE",
"123 145 OFFCURVE",
"123 251 CURVE SMOOTH",
"123 357 OFFCURVE",
"180 440 OFFCURVE",
"284 440 CURVE SMOOTH",
"342 440 OFFCURVE",
"373 415 OFFCURVE",
"401 375 CURVE",
"476 402 LINE",
"334 617 OFFCURVE",
"40 505 OFFCURVE",
"38 251 CURVE SMOOTH",
"39 106 OFFCURVE",
"133 -13 OFFCURVE",
"284 -13 CURVE SMOOTH",
"368 -13 OFFCURVE",
"431 32 OFFCURVE",
"476 100 CURVE",
"401 127 LINE"
);
}
);
userData = {
assembly = "NPUSHB[ ]	/* 41 values pushed */\01229 28 26 23 22 19 18 16 15 9 1 11 2 1 1 76 0 0 3 1 2 0 2 99 0 1 1 43 1 78 0 0 0 27 0 27 17 26 4 8 24 \012CALL[ ]	/* CallFunction */";
};
width = 509;
},
{
layerId = "541F4A62-0ECD-4B4B-B1D5-38FFB5FB401F";
paths = (
{
closed = 1;
nodes = (
"302 -87 LINE",
"302 600 LINE",
"222 602 LINE",
"222 -85 LINE"
);
},
{
closed = 1;
nodes = (
"351 118 OFFCURVE",
"331 102 OFFCURVE",
"285 102 CURVE SMOOTH",
"206 102 OFFCURVE",
"139 154 OFFCURVE",
"139 257 CURVE SMOOTH",
"139 360 OFFCURVE",
"206 409 OFFCURVE",
"285 409 CURVE SMOOTH",
"331 409 OFFCURVE",
"351 393 OFFCURVE",
"388 337 CURVE",
"514 382 LINE",
"371 636 OFFCURVE",
"11 534 OFFCURVE",
"9 257 CURVE SMOOTH",
"8 92 OFFCURVE",
"125 -13 OFFCURVE",
"285 -13 CURVE SMOOTH",
"380 -13 OFFCURVE",
"463 38 OFFCURVE",
"514 129 CURVE",
"388 174 LINE"
);
}
);
width = 600;
}
);
note = cent;
unicode = 00A2;
},
{
glyphname = dollar;
lastChange = "2021-12-04 15:12:56 +0000";
layers = (
{
layerId = "3A3E882A-FD1E-4FEC-B6F3-0E8C1BCDAD39";
paths = (
{
closed = 1;
nodes = (
"431 -15 OFFCURVE",
"558 66 OFFCURVE",
"558 189 CURVE SMOOTH",
"558 299 OFFCURVE",
"492 364 OFFCURVE",
"361 393 CURVE SMOOTH",
"288 409 LINE SMOOTH",
"212 426 OFFCURVE",
"145 466 OFFCURVE",
"145 534 CURVE SMOOTH",
"145 604 OFFCURVE",
"216 635 OFFCURVE",
"289 635 CURVE SMOOTH",
"350 635 OFFCURVE",
"415 608 OFFCURVE",
"440 561 CURVE",
"527 590 LINE",
"486 674 OFFCURVE",
"393 715 OFFCURVE",
"293 715 CURVE SMOOTH",
"174 715 OFFCURVE",
"48 654 OFFCURVE",
"48 538 CURVE SMOOTH",
"48 433 OFFCURVE",
"113 358 OFFCURVE",
"240 330 CURVE SMOOTH",
"325 311 LINE SMOOTH",
"425 289 OFFCURVE",
"459 248 OFFCURVE",
"459 193 CURVE SMOOTH",
"459 115 OFFCURVE",
"387 65 OFFCURVE",
"302 65 CURVE SMOOTH",
"228 65 OFFCURVE",
"152 101 OFFCURVE",
"128 172 CURVE",
"40 143 LINE",
"74 40 OFFCURVE",
"182 -15 OFFCURVE",
"298 -15 CURVE SMOOTH"
);
},
{
closed = 1;
nodes = (
"321 -94 LINE",
"321 795 LINE",
"266 795 LINE",
"266 -94 LINE"
);
}
);
userData = {
assembly = "NPUSHB[ ]	/* 63 values pushed */\01256 42 41 29 28 25 24 21 18 8 5 4 12 3 0 7 1 1 3 2 76 1 1 1 1 75 0 0 3 0 133 4 1 2 1 2 134 0 3 3 1 97 0 1 1 41 1 78 0 0 51 50 0 40 0 40 39 38 20 19 5 8 22 \012CALL[ ]	/* CallFunction */";
};
width = 598;
},
{
layerId = "541F4A62-0ECD-4B4B-B1D5-38FFB5FB401F";
paths = (
{
closed = 1;
nodes = (
"459 -15 OFFCURVE",
"589 74 OFFCURVE",
"589 199 CURVE SMOOTH",
"589 316 OFFCURVE",
"516 380 OFFCURVE",
"368 413 CURVE SMOOTH",
"295 429 LINE SMOOTH",
"218 446 OFFCURVE",
"176 474 OFFCURVE",
"176 524 CURVE SMOOTH",
"176 575 OFFCURVE",
"218 595 OFFCURVE",
"290 595 CURVE SMOOTH",
"354 595 OFFCURVE",
"408 563 OFFCURVE",
"422 513 CURVE",
"563 560 LINE",
"529 654 OFFCURVE",
"421 715 OFFCURVE",
"294 715 CURVE SMOOTH",
"139 715 OFFCURVE",
"19 641 OFFCURVE",
"19 528 CURVE SMOOTH",
"19 412 OFFCURVE",
"96 341 OFFCURVE",
"234 310 CURVE SMOOTH",
"320 291 LINE SMOOTH",
"398 274 OFFCURVE",
"430 255 OFFCURVE",
"430 203 CURVE SMOOTH",
"430 140 OFFCURVE",
"378 105 OFFCURVE",
"303 105 CURVE SMOOTH",
"224 105 OFFCURVE",
"164 149 OFFCURVE",
"152 222 CURVE",
"8 174 LINE",
"34 62 OFFCURVE",
"154 -15 OFFCURVE",
"299 -15 CURVE SMOOTH"
);
},
{
closed = 1;
nodes = (
"338 -94 LINE",
"338 795 LINE",
"258 795 LINE",
"258 -94 LINE"
);
}
);
width = 600;
}
);
note = dollar;
unicode = 0024;
},
{
glyphname = euro;
lastChange = "2021-11-24 17:39:07 +0000";
layers = (
{
layerId = "3A3E882A-FD1E-4FEC-B6F3-0E8C1BCDAD39";
paths = (
{
closed = 1;
nodes = (
"491 -14 OFFCURVE",
"581 38 OFFCURVE",
"626 137 CURVE",
"549 165 LINE",
"520 105 OFFCURVE",
"465 65 OFFCURVE",
"385 65 CURVE SMOOTH",
"293 65 OFFCURVE",
"224 139 OFFCURVE",
"197 248 CURVE",
"353 248 LINE",
"381 299 LINE",
"189 299 LINE",
"189 385 LINE",
"428 385 LINE",
"456 436 LINE",
"197 436 LINE",
"222 559 OFFCURVE",
"294 636 OFFCURVE",
"382 636 CURVE SMOOTH",
"463 636 OFFCURVE",
"517 595 OFFCURVE",
"545 535 CURVE",
"623 563 LINE",
"579 660 OFFCURVE",
"491 715 OFFCURVE",
"387 715 CURVE SMOOTH",
"239 715 OFFCURVE",
"135 601 OFFCURVE",
"106 436 CURVE",
"43 436 LINE",
"15 385 LINE",
"100 385 LINE",
"100 299 LINE",
"43 299 LINE",
"15 248 LINE",
"106 248 LINE",
"134 96 OFFCURVE",
"231 -14 OFFCURVE",
"380 -14 CURVE SMOOTH"
);
}
);
userData = {
assembly = "NPUSHB[ ]	/* 87 values pushed */\01220 19 2 3 5 43 42 2 10 1 2 76 11 1 7 1 75 6 1 3 0 7 2 3 7 103 8 1 2 9 1 1 10 2 1 104 0 5 5 4 97 0 4 4 40 77 0 10 10 0 97 11 1 0 0 41 0 78 1 0 40 38 36 35 34 32 29 28 27 26 24 22 17 15 13 12 6 5 4 3 0 45 1 45 12 8 22 \012CALL[ ]	/* CallFunction */";
};
width = 664;
},
{
layerId = "541F4A62-0ECD-4B4B-B1D5-38FFB5FB401F";
paths = (
{
closed = 1;
nodes = (
"555 -14 OFFCURVE",
"662 54 OFFCURVE",
"704 167 CURVE",
"574 214 LINE",
"545 140 OFFCURVE",
"498 105 OFFCURVE",
"428 105 CURVE SMOOTH",
"361 105 OFFCURVE",
"305 168 OFFCURVE",
"276 238 CURVE",
"417 238 LINE",
"467 319 LINE",
"262 319 LINE",
"262 365 LINE",
"492 365 LINE",
"542 446 LINE",
"275 446 LINE",
"301 545 OFFCURVE",
"359 596 OFFCURVE",
"425 596 CURVE SMOOTH",
"495 596 OFFCURVE",
"542 560 OFFCURVE",
"569 486 CURVE",
"701 533 LINE",
"659 645 OFFCURVE",
"554 715 OFFCURVE",
"430 715 CURVE SMOOTH",
"277 715 OFFCURVE",
"159 617 OFFCURVE",
"123 446 CURVE",
"65 446 LINE",
"15 365 LINE",
"113 365 LINE",
"113 319 LINE",
"65 319 LINE",
"15 238 LINE",
"123 238 LINE",
"159 96 OFFCURVE",
"272 -14 OFFCURVE",
"423 -14 CURVE SMOOTH"
);
}
);
width = 742;
}
);
note = Euro;
unicode = 20AC;
},
{
glyphname = sterling;
lastChange = "2021-12-04 15:13:05 +0000";
layers = (
{
layerId = "3A3E882A-FD1E-4FEC-B6F3-0E8C1BCDAD39";
paths = (
{
closed = 1;
nodes = (
"158 13 OFFCURVE",
"201 23 OFFCURVE",
"237 23 CURVE SMOOTH",
"315 23 OFFCURVE",
"367 -15 OFFCURVE",
"443 -15 CURVE SMOOTH",
"478 -15 OFFCURVE",
"519 -6 OFFCURVE",
"568 15 CURVE",
"543 88 LINE",
"499 69 OFFCURVE",
"465 63 OFFCURVE",
"434 63 CURVE SMOOTH",
"364 63 OFFCURVE",
"325 99 OFFCURVE",
"256 99 CURVE SMOOTH",
"232 99 OFFCURVE",
"202 93 OFFCURVE",
"166 73 CURVE",
"173 75 LINE",
"239 105 OFFCURVE",
"292 162 OFFCURVE",
"292 238 CURVE SMOOTH",
"292 278 OFFCURVE",
"288 301 OFFCURVE",
"275 334 CURVE",
"455 334 LINE",
"455 389 LINE",
"251 389 LINE",
"228 436 OFFCURVE",
"203 495 OFFCURVE",
"203 543 CURVE SMOOTH",
"203 618 OFFCURVE",
"267 644 OFFCURVE",
"331 644 CURVE SMOOTH",
"394 644 OFFCURVE",
"448 620 OFFCURVE",
"465 551 CURVE",
"548 576 LINE",
"523 661 OFFCURVE",
"447 715 OFFCURVE",
"335 715 CURVE SMOOTH",
"218 715 OFFCURVE",
"114 663 OFFCURVE",
"114 546 CURVE SMOOTH",
"114 494 OFFCURVE",
"137 434 OFFCURVE",
"158 389 CURVE",
"70 389 LINE",
"70 334 LINE",
"182 334 LINE",
"198 296 OFFCURVE",
"204 267 OFFCURVE",
"204 226 CURVE SMOOTH",
"204 133 OFFCURVE",
"127 74 OFFCURVE",
"75 52 CURVE",
"103 -15 LINE"
);
}
);
userData = {
assembly = "NPUSHB[ ]	/* 73 values pushed */\01223 22 2 1 3 52 42 2 7 6 1 1 9 7 53 1 8 9 4 76 4 1 1 5 1 0 6 1 0 103 0 6 0 9 8 6 9 105 0 3 3 2 97 0 2 2 40 77 0 7 7 8 97 0 8 8 41 8 78 61 59 37 34 40 17 22 37 38 17 25 10 8 31 \012CALL[ ]	/* CallFunction */";
};
width = 598;
},
{
layerId = "541F4A62-0ECD-4B4B-B1D5-38FFB5FB401F";
paths = (
{
closed = 1;
nodes = (
"152 21 OFFCURVE",
"197 37 OFFCURVE",
"238 37 CURVE SMOOTH",
"305 37 OFFCURVE",
"355 -1 OFFCURVE",
"444 -1 CURVE SMOOTH",
"491 -1 OFFCURVE",
"547 14 OFFCURVE",
"602 41 CURVE",
"563 155 LINE",
"507 127 OFFCURVE",
"473 117 OFFCURVE",
"435 117 CURVE SMOOTH",
"377 117 OFFCURVE",
"343 147 OFFCURVE",
"258 147 CURVE SMOOTH",
"224 147 OFFCURVE",
"203 149 OFFCURVE",
"110 91 CURVE",
"187 91 LINE",
"260 136 OFFCURVE",
"309 153 OFFCURVE",
"321 228 CURVE SMOOTH",
"325 253 OFFCURVE",
"321 280 OFFCURVE",
"314 304 CURVE",
"486 304 LINE",
"486 399 LINE",
"274 399 LINE",
"247 455 OFFCURVE",
"234 489 OFFCURVE",
"234 523 CURVE SMOOTH",
"234 576 OFFCURVE",
"267 604 OFFCURVE",
"332 604 CURVE SMOOTH",
"400 604 OFFCURVE",
"432 573 OFFCURVE",
"441 502 CURVE",
"582 544 LINE",
"561 649 OFFCURVE",
"464 715 OFFCURVE",
"336 715 CURVE SMOOTH",
"185 715 OFFCURVE",
"85 641 OFFCURVE",
"85 526 CURVE SMOOTH",
"85 482 OFFCURVE",
"101 442 OFFCURVE",
"119 399 CURVE",
"41 399 LINE",
"41 304 LINE",
"160 304 LINE",
"171 276 OFFCURVE",
"175 250 OFFCURVE",
"175 216 CURVE SMOOTH",
"175 143 OFFCURVE",
"122 111 OFFCURVE",
"46 73 CURVE",
"87 -15 LINE"
);
}
);
width = 600;
}
);
note = sterling;
unicode = 00A3;
},
{
glyphname = yen;
lastChange = "2021-12-04 15:13:24 +0000";
layers = (
{
layerId = "3A3E882A-FD1E-4FEC-B6F3-0E8C1BCDAD39";
paths = (
{
closed = 1;
nodes = (
"588 700 LINE",
"485 700 LINE",
"299 371 LINE",
"113 700 LINE",
"10 700 LINE",
"252 286 LINE",
"102 286 LINE",
"102 235 LINE",
"252 235 LINE",
"252 149 LINE",
"102 149 LINE",
"102 98 LINE",
"252 98 LINE",
"252 0 LINE",
"346 0 LINE",
"346 98 LINE",
"495 98 LINE",
"495 149 LINE",
"346 149 LINE",
"346 235 LINE",
"495 235 LINE",
"495 286 LINE",
"346 286 LINE"
);
}
);
userData = {
assembly = "NPUSHB[ ]	/* 59 values pushed */\01211 1 3 4 1 76 6 1 3 7 1 2 1 3 2 104 8 1 1 9 1 0 10 1 0 103 5 1 4 4 34 77 11 1 10 10 35 10 78 0 0 0 22 0 22 21 20 17 17 17 18 17 17 17 17 17 12 8 31 \012CALL[ ]	/* CallFunction */";
};
width = 598;
},
{
layerId = "541F4A62-0ECD-4B4B-B1D5-38FFB5FB401F";
paths = (
{
closed = 1;
nodes = (
"632 700 LINE",
"466 700 LINE",
"300 407 LINE",
"134 700 LINE",
"-32 700 LINE",
"210 315 LINE",
"73 315 LINE",
"73 235 LINE",
"223 235 LINE",
"223 189 LINE",
"73 189 LINE",
"73 109 LINE",
"223 109 LINE",
"223 0 LINE",
"377 0 LINE",
"377 109 LINE",
"526 109 LINE",
"526 189 LINE",
"377 189 LINE",
"377 235 LINE",
"526 235 LINE",
"526 315 LINE",
"390 315 LINE"
);
}
);
width = 600;
}
);
note = yen;
unicode = 00A5;
},
{
glyphname = plus;
lastChange = "2021-12-04 15:13:46 +0000";
layers = (
{
layerId = "3A3E882A-FD1E-4FEC-B6F3-0E8C1BCDAD39";
paths = (
{
closed = 1;
nodes = (
"341 0 LINE",
"341 210 LINE",
"549 210 LINE",
"549 290 LINE",
"341 290 LINE",
"341 500 LINE",
"261 500 LINE",
"261 290 LINE",
"53 290 LINE",
"53 210 LINE",
"261 210 LINE",
"261 0 LINE"
);
}
);
userData = {
assembly = "NPUSHB[ ]	/* 36 values pushed */\0123 1 1 4 1 0 5 1 0 103 0 2 2 37 77 6 1 5 5 35 5 78 0 0 0 11 0 11 17 17 17 17 17 7 8 27 \012CALL[ ]	/* CallFunction */";
};
width = 602;
},
{
layerId = "541F4A62-0ECD-4B4B-B1D5-38FFB5FB401F";
paths = (
{
closed = 1;
nodes = (
"361 0 LINE",
"361 190 LINE",
"549 190 LINE",
"549 310 LINE",
"361 310 LINE",
"361 510 LINE",
"241 510 LINE",
"241 310 LINE",
"53 310 LINE",
"53 190 LINE",
"241 190 LINE",
"241 0 LINE"
);
}
);
width = 600;
}
);
note = plus;
unicode = 002B;
},
